<svg version="1.1" id="Capa_1" xmlns="http://www.w3.org/2000/svg" xmlns:xlink="http://www.w3.org/1999/xlink" x="0px" y="0px"
	 viewBox="0 0 841.9 595.3" style="enable-background:new 0 0 841.9 595.3;" xml:space="preserve">
<style type="text/css">
	.st0{fill:#190F0D;}
	.st1{fill:#F63A04;}
	.st2{fill:#B6F704;}
	.st3{fill:#D89870;}
	.st4{fill:#2B7677;}
	.st5{fill:#F3F8DC;}
</style>
<g>
	<path class="st0" d="M738.9,364.7c4.5-27.1,7.9-54.1,2.6-81.5c-1.5-7.7,1.8-13.9,8.9-17.4c7.7-3.7,15.6-3,22.8,1.4
		c3.1,1.9,5.4,5,8.1,7.5c0,5.6,0,11.2,0,16.9c-5.3,5.9-8,16.7-17.9,15.1c-8.7-1.4-7.9,2.5-7.7,7.9c0.8,18.8-1.7,37.3-5.8,55.7
		c-13.3,59.1-57.2,91.5-116.5,85.9c-3.1-0.3-7-2.3-9,1.1c-2.3,3.9,1.5,7.1,3.3,10c24.8,41.2,50.1,82,86,114.9c3.6,3.3,10,5.9,8.5,13
		c-7.5,0-15,0-22.5,0c-0.7-0.9-1.4-1.8-2.1-2.6c1.5-3.7,0.6-7.9-1.7-9.9c-19.2-16.1-34.5-35.6-48.9-55.8
		c-12.4-22.2-25.6-44-36.8-66.8c-5.2-10.6-9.7-9.4-17.8-4.6c-19.1,11.2-40.4,17.3-62.1,18.1c-10,0.3-13,2.8-14.9,11
		c-4,17.7-8.2,35.3-12.3,52.9c0.6,4.3-1.9,13.1,5,10.4c5.4-2.1,13.3-0.7,17-7.2c7.2-1.4,14.4-3.3,21.7-1.8
		c11.1,2.2,17.5,11.7,13.6,21.4c-1.4,3.6-0.6,10.4-7.7,9.6c-8.5-1-17.9,5.7-25.5-3.4c-1.7-2-2.3-8.9-5.9-5.4
		c-11.7,11.5-36.9,9.1-35.4,34.1c-5.6,0-11.2,0-16.9,0c1.8-5.3,3.5-10.6,5.5-15.8c1.4-3.8,2-6.9-2.1-9.6
		c-15.5-10.7-13.9-25.8-9.7-41c6.4-23.4,20.6-42.4,37.1-61.8c-17.9-7.3-28.6-20.3-32.7-38.5c-1-12.2-5.7-12.9-15.3-6.3
		c-12.1,8.3-25.2,14.9-39.5,4c-11-8.4-11.3-21.6-14.3-33.6c2.9-9,6.1-17.9,17.1-19.8c8.1,1.1,17-1.9,24.3,4c2.2,1.7,4.6,3.7,2.7,6.9
		c-1.6,2.7-3.8,3-7.1,2.3c-22.7-4.9-22.8-4.8-22.4,16.7c0.2,16.1,9.7,22,24.7,15.6c21.3-9.1,27-35.4,13-59.5
		c4.4-9.6,0.5-21.4,7.7-30.4c15.4-7.6,30.9-14.3,48.8-9.2c3.5,1,8.7,0.6,8.1,5.3c-0.6,4.5-5.8,3.5-9.5,3.6c-7,0.1-14-0.6-20.9,0.2
		c-8.2,0.9-18.4,2-20.3,11.5c-3.1,15.9,1.2,31.4,6.2,49.5c4.4-6.6,6.9-10.3,9.4-14c1.9-3.4,3.8-6.9,5.8-10.3c2.7-3.7,6.1-7,7.9-11.1
		c2.5-5.9,5.5-11.3,12.4-11.1c7.8,0.2,4.7,8.7,8,12.5c-19.5,13.1-28.2,33.5-33.4,54.8c-5.4,22,5.3,38.8,26.3,46.3
		c35.9,12.9,97.7-12,114.4-46.2c11.7-24,4.7-48.3-17.3-60.2c-7.2-3.9-15.4-3.7-22.9-5.9c-1.5-6.5-17.2-8-7-18.4
		c13-13.2,29.9-16.5,47.4-14c13.3,1.8,24.1,8.9,30.5,21.5c5.2,10.2,6.1,20.9,5.9,32.3c-0.4,23.6,9.5,35.1,32,27.6
		c2.2-0.7,4.7-0.6,6.9-1.2c13.2-3.5,20.7-21.7,14.7-34.2c-4.8-9.9-13.2-6.9-20.8-6.6c-4.7,0.2-8.6,3.3-6.9,8.3
		c2,5.8-0.1,10.9-4.5,11c-5,0.1-7.1-6.2-7.8-11.2c-1-6.7,2.3-12,7.1-16c8.2-6.6,28.6-5.5,37,1.5c10.6,8.9,13.7,23.5,6.2,35.4
		c-4.6,7.3-10.5,14.2-16.9,20c-10.5,9.7-38.3,6-47.3-4.9c-10.4-12.5-10-27.7-11.2-42.3c-1.3-15-9.8-23.7-22-29.8
		c-12.1-6.1-23-2.6-32.7,5.6c7.1,6.5,16.7,6.1,23.8,11.3c4.6,5.1,9.2,10.1,13.8,15.2c10.6,10.5,12.3,23.6,10.7,37.6
		c-3.5,18.1-11.6,33.9-25,47.1c7.2,4.9,14.6,4.3,21.2,4.6c33.5,1.3,64.1-5,82.9-37.1C730.9,395.6,733.1,379.3,738.9,364.7z
		 M498.5,493.3c-22.9,18-31.2,49.5-18.4,66.2C491.1,539.3,492.2,516.9,498.5,493.3z M755.5,298c9.2-3.1,14.2-8,12.7-16.7
		c-0.9-4.8-6-7-9.8-4.8C748.4,282.2,758.3,290.3,755.5,298z M531.2,552.6c4.6,6.6,9.1,10.6,16.6,6.8c1.9-1,2.9-3.1,1.5-4.5
		C544.5,549.9,538.9,547.8,531.2,552.6z"/>
	<path class="st1" d="M503.3,537.5c4.1-17.6,8.3-35.3,12.3-52.9c1.8-8.2,4.9-10.7,14.9-11c21.7-0.7,43-6.8,62.1-18.1
		c8.1-4.7,12.6-6,17.8,4.6c11.2,22.8,24.4,44.6,36.8,66.8c-0.8,14,9.8,25.6,8.4,39.8c4.2,9.3,8.9,18.3,10.6,28.5
		c-15.9,0-31.9,0-47.8,0c-1.3-3.8-2.6-7.5-4-11.3c-0.6,0.2-1.1,0.3-1.7,0.5c0,3.6,0,7.2,0,10.8c-42.2,0-84.4,0-126.5,0
		c-1.5-25,23.7-22.7,35.4-34.1c3.6-3.5,4.2,3.4,5.9,5.4c7.6,9.1,17,2.5,25.5,3.4c7.2,0.8,6.3-6.1,7.7-9.6
		c3.9-9.7-2.5-19.2-13.6-21.4c-7.4-1.5-14.6,0.4-21.7,1.8C519.7,527.3,510.8,537.3,503.3,537.5z"/>
	<path class="st0" d="M269.9,348c8.3-11.3,15.8-24.2,34.6-18.6c-3.3,5.8-8.3,6.8-13.5,8.1c-5.5,1.5-8.1,7.5-8.8,11.5
		c-0.8,4.8,6.5,6.5,10.1,6.5c13.4-0.1,20.7,8.5,26.7,18.2c3.8,6.3,6.9,9.5,14,5.2c1.5-0.9,3.7-0.5,5.5-1c7.9-2.2,13.9,1.5,18.1,7.2
		c5,6.7-0.6,14.2-4.5,16.7c-15.9,10-22.6,24.7-27.1,41.9c-2.2,8.2-9,14.7-16,21.2c11.5,3.9,22.3,6.1,32.2,11.4
		c32.7,17.6,42.9,50.8,25.3,84.6c-6.4,12.3-11.5,21.9-4.1,34.5c-5.6,0-11.2,0-16.9,0c-0.2-17.9-16.2-28.8-19.7-45.3
		c-7.3-15.9-14.5-31.8-21.8-47.8c-0.5-1.4-0.9-2.7-1.4-4.1c-4.9-20.6-4.9-20.6-18.3-10.3c-8.6,3-16.3,8.9-24.6,11.2
		c-13.7,3.9-28.5,5.7-43,3.6c-8.5-1.3-11.1,2.6-13.1,10.2c-3,11.5-5.8,23.2-8.6,34.7c-3.8,15.7-9.4,31.3-9.9,47.7
		c-4.7,0-9.4,0-14.1,0c7.8-29.8,15.6-59.7,23.9-91.2c-30.5,6.6-55.7,1.1-77.3-17.6c-19.7-17.1-27.2-40.1-30.9-65
		c-4.7-32.1-2.1-64.4-2.7-96.6c-0.3-16.8,1.9-34.2-5.9-50.2c0-6.6,0-13.1,0-19.7c2.8-3.3,5.3-6.8,8.4-9.8c9.5-9.4,22.8-9.7,29.6-0.9
		c6.7,8.6,5.1,24.9-5,29.8c-15.6,7.6-17.6,18.7-16.7,34.5c1.7,30.8,0.5,61.7,1,92.5c0.3,18.3,3.8,36.2,11.3,53.1
		c13.3,29.9,46.5,47.4,75.9,39.4c-11.3-12.2-21.2-24.9-25.3-40.9c-1.5-5.7-5.7-3.2-9.1-3.2c-9.2,0.2-17.3-2.1-18.6-12.7
		c-1.2-10.1,6-16.9,14.4-17.8c11.3-1.1,12.8-7.9,15.1-16.2c6.4-23.2,18.9-42.6,37.8-57.6c3.8-3,7.6-7.8,12.9-2
		c1.4,5.9-3.1,8-6.7,10.9c-16.8,13.7-28.4,31.2-33.6,52.1c-11.5,45.8,3.7,75,45.3,84.3c40.7,9.1,96.2-24.3,107.2-68.6
		c6.4-25.9-14.7-58.6-37.8-59.6C274.4,361.9,270.7,356.8,269.9,348z M309.7,480c7.3,29.4,21.6,53.9,35.2,78.7
		c6.4,11.6,10.5-0.9,12.3-4.1c8.6-15.7,10.1-32.6,0.7-48.2C347.3,489,331.4,479.3,309.7,480z M93.8,274.3c3.3-2.4,6.6-4.7,9.7-7.3
		c1.4-1.1,2.4-2.8,3.4-4.3c2.1-3.2,3.9-6.9,0.9-10.1c-2.8-3-6.5-1.7-10.1-0.5C87.6,255.7,86.3,261.9,93.8,274.3z M349.5,389.2
		c-9.3-2.2-16-1.9-19.8,3.9c-2.1,3.2,1.7,9.2,4.8,9.9C344.4,405.4,343.4,395.1,349.5,389.2z M154.5,434.2c0.1-3.7-0.8-5.8-4.6-5.4
		c-3.9,0.5-7.3,2-8.1,6c-0.7,3.2,2.5,3.3,4.5,3.4C149.8,438.4,153.9,439.1,154.5,434.2z"/>
	<path class="st2" d="M185.2,595.3c0.5-16.5,6-32,9.9-47.7c2.8-11.5,5.6-23.2,8.6-34.7c2-7.6,4.6-11.4,13.1-10.2
		c14.5,2.2,29.3,0.3,43-3.6c8.3-2.3,16-8.3,24.6-11.2c10-3.5,11.9,7.4,18.3,10.3c0.5,1.4,0.9,2.7,1.4,4.1
		c-0.7,12,4.9,22.2,10.2,32.2c3,5.6,1.9,14.8,11.6,15.6c3.5,16.4,19.5,27.4,19.7,45.3C292.1,595.3,238.7,595.3,185.2,595.3z"/>
	<path class="st0" d="M407.4,27.3c-0.6,4.1,1.6,5,5.2,6.4c23.8,9.3,36.1,27.5,38.2,52.5c2,24.6-11.5,40.5-31.5,52.1
		c-8.9,5.2-18,9.9-27,15c-11,6.1-14.4,13.5-5.8,24.8c2.4,3.2,12.1,9.4,0.8,13.7c-7.6,2.9-15.1,14.8-23.9-0.4
		c-14.5-25.4-11-44.2,13.7-59.6c10.7-6.7,22-12.5,32.8-19c9.9-6,16-14.4,14.2-26.7c-1.9-12.9-8.1-22.7-20.8-27.7
		c-34.7-13.8-90.6,9.3-104.9,43.6c-2,4.7-3.5,9.7-5.1,14.6c-5.8,17.3-5.6,16.9-22.7,9.9c-6.4-2.6-6.6-5-5.1-11.3
		c10.9-45.1,38.4-72.6,83.8-82.6c3.3-0.7,9,0.5,10.3-5.2C375.5,27.3,391.4,27.3,407.4,27.3z"/>
	<path class="st3" d="M612.6,595.3c0-3.6,0-7.2,0-10.8c0.6-0.2,1.1-0.3,1.7-0.5c1.3,3.8,2.6,7.5,4,11.3
		C616.4,595.3,614.5,595.3,612.6,595.3z"/>
	<path class="st3" d="M269.9,348c0.8,8.9,4.5,13.9,14.6,14.4c23,1,44.2,33.7,37.8,59.6c-11,44.4-66.5,77.7-107.2,68.6
		c-41.5-9.2-56.7-38.5-45.3-84.3c5.2-20.9,16.8-38.3,33.6-52.1c3.6-2.9,8.1-5,6.7-10.9c0,0,0-1.1,0-1.1s1.1,0,1.1,0
		c3.7-0.9,8.2,1.9,11-2.5c1.7,0.1,3.3,0.1,5,0.2c4.4,7.7,8.6,8.3,12.5-0.4C251.1,337.4,259.3,347.1,269.9,348z M235.3,381.9
		c-1.5-1.8,9.4-5.9-0.8-5.8c-11.6,0.1-20.7,6.5-28.8,14.2c-1.4,8.4-0.9,15.5,9.1,18.6c9.2,2.9,15.2-1,20.8-7.5
		c2.2-2.5,1.8-8.4,8.8-4.8c12.9,6.6,26.7-3.5,27.3-18.9c0.1-3.2,1.4-6.7-3.8-7.2c-3.6-0.3-6.1,0.2-7.1,4.5
		c-1.2,5.2-2.8,10.6-8.6,15.3C250.3,378.3,240.4,386.3,235.3,381.9z M237.1,445.8c30.7,0.2,60.6-24.2,63.1-52
		c0.3-3.8,3.7-10.4-2.9-11.6c-7.2-1.4-7.2,5.4-8,10.3c-3.3,19.5-19.7,35.1-38.5,40.6c-23.4,6.9-39.3-6.6-56.6-17.4
		c-2.9-1.8-4-6.8-9-3.4c-5.6,3.8-1.5,7.3,0.2,10.6c1.2,2.4,2.7,5.2,4.8,6.5C204.7,437.9,219.5,446,237.1,445.8z"/>
	<path class="st4" d="M514.2,355.3c-3.3-3.9-0.2-12.3-8-12.5c-6.9-0.2-9.8,5.2-12.4,11.1c-1.7,4.1-5.2,7.4-7.9,11.1
		c-0.6-4.5-4-6.7-7.5-5.7c-3.1,0.8-1,4.8-0.9,7.2c0.2,3-0.3,6.5,2.6,8.8c-2.5,3.7-5,7.4-9.4,14c-5-18.1-9.3-33.6-6.2-49.5
		c1.9-9.5,12.1-10.6,20.3-11.5c6.9-0.8,14-0.1,20.9-0.2c3.6-0.1,8.9,0.9,9.5-3.6c0.6-4.7-4.6-4.3-8.1-5.3
		c-17.9-5.2-33.4,1.6-48.8,9.2c-0.7-13.1,8.7-18.9,18.5-22.8c18.8-7.5,37.8-7.9,54.3,5.7c10.8,8.9,19.9,4.4,27.2-2.6
		c14.7-14,32.4-19.7,51.7-22.4c17.2-2.4,44.6,14.8,51,41.4c2.6,10.8,5.5,12.9,16.5,7.7c21.7-10.2,44.6-0.8,55.5,20.4
		c1.6,3.2,1.9,7.2,5.8,8.9c-5.8,14.6-8.1,30.9-19.6,42.8c-5.7-1.2-9.4,3.2-13.9,5.2c-24.6,10.8-53.5,7.7-65.2-19.8
		c1.6-14-0.1-27.1-10.7-37.6c5.9-13.3,3.7-15.8-13.8-15.2c-7.1-5.2-16.7-4.7-23.8-11.3c9.7-8.2,20.6-11.7,32.7-5.6
		c12.1,6.1,20.7,14.8,22,29.8c1.2,14.6,0.8,29.8,11.2,42.3c9.1,10.9,36.8,14.6,47.3,4.9c6.4-5.9,12.2-12.7,16.9-20
		c7.5-11.9,4.4-26.5-6.2-35.4c-8.3-7-28.8-8.1-37-1.5c-4.8,3.9-8.1,9.2-7.1,16c0.7,5,2.8,11.3,7.8,11.2c4.5-0.1,6.5-5.2,4.5-11
		c-1.7-5,2.1-8.2,6.9-8.3c7.5-0.2,16-3.3,20.8,6.6c6.1,12.5-1.4,30.7-14.7,34.2c-2.3,0.6-4.7,0.5-6.9,1.2c-22.5,7.5-32.4-4-32-27.6
		c0.2-11.4-0.7-22.1-5.9-32.3c-6.4-12.6-17.2-19.7-30.5-21.5c-17.5-2.4-34.3,0.9-47.4,14c-10.3,10.4,5.5,11.9,7,18.4
		c-4.4,2.7-6.6,6.3-5,11.6c-6.3,3.1-12.7,5.7-19.5,1.2c-11-19.1-13.4-19.5-28.5-4.8C524.1,356.1,519.5,356.9,514.2,355.3z"/>
	<path class="st4" d="M450.7,358.8c14,24.1,8.3,50.3-13,59.5c-15,6.4-24.5,0.5-24.7-15.6c-0.3-21.5-0.3-21.6,22.4-16.7
		c3.3,0.7,5.5,0.4,7.1-2.3c2-3.3-0.5-5.2-2.7-6.9c-7.3-5.8-16.2-2.9-24.3-4c4.5-7.9,12.7-9.1,19.5-7.2
		C443.3,367.9,446.7,363.7,450.7,358.8z"/>
	<path class="st4" d="M398.4,392.6c2.9,12,3.2,25.2,14.3,33.6c14.3,10.9,27.4,4.2,39.5-4c9.6-6.6,14.3-5.8,15.3,6.3
		c-18.5,12.9-37.5,21.1-58.7,5.8C395.5,424.7,391.6,408.4,398.4,392.6z"/>
	<path class="st0" d="M410.5,231.9c17.9,0.4,6.3,17.3,13,24.1c1.8,1.8-14.2,19.9-16.6,18.5c-12.2-7.2-11.8-20-13.1-31.9
		C392.3,228,404.4,235.2,410.5,231.9z"/>
	<path class="st0" d="M239.7,339.5c-3.9,8.7-8,8.1-12.5,0.4c3.9-10.6,7.7-21.3,19.7-25.6c3.1-1.1,6.1-5.4,9.3,0.3
		c2.9,5.1-0.6,6.5-4,8.2C245.3,326.3,239.2,330.4,239.7,339.5z"/>
	<path class="st0" d="M222.2,339.7c-2.8,4.4-7.4,1.6-11,2.5c-1.1-5.3,3.7-10.8-0.5-16.2c-2.5-3.2-1-6.9,2.1-8.3
		c4.8-2.2,6,2.9,7.9,5.6C224.2,328.4,221.7,334.3,222.2,339.7z"/>
	<path class="st3" d="M514.2,355.3c5.3,1.6,9.9,0.8,14-3.2c15.1-14.7,17.5-14.3,28.5,4.8c-6,3.3-1.5,15.4-6.5,14.1
		c-6.1-1.6-15.3,10.9-19.1-3.9c-0.9-3.7-7-0.9-8.9,3.5c-14.6,6.7-17.2,11.2-10.9,18.4c-14.9,1.7-6.3,11.1-3.7,15.3
		c13.6,21.6,34.4,23.5,60,9.8c9.3-5,14.6-15.3,25.2-18.3c4.9,2.6,1,8.8,5.4,12.4c8.7-8,13.1-16.2,3.5-26.7c-1.6-4,3.3-11.3-5.3-11.7
		c-6.5-0.4-7.8,5-9.5,9.9c-2.4,7-5.8,13.3-13.4,16c-3.8-3.9-8.8-4.6-12.7-1.9c-3.9,2.7,0.1,6.7,1,10.1
		c-23.1,14.8-39.2,9.9-47.4-14.3c-1.3-6.4,0.8-10.4,7.8-10.9c6.9,12.7,17.1,12.3,26.7,4.8c5.1-4,8.7-3,13.7-2.3
		c9.6,1.4,14.4-6.2,18-12.8c1.8-3.3,5.4-11.5-4.4-12.8c-1.6-5.3,0.6-8.9,5-11.6c7.6,2.2,15.8,2,22.9,5.9c22,11.9,29,36.2,17.3,60.2
		c-16.7,34.1-78.4,59.1-114.4,46.2c-21-7.5-31.7-24.3-26.3-46.3C486.1,388.8,494.7,368.5,514.2,355.3z"/>
	<path class="st3" d="M697.7,592.6c-5.2,1.9-9.3,0.6-11.6-4.4c-4.8-10.4-14.9-16.2-21.4-25.3c-5.3-7.4-8-2.1-9.2,3.8
		c1.4-14.2-9.1-25.8-8.4-39.8c14.5,20.2,29.7,39.8,48.9,55.8C698.3,584.7,699.2,589,697.7,592.6z"/>
	<path class="st5" d="M498.5,493.3c-6.3,23.6-7.4,46-18.4,66.2C467.3,542.8,475.6,511.3,498.5,493.3z"/>
	<path class="st3" d="M755.5,298c2.9-7.7-7.1-15.8,2.9-21.5c3.8-2.2,8.9,0,9.8,4.8C769.7,289.9,764.7,294.9,755.5,298z"/>
	<path class="st3" d="M503.3,537.5c7.5-0.2,16.5-10.2,22,3.2c-3.7,6.6-11.5,5.2-17,7.2C501.3,550.6,503.8,541.8,503.3,537.5z"/>
	<path class="st3" d="M531.2,552.6c7.6-4.8,13.3-2.7,18.1,2.3c1.3,1.4,0.3,3.5-1.5,4.5C540.3,563.2,535.9,559.2,531.2,552.6z"/>
	<path class="st5" d="M629.5,355.3c-4.6-5.1-9.2-10.1-13.8-15.2"/>
	<path class="st5" d="M478.4,359.3c3.5-0.9,6.9,1.3,7.5,5.7c-1.9,3.4-3.8,6.9-5.8,10.3"/>
	<path class="st3" d="M93.8,274.3c-7.4-12.5-6.2-18.7,3.9-22.2c3.6-1.2,7.3-2.5,10.1,0.5c3,3.2,1.3,6.9-0.9,10.1
		c-1,1.5-2,3.2-3.4,4.3C100.4,269.6,97.1,271.9,93.8,274.3z"/>
	<path class="st3" d="M325.8,550c-9.7-0.8-8.6-10-11.6-15.6c-5.3-10-10.9-20.2-10.2-32.2C311.3,518.2,318.6,534.1,325.8,550z"/>
	<path class="st3" d="M349.5,389.2c-6.1,5.8-5.1,16.1-15,13.8c-3.1-0.7-6.9-6.7-4.8-9.9C333.5,387.3,340.3,387,349.5,389.2z"/>
	<path class="st3" d="M302.6,498.1c-6.4-3-8.3-13.8-18.3-10.3C297.8,477.5,297.8,477.5,302.6,498.1z"/>
	<path class="st3" d="M154.5,434.2c-0.6,4.9-4.7,4.2-8.2,4.1c-2.1-0.1-5.2-0.2-4.5-3.4c0.9-4,4.3-5.6,8.1-6
		C153.7,428.4,154.6,430.5,154.5,434.2z"/>
	<path class="st0" d="M237.1,445.8c-17.6,0.2-32.4-7.8-46.8-16.5c-2.2-1.3-3.6-4.1-4.8-6.5c-1.7-3.4-5.9-6.8-0.2-10.6
		c4.9-3.3,6.1,1.6,9,3.4c17.3,10.8,33.2,24.3,56.6,17.4c18.8-5.5,35.2-21.1,38.5-40.6c0.8-4.9,0.8-11.7,8-10.3
		c6.5,1.3,3.2,7.9,2.9,11.6C297.6,421.6,267.7,446,237.1,445.8z"/>
	<path class="st0" d="M235.3,381.9c5.1,4.4,15-3.6,17,8.5c5.9-4.7,7.5-10.1,8.6-15.3c1-4.4,3.5-4.9,7.1-4.5c5.1,0.5,3.9,3.9,3.8,7.2
		c-0.6,15.4-14.5,25.5-27.3,18.9c-7-3.6-6.7,2.3-8.8,4.8c-5.6,6.5-11.6,10.4-20.8,7.5c-10-3.2-10.5-10.3-9.1-18.6
		c3.2-0.2,6.5-0.4,9.7-0.5c1.6,3.4,1.1,9.8,7.1,8c5.9-1.8,7.6-7.5,7.4-13.5C231.7,383.5,233.5,382.7,235.3,381.9z"/>
	<path class="st5" d="M235.3,381.9c-1.8,0.8-3.6,1.6-5.4,2.4c-5.6-0.2-9.8,3.3-14.4,5.5c-3.2,0.2-6.5,0.4-9.7,0.5
		c8.1-7.7,17.2-14.1,28.8-14.2C244.7,376,233.8,380.1,235.3,381.9z"/>
	<path class="st0" d="M576.2,355.7c9.8,1.3,6.1,9.5,4.4,12.8c-3.6,6.6-8.4,14.2-18,12.8c-5-0.7-8.6-1.7-13.7,2.3
		c-9.6,7.5-19.8,7.9-26.7-4.8c0-2.7,0-5.4,0-8.2c1.9-4.4,8-7.2,8.9-3.5c3.8,14.8,13,2.3,19.1,3.9c4.9,1.3,0.4-10.8,6.5-14.1
		C563.5,361.5,569.9,358.8,576.2,355.7z"/>
	<path class="st0" d="M573.6,395.8c7.6-2.7,11-9,13.4-16c1.7-4.9,3-10.3,9.5-9.9c8.6,0.5,3.7,7.7,5.3,11.7c-4,4.1-6.9,8.9-8.9,14.3
		c-10.6,3-15.9,13.3-25.2,18.3c-25.5,13.8-46.3,11.8-60-9.8c-2.6-4.2-11.3-13.6,3.7-15.3c1,0.2,2,0.4,3,0.6
		c8.2,24.2,24.4,29.1,47.4,14.3C567,403,570.8,400.1,573.6,395.8z"/>
	<path class="st5" d="M592.9,395.8c2-5.3,4.9-10.1,8.9-14.3c9.5,10.4,5.1,18.6-3.5,26.7C593.9,404.6,597.8,398.4,592.9,395.8z"/>
	<path class="st5" d="M514.4,389.7c-1-0.2-2-0.4-3-0.6c-6.4-7.3-3.7-11.8,10.9-18.4c0,2.7,0,5.5,0,8.2
		C515.2,379.3,513.1,383.2,514.4,389.7z"/>
	<path class="st5" d="M573.6,395.8c-2.8,4.3-6.6,7.2-11.7,8.2c-0.9-3.4-4.9-7.4-1-10.1C564.7,391.2,569.8,391.9,573.6,395.8z"/>
	<path class="st3" d="M215.5,389.8c4.7-2.2,8.9-5.7,14.4-5.5c0.3,6-1.4,11.8-7.4,13.5C216.5,399.6,217.1,393.2,215.5,389.8z"/>
</g>
</svg>
