<svg version="1.1" id="Capa_1" xmlns="http://www.w3.org/2000/svg" xmlns:xlink="http://www.w3.org/1999/xlink" x="0px" y="0px"
	 viewBox="0 0 595.3 595.3" style="enable-background:new 0 0 595.3 595.3;" xml:space="preserve">
<style type="text/css">
	.st0{fill:#FDFDFD;}
	.st1{fill:#323231;}
	.st2{fill:#AA5601;}
	.st3{fill:#F9B88E;}
	.st4{fill:#FCD6C1;}
	.st5{fill:#E7E5E1;}
</style>
<g>
	<g>
		<path class="st0" d="M331.6,755c-169,0-338,0-506.9,0.1c-4.2,0-4.8-1.1-4.8-5c0.1-322.8,0.1-645.6,0-968.4c0-4,0.7-4.9,4.8-4.9
			c337.8,0.1,675.6,0.1,1013.4,0c4.5,0,5,1.2,5,5.2c-0.1,322.8-0.1,645.6,0,968.4c0,3.7-0.7,4.6-4.6,4.6
			C669.6,755,500.6,755,331.6,755z M750.2,753.9c4.8-0.2,10.3,1.3,11.9-5.6c5.9-17.8,11.8-35.6,17.6-53.5
			c13-39.6,25.9-79.3,38.8-119c1.9-5.7,1.8-5.8-4.3-5.8c-7.8,0-15.7-0.4-23.5,0.2c-5.3,0.4-6.3-1.6-6.4-6.3
			c-0.4-20-1.9-39.9-6.3-59.5c-3.7-16.2-8.9-31.7-21.1-43.8c-0.8-1.3-1.5-2.5-1.8-4.1c-6.5-43.6-15.8-86.8-19.5-130.8
			c-3.3-39.4-5.8-78.8,0.3-118.1c0.5-3.2,1.7-5.1,4.5-6.4c7.9-3.4,14.9-8.2,21-14.2c12.9-12.6,21-27.1,16.9-46
			c-0.4-1.7-0.1-2.9,1.4-4.3c13.5-12.3,19.2-37.7,12.3-54.5c-2.9-7.1-9-10.8-16.4-8.9c-3.8,1-4.1-0.5-4.7-3.2
			c-1.2-5.3-3.1-10.2-7.1-14.1c-3-2.9-6.5-4.4-10.9-3.6c-2.4,0.5-4.4,3.9-6.5,2.3c-1.6-1.3-1.7-4.5-2.5-6.9
			c-0.2-0.6-0.5-1.2-0.8-1.8c-9.3-19.7-30.9-22-44.1-4.6c-1,1.3-1.6,3.4-3.8,3.6c-0.7-2.1-0.1-4,0.3-5.9c1.7-8.5,3.4-17,5.1-25.5
			c3.2-16,3.8-32-0.8-48c-3.4-11.8-12.5-19.6-22.8-19.4c-10.5,0.3-18.9,4.7-25,13.3c-7.2,10.2-9.8,21.9-11.3,34.1
			c-4,33.7,0.9,66,14.5,97.1c1.4,3.1,1.2,4.8-2.2,6c-2.6,0.9-5.2,2.3-7.6,3.7c-23.3,13.5-32.6,35.1-25.2,59.5
			c5,16.5,14.9,30.1,28.4,40.8c14.7,11.6,31.2,15.1,49.4,9.9c0.9-0.2,1.8-1,3,0.3c-1.8,13.6-4.3,27.4-7.7,40.9
			c-2.1,8.2-3.5,16.6-7.1,24.3c-8.4-0.1-16,2.5-22.6,7.7c-9.4,7.3-15.4,17-19.5,27.8c-4.5,11.9-7.6,24.4-17.4,33.4
			c-0.1,0.1-0.2,0.2-0.3,0.4c-1.5,3.4-2.9,2.9-5,0.3c-9.6-11.8-17.4-24.7-24.2-38.3c-14.7-29.2-32-56.7-54.2-80.9
			c2.2-5.9,6.6-9.3,12.6-10.9c4.7-1.3,5.3-2.8,2.1-6.4c-6.4-7.2-14.3-12.1-25-14.1c5.4-3.1,9.5-6.2,13-9.8
			c16.5-17.4,22.1-38.1,18-61.6c-3.3-19.3-8.5-38-16.7-55.7c-8-17.2-18.3-32.8-34.4-43.7c-1.8-1.2-2.8-2.7-2.5-5
			c0.4-3.1,1-6.3,0.7-9.4c-0.7-11-3-21.7-7.7-31.8c-7.2-15.4-15-30.3-31.6-37.7c-1.5-0.7-2.4-1.5-2.4-3.4
			c-0.2-12-4.5-22.7-10.7-32.8c-7.2-11.7-15.1-22.9-28.1-28.9c-8.1-3.7-16.5-5.3-25-1.2c-2.8,1.3-3.6,0.4-4.3-2.5
			c-3.3-13.1-7.1-26.1-15.9-36.8c-7.1-8.6-16.1-13.4-27.6-11.4c-11.5,2-18.5,9.8-23.9,19.4c-4.7,8.2-6.7,17.5-9.1,26.6
			c-2-0.9-2-2.5-2.6-3.8c-4.6-9.8-9.1-19.6-16.1-28c-9.7-11.8-23.7-14.4-36.4-5.8c-12.8,8.6-19.2,21.2-21.3,36.2
			c-0.6,4-0.9,8-1.3,12.2c-11.8-4.8-21.9-1.7-30.1,6.5c-16.8,16.8-25.1,36.9-21.9,61c0.2,1.9,0.1,3.3-1.9,4
			c-12.4,4.9-19,15.4-23.7,26.8c-8.6,21-8.8,42.4-0.7,63.7c1.1,2.8,0.4,3.9-2.5,4.4c-36.4,5.2-54.6,30.7-66.3,61.9
			c-6.4,17.1-6.7,35.6-5.4,53.8c1,13.4,4.1,26.5,13.5,36.8c3.9,4.3,3.7,6.2-0.6,9.6c-5.6,4.3-5.3,4.6,1,7.7c0.4,0.2,0.6,0.7,1,1.1
			c-4.8,5-9.7,10.1-14.5,15.1c-38.9,40.3-75,83-106.8,129.2c-42.8,62.4-76.5,128.9-92.5,203.5c-0.8,3.5-1.9,4.5-5.5,4.5
			c-14.2-0.2-28.3,0-42.5-0.1c-3.2,0-4.7,0.5-3.5,4.3c7.2,21.3,14.2,42.6,21.2,63.9c0.3,0.9,0.7,1.7,1,2.6c-0.1,1-0.1,1.9,0.7,2.7
			c1.9,5.9,3.9,11.9,5.8,17.8c9.4,28.9,19,57.8,28.2,86.8c1.5,4.6,3.3,6,8.2,6c205.7-0.1,411.5-0.1,617.2-0.1
			C600.9,754,675.5,753.9,750.2,753.9z"/>
		<path class="st1" d="M-134.9,638.2c-7.1-21.3-14.1-42.6-21.2-63.9c-1.3-3.7,0.3-4.3,3.5-4.3c14.2,0.1,28.3-0.1,42.5,0.1
			c3.5,0.1,4.7-1,5.5-4.5c16-74.6,49.7-141.1,92.5-203.5c31.7-46.3,67.8-88.9,106.8-129.2c4.9-5,9.7-10.1,14.5-15.1
			c12.7,0.2,23,10.4,23.2,23c0.2,10.3,1,20.6,3.1,30.8c4,19.3,11.7,36.4,27.9,48.7c10.2,7.8,21.3,12.6,34.4,8.8
			c5.3-1.6,10.8-1.8,16.2-2.1c25.1-1.5,49,2.3,70.3,17.2c11.4,8,23.1,15.8,36.6,20.1c17,5.4,34.1,9,51.8,2.7
			c14.9-5.2,26.8-14.7,37.4-25.9c16.3-17.3,34.3-31.9,56.7-40.7c9.6-3.8,18.9-8.4,28.5-12.1c23.7-9.2,38.2-25.8,43-50.9
			c0.7-3.7,1.1-7.9,4.8-10.5c22.2,24.2,39.5,51.6,54.2,80.9c6.8,13.5,14.6,26.5,24.2,38.3c2.1,2.6,3.5,3.1,5-0.3
			c0.1-0.1,0.2-0.3,0.3-0.4c9.9-9,12.9-21.6,17.4-33.4c4.1-10.8,10.1-20.6,19.5-27.8c6.7-5.2,14.2-7.8,22.6-7.7c0,1,0.4,2.3-0.1,2.9
			c-2.6,3.4-1.6,7.8-3.7,11.4c-1,1.7-2.5,4.7,0.9,6.3c-6.4,9.9-8.7,21.2-10.1,32.6c-3.3,27.4-2.9,54.8,0.2,82.2
			c2.5,21.9,6.5,43.4,13.9,64.2c6.6,21.6,16.1,41.8,29.2,60.3c6,8.5,13.7,15.4,23.2,20.1c2.6,1.3,5.2,3,8.4,2.3
			c3.5,2.5,3.7-0.9,4.5-2.6c5.4-11,6.5-23,7.1-34.8c0.9-19.2-0.3-38.4-3.6-57.4c-0.2-1.2-0.3-2.3,0.9-3.2
			c12.2,12.1,17.5,27.6,21.1,43.8c4.4,19.5,5.9,39.5,6.3,59.5c0.1,4.7,1,6.7,6.4,6.3c7.8-0.6,15.6-0.2,23.5-0.2
			c6.1,0,6.2,0.1,4.3,5.8c-12.9,39.7-25.8,79.3-38.8,119c-5.8,17.8-11.8,35.6-17.6,53.5c-3.9-2.4-2.3-6.2-1.1-8.7
			c3.1-6.8,4.8-14,7.2-21c9.5-27.9,18.4-56.1,27.5-84.1c5.9-18,11.7-35.9,17.6-53.9c2.2-6.7,2.2-6.8-4.9-6.8
			c-303.9,0-607.9,0-911.8,0.1c-14.7,0-29.3-1.2-43.9-1c-3.9,0-5.6,0.8-4,5.1c3,8.1,5.6,16.4,8.3,24.6c3.9,12,7.8,24,11.6,36
			c0.6,1.9,1.3,4-1.6,4.8c-0.8-0.7-0.9-1.7-0.7-2.7C-132.6,639.3-133.1,638.4-134.9,638.2z M82.6,417.3c-9.3,4.1-18.5,8.3-25.8,15.7
			c-2.9,2.5-5.8,4.9-8.6,7.4c-12.3,11.3-22.3,24-25.8,40.8c-1.5,0.2-1.7,1.6-2,2.6c-4.4,13.9-3.5,27.7,2.2,40.9
			c8.6,20,24.8,32.2,44.6,39.5c6,2.2,12.9,2.5,17.2-4.7c0.7-1.2,1.7-2.5,3.4-2.6c8.9-0.3,17-4.8,26.2-4.2
			c8.3,0.5,12.5-3.8,14.8-11.6c0.3-1,0.6-2.1,1.8-2c5.3,0.2,11-1.6,15.8,0.8c5.5,2.9,11.1,3.2,16.9,3.2
			c11.7-0.1,20.4-10.3,18.2-21.8c-1.2-6.5-3.6-12.8-6.1-18.9c-0.7-1.6-1.6-3.3-3.5-1c-1.4-0.9-2.9-1.6-4.6-1.1
			c-1-0.1-2.1-0.2-3.1-0.2c-11.1-4.5-22.5-7-34.5-5.9c-1.4-0.6-3.8-0.7-3.4-2.9c0.4-1.9,2.5-1.1,3.9-1.2c8.4-0.4,16.6,0.3,24.6,3
			c5.5,1.9,11.2,3.2,16.9,3.9c4.6,0.5,5.7-0.8,3.9-4.9c-2.6-6-1.9-12.1-1.3-18.2c0.5-4.6-1-6.4-5.5-5.7c-7.5,1.3-14.9,3.2-22.1,5.6
			c-7,2.3-14.3,2.7-21.6,3.2c-1.1,0.1-2.5,0.3-2.8-1.3c-0.3-1.7,1.7-1.3,2.2-2.3c9.7,0,19.1-1.8,28.3-5c6.1-2.1,12.4-3.8,19-3.6
			c4.5,1.2,4.3-1.9,3.9-4.6c-1.9-11.2-4.8-22-12.6-30.9c-3.7-4.2-7.6-8.9-12.1-11.2c-4.2-2.2-8.3-5.4-14-6c-7.8-0.8-15.4-3.4-23.5-3
			c-5.3,0.3-10.6,0.3-15.9,0.1c-5.2-0.2-9.3,3-14,4.3C81.9,414,81.9,415.7,82.6,417.3z M197.8,496.9c-0.2,5.6,3.5,2.2,5,1.8
			c11.1-3.2,22.4-4.9,34-4.2c10,0.6,19.8,2.2,29.3,5.6c2.2,0.8,4.2,1.4,4.1-2.3c-0.2-10.1-0.8-20.3,0.1-30.4
			c0.2-1.9-0.3-3.2-2.6-3.5c-16.3-2.1-32.6-5-49.1-2.1c-7,1.2-14.2,1.3-20.7,4.6C197.9,476.6,197.8,486.8,197.8,496.9z M232.8,409.3
			c-7-0.2-13.9-0.3-20.8,1.6c-6.4,1.8-13.2,2.5-14.3,11c-0.2,1.7-2.3,2.3-3.6,3.2c-3.3,2.4-3.3,5.9-1.5,8.9
			c4.1,6.7,9.5,8.7,17.3,6.6c15.2-4.2,30.4-4.2,45.7-1.1c7.4,1.5,12.4-1.2,15.3-8.4c1-2.5,0.5-4.5-1-6.5c-6-8.4-13.3-14.8-24.3-15.3
			C241.5,409.2,237.2,409.3,232.8,409.3z M334.7,460.2c0.9-11.3-0.4-21.2-0.7-31.2c-0.4-12.9-0.8-25.9-1.1-38.8
			c-0.1-2.4-0.6-3.7-3.5-4.4c-10.6-2.4-21.1-5.5-31.7-8c-5.2-1.2-10.2-3.7-16.4-3.3C303,400.2,319.5,429,334.7,460.2z M230.7,518
			c-6.2-0.2-12.1-0.5-17.5,2c-3.6,1.7-8.6,3-9.3,7.5c-0.4,2.8-0.9,3.9-3.4,4.9c-3.7,1.5-3.5,5-2.4,8c0.9,2.7,2.4,5.3,6.2,4
			c2.2-0.8,3.8-0.6,4.8,1.9c1.8,4.7,5.9,3.6,9.4,3.4c3.8-0.3,1.4-3.3,1.7-5.1c0.2-1.6,0.7-2.3,2.3-2.6c2.3-0.5,4.5-0.8,6.9-0.9
			c10.6-0.6,21.2,1.6,31.8,0.9c3.4-0.2,6.3-1.3,6.8-5.2c0.4-3.5,0.7-7.2-4.5-7.5c-1.3-0.1-2.2-0.5-2.4-2c-0.6-4.9-4.5-6.4-8.4-7.1
			C245.2,518.7,237.9,517.3,230.7,518z M339.2,461.3c2.6-6.2,4.6-11,6.8-15.8c7.1-16,14.9-31.5,24.2-46.3c2.2-3.5,1.7-4.5-2.9-5.1
			c-8.6-1-17-2.5-25.3-5c-3.6-1.1-5.1-0.7-5.2,3.8c-0.2,17.8,1.1,35.5,1.5,53.3C338.4,450.7,338.9,455.3,339.2,461.3z M232.9,498
			c-12.2-0.3-23.2,1.8-34.1,5.1c-2.3,0.7-4.7,1.7-3.7,4.8c1,3,3.1,4.8,6.5,3.9c21.3-5.2,42.6-5.1,64-0.4c1.3,0.3,2.7,0.5,3.9,0.2
			c1.8-0.3,3.8-0.6,4.2-2.8c0.4-2.4-1.7-3-3.4-3.6C258,500.8,245.4,497.3,232.9,498z M268.3,460.4c2,0.4,4.2-0.8,4.4-2.2
			c0.3-2-0.6-3.7-2.3-4.6c-1.6-0.9-3.4-1.4-5.1-1.8c-23.3-5.8-46.3-4.7-68.9,3.6c-2.7,1-4.2,2.8-3.2,5.7c1,3,3.2,2,5.4,1.5
			c13.1-2.9,26.2-6.4,39.8-5.4C248.3,457.8,258.3,459.2,268.3,460.4z M185.7,473.1c1.2,0,2.1,0.1,2.9,0c1.3-0.2,3.6,0.8,3.8-1.1
			c0.2-2-1.9-2.8-3.8-2.9c-0.8,0-1.7-0.2-2.5,0c-2.2,0.8-6.5,0.3-6.3,2.6C180.1,474.5,183.9,472.5,185.7,473.1z"/>
		<path class="st2" d="M-133.2,643.4c2.9-0.8,2.2-2.9,1.6-4.8c-3.8-12-7.7-24-11.6-36c-2.7-8.2-5.3-16.5-8.3-24.6
			c-1.6-4.4,0.1-5.1,4-5.1c14.6-0.2,29.3,1,43.9,1c303.9-0.1,607.9-0.1,911.8-0.1c7.1,0,7.1,0,4.9,6.8c-5.9,18-11.8,35.9-17.6,53.9
			c-9.1,28.1-18,56.2-27.5,84.1c-2.4,7-4,14.2-7.2,21c-1.2,2.5-2.7,6.3,1.1,8.7c-1.6,6.9-7.1,5.4-11.9,5.6c-0.7-5.1-4.7-2.8-7.1-2.8
			c-160.8-0.1-321.6-0.1-482.4-0.1c-84,0-168,0-252,0c-32.8,0-65.7,0-98.5,0.1c-2.5,0-5,0.4-5.9-3c-1.2-4.2-2.7-8.2-4.1-12.3
			c-5.1-15.8-10.4-31.5-15.3-47.4c-3.1-10-7.4-19.6-9.3-29.9c-0.2-1.9,1-3.3,1.6-5c0.7-2-1.5-3.4-2.5-5c-0.9-1.3-1.4-3.1-3.6-3.9
			c1.1,3.5,2.1,6.6,3.1,9.7c-2.4,1.9-0.8,4.7-1.5,6.9C-129.3,655.3-131.2,649.4-133.2,643.4z"/>
		<path class="st3" d="M542.8,226.9c-3.7,2.5-4.1,6.7-4.8,10.5c-4.8,25.1-19.3,41.7-43,50.9c-9.6,3.7-18.9,8.3-28.5,12.1
			c-22.4,8.8-40.4,23.4-56.7,40.7c-10.5,11.2-22.5,20.7-37.4,25.9c-17.7,6.2-34.8,2.6-51.8-2.7c-13.5-4.3-25.3-12.1-36.6-20.1
			c-21.4-15-45.2-18.7-70.3-17.2c-5.3,0.3-10.8,0.5-16.2,2.1c-13.1,3.8-24.2-1-34.4-8.8c-16.1-12.3-23.9-29.5-27.9-48.7
			c-2.1-10.1-2.9-20.4-3.1-30.8c-0.2-12.7-10.5-22.9-23.2-23c-0.3-0.4-0.6-0.9-1-1.1c-6.4-3.1-6.6-3.3-1-7.7
			c4.3-3.3,4.5-5.3,0.6-9.6c-9.4-10.2-12.5-23.4-13.5-36.8c-1.3-18.2-1-36.7,5.4-53.8c11.7-31.2,29.9-56.7,66.3-61.9
			c2.9-0.4,3.6-1.6,2.5-4.4c-8.2-21.3-8-42.7,0.7-63.7c4.7-11.4,11.3-21.9,23.7-26.8c2-0.8,2.1-2.2,1.9-4
			c-3.1-24.1,5.1-44.2,21.9-61c8.2-8.2,18.3-11.2,30.1-6.5c0.5-4.2,0.8-8.2,1.3-12.2c2.1-15,8.5-27.6,21.3-36.2
			c12.7-8.6,26.7-6,36.4,5.8c7,8.5,11.5,18.2,16.1,28c0.6,1.3,0.6,2.9,2.6,3.8c2.4-9.2,4.4-18.4,9.1-26.6
			c5.5-9.5,12.5-17.3,23.9-19.4c11.5-2,20.5,2.7,27.6,11.4c8.8,10.7,12.6,23.7,15.9,36.8c0.7,2.9,1.5,3.8,4.3,2.5
			c8.5-4.1,16.9-2.5,25,1.2c13,6,20.9,17.2,28.1,28.9c6.2,10.1,10.5,20.8,10.7,32.8c0,1.8,0.9,2.7,2.4,3.4
			C488-51.9,495.8-37,503-21.6c4.7,10.1,6.9,20.8,7.7,31.8c0.2,3.1-0.4,6.3-0.7,9.4c-0.3,2.3,0.7,3.8,2.5,5
			c16.1,10.9,26.5,26.5,34.4,43.7c8.2,17.7,13.4,36.5,16.7,55.7c4.1,23.6-1.5,44.2-18,61.6c-3.5,3.7-7.7,6.7-13,9.8
			c10.7,2.1,18.6,6.9,25,14.1c3.2,3.5,2.6,5.1-2.1,6.4C549.5,217.6,545.1,221,542.8,226.9z M545,204.8c-7.2-6.1-18.8-7.9-25.7-3.5
			c4.9,3.3,9.7,6.6,14.5,9.8c2.8,2.1,5.5,4.2,8.3,6.4c0.9,0.7,1.9,0.8,2.8,0c2.3-2,4.9-3.5,7.7-4.5c1.2-0.4,1.7-1.3,0.7-2.2
			C550.7,208.5,549.1,205,545,204.8z M177.1,200.9c-2.9,0.8-5.2,2.8-7.9,4.2c-15.6,7.9-31.7,11.6-48.3,4c-5.6-2.6-8.5-0.8-11.9,3.2
			c2.9,1.3,5.4,2.6,8,3.6c7.9,2.9,13.9,7.8,16.9,15.8c1.1,3,3,2.1,4.7,1.3c11.9-5.8,24.7-9.7,36.5-15.9c1.2,0,2.2-0.5,3.3-0.8
			c6.3-2.1,11.8-6.4,18.6-7.1c0.8,0.9,1.6,1.7,2.3,2.6c-9.1,3.8-18.2,7.6-27.3,11.4c-10.7,4.4-21.3,9.1-32.1,13.2
			c-3.5,1.4-4.6,3.3-3.9,6.7c-0.7,10.2,1,20.2,3,30.1c4.8,22.9,15.7,41.4,38,51.6c4.3,2,6.5,1.2,8.8-2.9
			c7.9-14.4,16.2-28.6,24.3-42.9c6-10.6,12-21.3,18-32c4-7.2,8.5-14.1,12.3-21.4c1.4-2.8-0.2-2.5-1.7-2.9c2.3-1.1,4.8-0.6,7.2-0.5
			c0.3,1.6-0.8,2.7-1.4,4c-2.6,5.7-7,10.5-8.6,16.8c-1.3,0.2-1.7,1.3-2.3,2.3c-10.7,18.6-21.4,37.1-32.1,55.7
			c-4.1,7.1-8.1,14.1-12.1,21.2c-0.7,1.3-2.1,2.7-1,4.1c1,1.4,2.7,0.4,4.2,0.2c2.5-0.4,5-0.5,7.3-1.5c7.2-1.4,14.4-2,21.8-1.8
			c6.5,0.1,12.9,0.3,19.4,1c10.7,1.1,20.8,3.8,30.3,8.7c7.4,3.8,14.5,8.1,21.3,12.8c2.5,1.7,3.3,1.4,3.5-1.7
			c0.6-8.3,0.9-16.6,1-24.9c0.1-6.8,0.5-13.6,1-20.4c1.4-17.2,1.9-34.4,2.7-51.6c0.8-13.4,1.5-26.8,2.3-40.2
			c0.9-0.2,1.9-0.4,2.8-0.6c0.6,14.9-1.5,29.7-1.1,44.6c-0.3,0.9-0.8,1.9-0.8,2.8c-0.8,18.3-1.1,36.5-2.3,54.8
			c-0.5,7.8,0,15.7-1.3,23.4c-2.7,16.3-1.9,18.2,12.7,25.4c0.9,0.4,1.8,0.9,2.7,1.3c13,5.4,26.6,9.1,40.7,8.2
			c18-1.2,32.6-10.4,45.3-22.8c2-2,2.5-4,2-6.7c-2.3-10.5-4.4-21.1-6.6-31.6c-4.7-22.9-9.4-45.8-14.1-68.6c-1.6-8.9-2.5-18-5.7-26.6
			c-0.7-1.9-1.8-3-3.3-4c2.5-1,4.6,0.9,7,0.9c2.1,9.3,4.1,18.6,6.2,27.9c0,1.1-0.1,2.3,0.2,3.4c4.2,21.1,8.5,42.1,12.8,63.2
			c2.4,11.9,4.9,23.8,7.4,35.9c2.2-1.3,3.6-2.7,4.6-4.4c6.3-5.1,11.6-11.2,18.1-16.3c11.5-9,24.7-14.9,37.9-20.8
			c4-1.8,4.7-3.7,2.2-7.5c-6.3-9.8-12.1-19.8-18.3-29.6c-5.2-8.4-10.6-16.8-15.9-25.1c-0.8-1.4-1.6-2.9-2.3-4.3
			c-2.5-5.1-6.8-9.2-8.5-14.7c1.1,0,2.3-0.1,3.4-0.1c4.4,6.8,8.8,13.6,13.2,20.4c5.6,9.4,11.2,18.8,16.8,28.1
			c5.1,8.4,10.3,16.7,15.4,25c1.7,2.8,3.2,4.8,7,2.5c3.4-2,7.2-3.3,11-4.7c22.9-8.4,37.7-24.1,42.7-48.3c1-4.9,2.3-9.7,5.1-13.9
			c1.3-2,0.8-3.3-1.1-4.5c-4.9-3.1-9.7-6.3-14.6-9.4c-5.4-5.2-10.9-9.8-19.4-8.9c-9.3,1-17.4-2.9-25.5-7.1
			c-6-3.1-10.1-8.5-15.8-11.8c-0.3-2.3-0.2-4.8-3.1-5.8c-1.1,24.9-16.6,37.6-41.5,34.2c-17.9-2.5-35.5-6.8-53.5-8.6
			c-32.9-3.3-65-1.5-96.3,10.5c-17.3,6.7-35.4,9.6-53.8,4.8c-8.2-2.1-15.1-6.6-16.7-15.9c-0.9-5.5-2-11.1-0.9-16.9
			c0.3-1.5,0.9-3.3-0.9-4.6c-0.9,2.2-2.7,3.9-2.8,6.3C188.3,191.1,183.1,196.4,177.1,200.9z M263.9-115.1c1.7-1,3.6-1.7,5-3
			c9-8.1,19.9-10.8,31.5-11.8c7.2-0.6,13.4,2.7,20.7,4.9c-1.2-3.3-2-6-3.1-8.5c-3.3-7.2-6.1-14.7-11.8-20.6
			c-6.3-14.7-22.8-19.3-35.6-10.1c-18.3,13.2-21.9,36.8-18.6,55.5c0.5,2.8,1.8,3.4,4,1.2C258.5-110.1,261.2-112.6,263.9-115.1z
			 M413.9-123.9c-8.8,0.4-11.1,3.2-9.9,11.6c0.7,5.1,0,5.7-5.1,4.3c0.3,8.6,1.5,16.9,2.7,25.3c1.5,11.2,4.3,22.1,6.5,33.1
			c-5.7,0.1-11.5,0.3-17.2,0.4c-1.3,0-2.8,0.3-3-1.7c-0.2-3.2-1.8-6.3-0.9-9.6c0.2-7.1-0.5-14-2.5-20.8c-1-3.5-0.9-6.3,4-5.9
			c3.7,0,5.7,3.8,9.2,4.3c0.7-10.6-8.3-19-19.7-18.5c-4.5-9-9.1-18-16.1-25.4c-1.6-1.7-3.4-2.5-5.7-2.4c-9.6,0.6-18.8,2.3-26.8,8
			c-2.7,1.9-5,2.5-8.2,0.7c-18.5-10.3-35.7-5.9-51.6,5.9c-3.4,2.5-7.7,4.3-8.1,10.4c-0.4,6.4-0.5,12.9-1.2,19.3
			c-2.5,21.7-7.4,42.8-15.8,63c-2.2,5.5-5.5,10.6-5.5,16.9c-0.1,28.5-5.9,55.7-19.5,80.9c-0.9,1.6-1.9,3.2-1.3,5.2
			c3.6,10.7,3.3,21.6,1.7,32.5c-1.5,9.8-2.9,19.6-6.2,29.1c-3.5,9.9-8,19.3-12.5,28.7c-2.5,5.4-1.7,12,1.7,14.3
			c9.5,6.3,19.8,10.1,31.3,10.1c9.7,0,18.9-2.7,28.2-5c11.4-2.8,22.8-6,33.5-10.8c10.1-4.6,20.5-6.6,31.2-6
			c13.1,0.7,26.3,1.4,39.3,4.6c10.1,2.5,20.4,4.5,30.7,5.8c8.3,1.1,16.7,2.4,25,0.2c3.1-0.8,7-1,9-3.7c3.8-5.1,5.6-11.5,4.1-17.3
			c-2.7-10.5-2.8-21.1-2.8-31.6c-0.1-18.5-1.5-36.6-6.3-54.5c-2.1-8-4.9-15.7-6.8-23.8c-2.8-12.5-6.2-24.8-5.3-37.7
			c0.2-2.5,0.9-4.9,0.9-7.4c0-5.1-2.1-6.7-6.8-4.8c-4.8,1.9-9.8,2.4-14.7,1.6c-8.3-1.3-16.6-3.3-24-7.6c-2.9-1.7-5.3-1.1-5.2,2.2
			c0.2,4.5-1.6,8.5-2.4,12.6c-1.3,6.2-2.8,12.6-6.6,18c-1.7,2.4-4.3,4.2-5.4,7.1c-12.1-6.8-24.8-12-37.8-16.6
			c-2.1-2.7-4.2-5.4-6.3-8.1c-2.1-2.7-4.5-4.3-8.2-4.7c-5.7-0.6-11.4-2.6-16.1-6.1c-3.5-2.6-5.4-1.6-6.7,2
			c-4.2,11.8-8.3,23.7-12.6,35.5c-2.4,6.6-3.5,13.7-7.1,19.8c0-1.3-0.1-2.7,0.1-4c3.4-22,6.6-44.1,19.9-63c8,3.5,16.2,5.9,25.1,4.8
			c8.7,9.9,18.4,18.8,29.6,25.8c10.7,6.7,18.7,4.3,24.5-6.9c5.7-11.1,6.2-22.9,5-35c2.1,1.2,4.3,2.5,6.4,3.7
			c17,9.1,35.8,4,45.5-12.4c0.7-1.1,1-2.5,2.5-3c2.1,0.4,2.1,2.3,2.7,3.8c1.7,4.1,3.3,8.2,5.1,12.4c1.3-1,1.6-2.1,1.6-3.3
			c0.2-7.6,2.4-14.7,5.1-21.7c5.4-13.7,15.9-22.1,29.9-22.5c7.5-0.2,8.2-0.9,7-8.4c-0.2-1-0.6-1.9-0.8-2.9
			c-2.9-12.2-9.2-22.8-16.7-32.5c-7.2-9.2-15.8-17.2-28.2-19C417.3-123.7,415.6-123.8,413.9-123.9z M337-129.8
			c1.8-0.3,3.6-0.7,5.3-1c7.3-1.5,14.5-2.9,22.1-1.6c11.5,2,21.1,7.5,30.2,14.5c1.1,0.9,2.4,2.4,3.9,1.3c1.1-0.8,0.6-2.5,0.2-3.8
			c-1.8-7-3-14.3-5.7-21.1c-3.5-9.2-7.1-18.3-15-24.7c-7.2-7.1-17.5-9.1-26-4.4c-17.7,9.8-21,27.4-24.6,45.9
			C331.3-126.7,334.2-128.3,337-129.8z M431,49c2.8,10.3,7,20,12.7,30.2c2.1-12.4,5.1-23.5,10.5-34c7.7-14.8,29.5-29.4,48.5-24.7
			c2.1,0.5,2.8,0.2,3.4-2c1.3-4.7,0.4-9.2,0-13.8c-1.7-20.9-11.7-37.8-25.2-52.9c-5-5.5-11.4-9.8-19.8-8.6
			c-4.3-0.5-8.4-0.3-12.2,1.9c-9.1,3.3-14.4,10.3-17.7,18.9c-4.6,11.9-5.6,24.5-6.1,37.1C424.4,17.3,425.8,33.4,431,49z M117.9,203
			c0.7,0.4,1.3,0.9,2,1.3c9.5,6,20.1,6.1,30.3,3.9c15.7-3.4,28.8-11.6,39.3-23.9c4.4-5.1,6.1-11.4,9.3-17
			c8.6-15,14.1-31.1,16.7-48.2c2-12.9,3.4-25.8-1.5-38.4c-5.3-13.5-13.2-24.6-28.2-28.7c-4-1.2-8.1-2-12.3-1.9
			c-20.9,0.8-38.4,9.2-51.4,25.6c-12.9,16.3-21.7,34.5-23.5,55.7c-1.5,17.8-2.6,35.5,4,52.6C105.8,192,110.3,198.8,117.9,203
			L117.9,203z M198-58.1c0,1.7,0,3.3,0,5c-0.1,2.9,1.2,3.9,4.2,4.2c13.9,1.6,24.3,8.8,32.1,20.2c2,2.9,2.5,6.6,5,9.9
			c11.9-27,17.4-54.8,18.7-84.1c-7.1,4.7-7.1,4.7-8.9-2.9c-0.3-1.1-0.9-2.3-0.8-3.4c0.3-6.4-4.2-7.5-9.1-8.1
			c-6.2-1.9-11.8,0.3-16.2,3.9C205.7-99,197.1-80.6,198-58.1z M486.9,192.2c0.2,1.1,1,1.5,2,2c9.3,4.3,19,4.6,28.7,2.4
			c30.7-6.7,47.3-39.6,42.8-67.8c-2.8-17.4-7.6-34.2-13.7-50.7c-6.4-17.2-16.2-32-29.1-44.6c-8-7.8-17.5-13.4-29.5-8.5
			c-3.8-0.4-7,1.4-10.1,3.2c-1.7,0.3-3,1.1-4.4,2.1c-10.6,7.2-17.7,17.1-21.4,29.2c-7.5,24.4-6.3,49.2-2.4,73.9
			c2.4,15.1,8.5,29,15.4,42.4C469.5,184.4,477.3,189.8,486.9,192.2z M210.9-42.9c-11.9-4.6-20.5-2.7-28.4,7.1
			c-18,22.3-19.3,47.4-11.6,73.9c1.5,3.5,1.6,8.5,6.7,8.8c17.1,0.9,28.8,9.8,36.5,24.5c0.5,0.9,0.7,2.1,1.7,2.2
			c1.5,0.2,1.7-1.4,2.2-2.3c4.2-8,7.5-16.3,10.1-24.9c3.5-11.4,5.6-23.2,6.9-35c1-9.5,1.9-19.3,0-28.7
			C232.3-30.6,222.6-37.9,210.9-42.9z"/>
		<path class="st2" d="M756.8,460.7c-1.1,0.8-1.1,2-0.9,3.2c3.4,19,4.6,38.2,3.6,57.4c-0.6,11.9-1.7,23.9-7.1,34.8
			c-0.8,1.7-1,5.2-4.5,2.6c5.2-11.7,7.4-24,8-36.8c1.2-24.8-1.9-49.2-5.7-73.5c-4.2-27.3-9.7-54.3-13.5-81.7
			c-3.2-22.9-5.8-45.9-6.9-69c-1.5-30.8-2.4-61.5,2.7-92.1c0.7-3.9,2.3-5.7,5.6-7.2c8.9-4,16.9-9.4,23.5-16.7
			c10-11,16.4-23.4,13.4-39c-0.6-2.9-1.6-3.9-4.5-3.8c-5.1,0.1-9.7-1.6-12.6-5.9c-2.2-3.2-3.4-3.8-7-1.5c-8.5,5.3-17.3,5-25.8-0.8
			c-3-2.1-5.5-4.6-8.1-8.4c-0.7,3.6-1.2,6.1-1.7,8.7c-4,6.5-9.2,11.8-17.1,14.4c3.4,2,6.3,3.6,9,5.5c7.8,5.4,14.2,12.1,13.8,22.3
			c-0.4,8.9-3.7,17.1-8.5,24.7c-3.7-1.2-1.5-3.5-0.8-5.1c2.2-5.2,4.2-10.5,5.5-16c1.1-4.7,0.3-9-2.2-12.9
			c-6.6-10.4-23.2-21.3-40.4-15.2c-3.2,0.5-5.9,2.2-8.7,3.7c-1.7,0.9-3.6,4.8-5.5,1.7c-1.3-2.1,2.3-3.4,4.1-4.7
			c7.8-5.6,16.8-5.6,25.8-6c11.8-0.5,21.3-8.5,22.5-18.3c1.5-12.8-5.1-24.9-16.8-27.9C671.9,90.7,650.6,97,633,115
			c-11.4,11.7-14.4,25.9-10.2,41.6c4.8,18.1,15.3,32.5,30.2,43.4c14.2,10.4,30.1,12.6,46.9,6.5c5.1-1.8,5.7-1.3,4.8,4.2
			c-3,18.1-5.9,36.2-11,53.8c-3.2,11-5,22.4-10.5,32.6c-3.4-1.6-1.9-4.6-0.9-6.3c2.1-3.6,1.2-8,3.7-11.4c0.5-0.6,0.1-1.9,0.1-2.9
			c3.7-7.7,5-16.1,7.1-24.3c3.4-13.5,5.8-27.3,7.7-40.9c-1.1-1.3-2.1-0.5-3-0.3c-18.2,5.2-34.7,1.7-49.4-9.9
			c-13.5-10.7-23.3-24.2-28.4-40.8c-7.5-24.5,1.8-46,25.2-59.5c2.4-1.4,5-2.8,7.6-3.7c3.4-1.2,3.6-2.8,2.2-6
			c-13.6-31-18.5-63.3-14.5-97.1c1.5-12.3,4.1-23.9,11.3-34.1c6.1-8.7,14.5-13.1,25-13.3c10.3-0.3,19.4,7.6,22.8,19.4
			c4.6,15.9,4,31.9,0.8,48c-1.7,8.5-3.4,17-5.1,25.5c-0.4,1.9-1,3.8-0.3,5.9c2.3-0.3,2.8-2.3,3.8-3.6c13.2-17.4,34.9-15.2,44.1,4.6
			c0.3,0.6,0.6,1.2,0.8,1.8c0.8,2.4,0.9,5.6,2.5,6.9c2.1,1.6,4.1-1.8,6.5-2.3c4.3-0.8,7.9,0.7,10.9,3.6c3.9,3.9,5.9,8.8,7.1,14.1
			c0.6,2.8,0.9,4.2,4.7,3.2c7.3-1.9,13.5,1.8,16.4,8.9c6.9,16.7,1.2,42.2-12.3,54.5c-1.5,1.4-1.8,2.6-1.4,4.3
			c4.1,18.9-4,33.4-16.9,46c-6.1,6-13.1,10.8-21,14.2c-2.9,1.2-4,3.1-4.5,6.4c-6,39.4-3.6,78.7-0.3,118.1c3.7,44,13,87.2,19.5,130.8
			C755.3,458.1,756,459.4,756.8,460.7z M725.8,104.8c-4.1,2-8.4,0.2-12.6,0.3c2.1,7.8,3,8.2,9.2,3.9c1.5-1,2.6-2.4,3.9-3.6
			c1.1-0.3,1.7-1,2-2.1c8.6-10.2,13-22.3,14.7-35.3c1.3-9.9-0.8-19.2-7.3-27.2c-3.5-4.2-7.7-7.3-13.6-7.1c-6-1-11.1,1.1-15.6,4.8
			c-6.9,5.8-10.5,13.5-12.2,22.2c-1.9,9.5,0.5,25.2,4.9,31.2c2.4-7.5,7.2-11.4,15.2-11.1c3.5,0.1,6.4,1.3,9.5,2.6
			c5.9,5.5,6.2,12.1,3.8,19.2C727.1,103.5,726.5,104.1,725.8,104.8z M730.9,129.3c6.2,3.9,14.1,3,21.1-2.5
			c14.7-11.4,21.5-36.3,15.3-55.9c-0.8-5.1-2.8-9.6-6.7-13c-2.4-2.1-5.2-3-8.3-1.3c-2.9,1.6-5.9,2.8-5.6,7.2c0.3,5-1,9.9-2.2,14.8
			c-1.3,5.5-4.2,10.3-5.7,15.8c8.8-0.2,10.8,0.6,17,6.7c3.8,7.5,0.8,16.8-9.7,16.6c-5.8-0.9-11.6-2.1-16.6-5.1
			c-3.6-2.2-5.9-0.7-8.4,1.3c-2.5,2-1.1,4.7-0.2,6.9C723,125.1,726.3,128,730.9,129.3z M777.9,106.6c4.3,4.8,5.4,9.1,3.2,13.3
			c-2.5,4.7-6.8,5.2-11.4,4.8c-0.5,0-1,0-1.5,0c-1.1-0.3-2.2-0.6-3.3-1c-2-0.8-3.9-1.6-5.5,0.9c-1.5,2.4-0.3,4.1,1,5.7
			c0.9,1.1,2.1,2,3.2,3c8.1,4.1,13.5,2.8,18.5-4.3c8.2-11.6,10-24.8,8.6-38.5c-0.4-3.9-1.6-7.9-4.5-10.9c-3.1-3.3-7-3.6-11-2.4
			c-4,1.2-2.1,4.7-2.4,7.2c-0.1,0.8,0.1,1.6,0.2,2.5c-0.6,4.5-1,9.1-1.9,13.6c-0.7,3.2,0,5,3.5,5.3
			C775.7,106,776.8,106.3,777.9,106.6z M661.9-45.1c-8.6,5.5-12.5,14.3-14.9,23.4c-5.6,21.8-5.5,44-2.1,66.2
			c2.5,15.8,6.9,31.1,13.6,45.7c0.7,1.5,0.7,3.9,3.4,3.5c5-0.8,10.1-1.7,15.1-2.6c4.5,0.1,9-0.2,13.4,0.5c4,0.6,3.6-0.6,2.8-3.5
			c-2.8-10.5-4.1-21.1-3.5-32.1c0.9-15.6,5.5-30.4,7.9-45.7c2.2-13.8,2.9-27.5-0.7-41.1c-1.5-5.6-3.2-11.4-8-15.1
			C681.1-52,670.9-51.5,661.9-45.1z M713.1,84.1c-0.8,0.2-2.5,0.3-4.1,0.9c-6.6,2.6-7.6,9-2.5,13.6c4.6,4.1,10.1,3.2,15.4,3.6
			c2.9,0.2,3.5-2.7,3.9-5C727.1,90,721.8,84.2,713.1,84.1z M746,114.1c3-0.2,6.2,0,7.5-3.6c1.3-3.6,0.7-6.9-2.3-9.5
			c-3.7-3.3-8-4-12.6-2.6c-4.7,1.5-6.3,6.2-9.1,9.5c-0.7,0.9,0.9,1.5,1.7,1.9C735.9,112.3,740.8,113.6,746,114.1z M771.5,121.4
			c4.6,0,7.5-2.4,7.4-6.2c-0.1-3.7-3.4-6.6-7.4-6.6c-4.1-0.1-3.8,3.7-5.2,5.8c-3.4,5.5-2.8,6.2,3.7,6.9
			C770.5,121.3,771,121.4,771.5,121.4z"/>
		<path class="st1" d="M-124.4,658.5c1.9,10.3,6.2,19.9,9.3,29.9c4.9,15.9,10.2,31.6,15.3,47.4c1.3,4.1,2.9,8.1,4.1,12.3
			c1,3.4,3.4,3,5.9,3c32.8,0,65.7-0.1,98.5-0.1c84,0,168,0,252,0c160.8,0,321.6,0,482.4,0.1c2.4,0,6.4-2.3,7.1,2.8
			c-74.6,0.1-149.3,0.1-223.9,0.1c-205.7,0-411.5,0-617.2,0.1c-4.9,0-6.7-1.5-8.2-6c-9.2-29-18.7-57.9-28.2-86.8
			c0.7-2.3-0.8-5,1.5-7C-125.3,655.7-124.9,657.1-124.4,658.5z"/>
		<path class="st2" d="M-134.9,638.2c1.8,0.3,2.3,1.1,1,2.6C-134.2,639.9-134.6,639-134.9,638.2z"/>
		<path class="st4" d="M683.2,297c5.5-10.2,7.4-21.6,10.5-32.6c5.1-17.6,8-35.7,11-53.8c0.9-5.5,0.2-6-4.8-4.2
			c-16.8,6.1-32.6,3.9-46.9-6.5c-14.9-10.9-25.4-25.3-30.2-43.4c-4.2-15.7-1.2-29.9,10.2-41.6c17.6-17.9,38.9-24.3,63.4-18.1
			c11.7,3,18.3,15,16.8,27.9c-1.2,9.8-10.7,17.8-22.5,18.3c-9,0.4-18.1,0.5-25.8,6c-1.8,1.3-5.4,2.6-4.1,4.7
			c1.9,3.1,3.8-0.8,5.5-1.7c2.8-1.5,5.5-3.2,8.7-3.7c0.3,0.4,0.5,1.1,0.8,1.2c8.4,1.5,15.2,5.9,21.9,11c7.1,5.3,10.9,13.1,9,21.9
			c-1,4.5-2.5,8.9-3.4,13.4c-0.8,3.8,1.5,6,4.9,5.1c2-0.5,3.5-1.7,4.6-3.4c4.8-7.5,8.1-15.8,8.5-24.7c0.4-10.2-6-16.8-13.8-22.3
			c-2.7-1.9-5.6-3.4-9-5.5c7.9-2.6,13.1-7.9,17.1-14.4c0.6,2,1.8,3.4,3.4,4.8c11.1,9.8,24.6,13.2,38.8,14.2c3.7,0.3,5.2,1.7,4,4.8
			c-2,5-3.3,10.3-7.1,14.7c-7.7,8.9-16.3,16.5-26.3,22.7c-4,2.5-7.5,5.6-8.4,10.6c-2.5,14.1-2.4,28.4-2.9,42.6
			c-1.1,30.9,0.8,61.8,3,92.6c0.4,5.1,0.2,10.3,1.2,15.4c2.6,14,2.7,28.3,4.5,42.4c1.5,11.3,2.4,22.7,3.6,34.1
			c1.4,13.2,2.4,26.4,3.4,39.5c1,12.7,1.4,25.4,1.6,38.1c0.1,3.1,0.2,7.8-4.5,7.9c-9.5,0.3-26.8-11.8-29.5-21.2
			c-1.2-4.2-4.3-7.2-5.2-11.6c-0.4-2.1-4.5-4.9-6.6-7.7c-0.5,0.4-1,0.8-1.5,1.2c-7.4-20.8-11.4-42.4-13.9-64.2
			c-3.1-27.4-3.5-54.8-0.2-82.2C674.5,318.1,676.9,306.9,683.2,297z M674.1,132.3c12.2-0.4,15.7-4.7,13.9-16.6
			c-0.7-4.9-3-9.1-5.9-13c-4.9-6.6-7.2-7.3-14.8-3.6c-1,0.5-2.1,1.1-3,1.7c-5.4,3.7-7.9,12.9-5.4,20.3
			C661.4,128.5,666.9,132.5,674.1,132.3z"/>
		<path class="st4" d="M22.4,481.2c3.4-16.9,13.5-29.5,25.8-40.8c2.8-2.6,5.7-5,8.6-7.4c0.8-0.1,1.8,0.1,2.4-0.3
			c11.2-7.3,24.1-8.4,36.9-9.6c8.3-0.8,16.4,0.8,24.4,2.3c3.3,0.6,7.3,1,9.6,4.6c1.7,2.6,3.9,4.3,6.8,1.3c1.2-1.2,1.8-0.3,2.9,0.3
			c4.8,2.8,7,8,11.3,11.2c2.9,2.1,4.2,5.7,4.7,8.9c0.8,4.7,3,3.7,5.9,2.7c2.7-0.9,5.2-2.4,8.2-2.2c1.5,4.1,2.3,8.3,1.9,12.7
			c-6.6-0.2-12.9,1.5-19,3.6c-9.2,3.2-18.6,4.9-28.3,5c-1.3-0.4-1.7-1.1-1.2-2.6c0.8-2.6,2.4-4.7,3.9-6.9c0.7-1,1.3-2.1,0.2-3.1
			c-1.3-1-2.1,0.1-2.9,1c-6,7.4-10.3,23.1-0.3,32.9c3.3,3.3,7.1,6,11.1,8.4c1.1,0.6,2.4,1.8,3.4,0.1c0.9-1.6-0.8-2.2-1.8-3.1
			c-2.4-2-5.7-2.8-7.1-5.9c12-1.2,23.4,1.4,34.5,5.9c-0.7,7.1-1.9,14.2-5,20.7c-5.9,12.3-16.6,17.3-29.6,13.3
			c-6.3-1.9-12.4-4.6-18.7-7c-1.1-0.4-2.5-1.8-3.5-0.1c-1.1,1.9,0.8,2.7,2.1,3.2c3.8,1.6,7.7,3.1,11.6,4.6c5.7,2.2,6.4,6.6,1.8,10.8
			c-1.9,1.7-4.2,2.8-6.7,3.2c-8.3,1.2-16.5,2-23.9-3.6c-2.5-1.9-5.4-3.4-8.1-4.8c-1.2-0.6-2.8-2.2-3.8-0.1c-1,1.9,1.1,2.5,2.3,3.2
			c4.4,2.6,8.8,5.1,13.7,8c-3.9,2-7.3,1.9-10.7,1.5c-5.8-0.7-10.9-3-15.3-6.8c-0.8-0.7-2-1.7-3-0.5c-1,1.2,0,2.2,0.8,3
			c2.8,2.7,6.1,4.6,9.7,6c1.3,0.5,3.9,0.1,3.6,2.5c-0.2,1.7-1.7,3.2-3.3,4.1c-1.9,1.1-3.8,0.8-5.8,0.6c-10.1-1.4-18.2-7.1-26-13
			c-14.4-10.8-23-24.9-24.8-43.1C20.6,497.3,22.5,489.3,22.4,481.2z"/>
		<path class="st3" d="M687.2,476c0.5-0.4,1-0.8,1.5-1.2c2.1,2.8,6.1,5.6,6.6,7.7c0.9,4.5,4,7.5,5.2,11.6c2.6,9.3,20,21.5,29.5,21.2
			c4.7-0.2,4.6-4.8,4.5-7.9c-0.2-12.7-0.6-25.4-1.6-38.1c-1-13.2-2.1-26.4-3.4-39.5c-1.2-11.3-2.1-22.8-3.6-34.1
			c-1.8-14.1-1.9-28.4-4.5-42.4c-0.9-5-0.8-10.2-1.2-15.4c-2.2-30.8-4.2-61.7-3-92.6c0.5-14.2,0.4-28.5,2.9-42.6
			c0.9-5,4.4-8.1,8.4-10.6c9.9-6.2,18.6-13.9,26.3-22.7c3.8-4.3,5.1-9.6,7.1-14.7c1.2-3.1-0.2-4.5-4-4.8
			c-14.2-1.1-27.7-4.4-38.8-14.2c-1.6-1.4-2.8-2.8-3.4-4.8c0.5-2.6,1-5.1,1.7-8.7c2.6,3.8,5,6.4,8.1,8.4c8.5,5.8,17.3,6.1,25.8,0.8
			c3.6-2.3,4.9-1.7,7,1.5c2.8,4.3,7.5,6,12.6,5.9c2.9,0,3.9,0.9,4.5,3.8c3,15.6-3.4,28-13.4,39c-6.6,7.2-14.5,12.7-23.5,16.7
			c-3.3,1.5-5,3.3-5.6,7.2c-5.1,30.6-4.3,61.4-2.7,92.1c1.2,23.1,3.8,46.1,6.9,69c3.8,27.4,9.3,54.4,13.5,81.7
			c3.7,24.4,6.9,48.8,5.7,73.5c-0.6,12.7-2.8,25.1-8,36.8c-3.2,0.7-5.8-1-8.4-2.3c-9.5-4.6-17.2-11.6-23.2-20.1
			C703.4,517.8,693.9,497.6,687.2,476z"/>
		<path class="st2" d="M197.9,466.5c6.5-3.4,13.7-3.4,20.7-4.6c16.5-2.9,32.8,0,49.1,2.1c2.2,0.3,2.7,1.6,2.6,3.5
			c-0.9,10.1-0.3,20.3-0.1,30.4c0.1,3.7-1.9,3.1-4.1,2.3c-9.5-3.4-19.3-5-29.3-5.6c-11.5-0.7-22.8,1-34,4.2c-1.5,0.4-5.2,3.7-5-1.8
			c1.9-0.6,3.7-1.8,5.6-1.8c4.2,0,4.8-2.4,4.7-5.8c-0.2-5.6-0.1-11.3,0-16.9c0.1-3.2-0.3-5.1-4.4-4.2
			C202,468.7,199,469.6,197.9,466.5z"/>
		<path class="st2" d="M232.8,409.3c4.3,0,8.7-0.2,13,0c11,0.5,18.2,6.9,24.3,15.3c1.5,2,1.9,4,1,6.5c-2.8,7.2-7.8,9.9-15.3,8.4
			c-15.3-3.1-30.6-3-45.7,1.1c-7.9,2.2-13.2,0.2-17.3-6.6c-1.8-3-1.8-6.4,1.5-8.9c1.3-1,3.3-1.5,3.6-3.2c1.2-8.5,7.9-9.3,14.3-11
			C218.9,409.1,225.9,409.1,232.8,409.3z"/>
		<path class="st2" d="M334.7,460.2c-15.2-31.2-31.6-60-53.4-85.6c6.2-0.4,11.2,2.1,16.4,3.3c10.6,2.4,21.1,5.5,31.7,8
			c2.8,0.7,3.4,1.9,3.5,4.4c0.3,12.9,0.7,25.9,1.1,38.8C334.3,439,335.5,448.9,334.7,460.2z"/>
		<path class="st2" d="M230.7,518c7.2-0.6,14.5,0.7,21.9,2.1c3.9,0.8,7.8,2.2,8.4,7.1c0.2,1.5,1.1,1.9,2.4,2c5.2,0.3,4.9,4,4.5,7.5
			c-0.5,3.9-3.3,5-6.8,5.2c-10.6,0.7-21.2-1.5-31.8-0.9c-2.3,0.1-4.6,0.4-6.9,0.9c-1.6,0.4-2.1,1.1-2.3,2.6
			c-0.3,1.8,2.1,4.8-1.7,5.1c-3.5,0.3-7.6,1.3-9.4-3.4c-1-2.5-2.6-2.7-4.8-1.9c-3.8,1.4-5.3-1.3-6.2-4c-1-3.1-1.3-6.5,2.4-8
			c2.5-1,3-2.1,3.4-4.9c0.6-4.6,5.6-5.9,9.3-7.5C218.5,517.5,224.5,517.7,230.7,518z"/>
		<path class="st2" d="M22.4,481.2c0.1,8.1-1.8,16.1-1,24.3c1.8,18.2,10.4,32.4,24.8,43.1c7.9,5.9,15.9,11.6,26,13
			c2,0.3,3.9,0.5,5.8-0.6c1.7-1,3.1-2.4,3.3-4.1c0.3-2.3-2.3-1.9-3.6-2.5c-3.6-1.4-6.9-3.3-9.7-6c-0.8-0.8-1.9-1.8-0.8-3
			c1.1-1.2,2.2-0.2,3,0.5c4.4,3.8,9.5,6.1,15.3,6.8c3.4,0.4,6.8,0.5,10.7-1.5c-4.9-2.9-9.4-5.4-13.7-8c-1.2-0.7-3.2-1.3-2.3-3.2
			c1.1-2.1,2.6-0.5,3.8,0.1c2.8,1.5,5.6,3,8.1,4.8c7.4,5.5,15.6,4.8,23.9,3.6c2.5-0.4,4.8-1.5,6.7-3.2c4.6-4.2,3.9-8.5-1.8-10.8
			c-3.9-1.5-7.8-3-11.6-4.6c-1.3-0.5-3.1-1.3-2.1-3.2c0.9-1.7,2.3-0.3,3.5,0.1c6.2,2.3,12.3,5,18.7,7c13.1,4,23.7-1,29.6-13.3
			c3.2-6.6,4.3-13.6,5-20.7c1,0.1,2.1,0.2,3.1,0.2c-0.6,14.7-4.8,27.7-18,36.3c7.2,4.2,17.2,4.5,22.1,0.8c5.9-4.4,7.5-11.4,5.1-20.8
			c-1.3-5.1-3.9-9.9-4.6-15.2c1.9-2.3,2.8-0.7,3.5,1c2.5,6.2,4.9,12.4,6.1,18.9c2.2,11.5-6.5,21.7-18.2,21.8
			c-5.8,0-11.4-0.3-16.9-3.2c-4.8-2.5-10.5-0.6-15.8-0.8c-1.2,0-1.5,1-1.8,2c-2.3,7.8-6.5,12.1-14.8,11.6
			c-9.3-0.6-17.4,3.9-26.2,4.2c-1.8,0.1-2.8,1.4-3.4,2.6c-4.2,7.2-11.2,7-17.2,4.7c-19.8-7.3-36-19.5-44.6-39.5
			c-5.7-13.2-6.6-27-2.2-40.9C20.8,482.7,20.9,481.4,22.4,481.2z"/>
		<path class="st5" d="M170,452c-3-0.2-5.5,1.3-8.2,2.2c-2.9,1-5.2,2-5.9-2.7c-0.5-3.2-1.8-6.8-4.7-8.9c-4.4-3.2-6.6-8.4-11.3-11.2
			c-1.1-0.6-1.7-1.5-2.9-0.3c-2.9,3-5.1,1.3-6.8-1.3c-2.3-3.5-6.3-4-9.6-4.6c-8-1.4-16.1-3.1-24.4-2.3c-12.8,1.2-25.6,2.3-36.9,9.6
			c-0.6,0.4-1.6,0.2-2.4,0.3c7.3-7.3,16.6-11.5,25.8-15.7c2.5-0.7,5.1-1.6,7.7-2.2c16.5-3.6,33-4,49,2c14.1,5.2,24,15,28.9,29.5
			c-0.2,1.4-0.8,3.1,1.4,3.5C169.8,450.7,169.9,451.3,170,452z"/>
		<path class="st2" d="M339.2,461.3c-0.3-6-0.8-10.6-0.8-15c-0.4-17.8-1.7-35.5-1.5-53.3c0.1-4.5,1.5-4.9,5.2-3.8
			c8.3,2.5,16.7,4,25.3,5c4.7,0.5,5.1,1.6,2.9,5.1c-9.3,14.8-17.2,30.3-24.2,46.3C343.8,450.2,341.8,455.1,339.2,461.3z"/>
		<path class="st2" d="M129.8,494.1c1.4,3.1,4.8,3.9,7.1,5.9c1,0.8,2.6,1.4,1.8,3.1c-1,1.8-2.2,0.6-3.4-0.1c-4-2.3-7.8-5.1-11.1-8.4
			c-10-9.8-5.7-25.5,0.3-32.9c0.7-0.9,1.6-2.1,2.9-1c1.2,1,0.5,2.1-0.2,3.1c-1.5,2.2-3.1,4.3-3.9,6.9c-0.4,1.5-0.1,2.2,1.2,2.6
			c-0.5,1-2.5,0.6-2.3,2.3c0.3,1.7,1.7,1.4,2.8,1.3c7.3-0.4,14.6-0.8,21.6-3.2c7.3-2.4,14.6-4.4,22.1-5.6c4.5-0.8,6,1.1,5.5,5.7
			c-0.6,6.1-1.3,12.2,1.3,18.2c1.8,4.2,0.7,5.4-3.9,4.9c-5.8-0.7-11.4-2-16.9-3.9c-8-2.7-16.2-3.4-24.6-3c-1.4,0.1-3.5-0.7-3.9,1.2
			C126,493.4,128.3,493.5,129.8,494.1z"/>
		<path class="st2" d="M232.9,498c12.5-0.7,25.1,2.8,37.5,7.3c1.7,0.6,3.8,1.2,3.4,3.6c-0.4,2.2-2.5,2.6-4.2,2.8
			c-1.3,0.2-2.7,0-3.9-0.2c-21.4-4.7-42.7-4.7-64,0.4c-3.4,0.8-5.5-0.9-6.5-3.9c-1-3.1,1.5-4.1,3.7-4.8
			C209.6,499.8,220.6,497.7,232.9,498z"/>
		<path class="st2" d="M268.3,460.4c-10-1.1-20-2.5-30.1-3.3c-13.6-1-26.7,2.5-39.8,5.4c-2.1,0.5-4.4,1.5-5.4-1.5
			c-1-3,0.5-4.8,3.2-5.7c22.6-8.2,45.6-9.4,68.9-3.6c1.8,0.4,3.6,1,5.1,1.8c1.7,0.9,2.6,2.6,2.3,4.6
			C272.5,459.6,270.3,460.7,268.3,460.4z"/>
		<path class="st4" d="M172,501.3c0.7,5.3,3.3,10.1,4.6,15.2c2.4,9.4,0.8,16.4-5.1,20.8c-4.9,3.7-14.9,3.4-22.1-0.8
			c13.2-8.6,17.4-21.6,18-36.3C169.1,499.7,170.6,500.4,172,501.3z"/>
		<path class="st2" d="M168.2,446.5c-4.9-14.5-14.9-24.2-28.9-29.5c-16-6-32.5-5.5-49-2c-2.6,0.6-5.1,1.5-7.7,2.2
			c-0.7-1.6-0.7-3.2,1.1-3.7c4.7-1.3,8.7-4.5,14-4.3c5.3,0.2,10.6,0.2,15.9-0.1c8.1-0.4,15.7,2.2,23.5,3c5.7,0.6,9.8,3.8,14,6
			c4.4,2.3,8.4,7,12.1,11.2c7.8,8.9,10.7,19.7,12.6,30.9c0.5,2.7,0.6,5.8-3.9,4.6c0.4-4.4-0.4-8.6-1.9-12.7c-0.1-0.7-0.2-1.3-0.3-2
			C169.6,448.7,169.2,447.5,168.2,446.5z"/>
		<path class="st3" d="M197.9,466.5c1.1,3.1,4,2.2,5.8,1.8c4.1-0.9,4.5,1,4.4,4.2c-0.1,5.6-0.2,11.3,0,16.9c0.1,3.4-0.4,5.8-4.7,5.8
			c-1.9,0-3.7,1.2-5.6,1.8C197.8,486.8,197.9,476.6,197.9,466.5z"/>
		<path class="st2" d="M185.7,473.1c-1.8-0.6-5.6,1.4-5.9-1.4c-0.2-2.2,4-1.8,6.3-2.6c0.7-0.3,1.6-0.1,2.5,0c2,0.1,4,0.9,3.8,2.9
			c-0.2,1.8-2.5,0.8-3.8,1.1C187.8,473.2,186.9,473.1,185.7,473.1z"/>
		<path class="st3" d="M-124.4,658.5c-0.5-1.4-0.9-2.8-1.4-4.2c-1-3.1-2-6.2-3.1-9.7c2.2,0.8,2.7,2.6,3.6,3.9c1.1,1.6,3.3,3,2.5,5
			C-123.4,655.2-124.6,656.6-124.4,658.5z"/>
		<path class="st4" d="M255,60c3.7-6.1,4.7-13.2,7.1-19.8c4.3-11.8,8.4-23.7,12.6-35.5c1.3-3.6,3.2-4.6,6.7-2
			c4.7,3.5,10.3,5.5,16.1,6.1c3.8,0.4,6.1,2,8.2,4.7c2.1,2.7,4.2,5.4,6.3,8.1c-5.4-1.6-10.8-3.3-16.3-4.9
			c-7.2-2.1-11.1-0.9-15.6,5.1c-3.9,5.1-6.2,11-8.1,17.1c-6.9,21.6-8.7,44-10.9,66.4c-0.2,1.9-1.3,4.3,0.6,5.6
			c2,1.3,3.7-0.8,5.4-1.6c18.9-9.6,38.9-15,60.1-16.2c23.7-1.3,46.8,2.1,69.6,8.1c1.5,0.4,3.2,1.8,4.7,0.3c1.4-1.4,0.2-3.1-0.2-4.7
			c-3.2-10.9-8.6-20.5-15.7-29.3c-9.9-12.3-22.3-21.3-35.7-29.2c1.1-2.9,3.7-4.7,5.4-7.1c3.8-5.4,5.3-11.7,6.6-18
			c0.8-4.2,2.6-8.1,2.4-12.6c-0.1-3.4,2.3-3.9,5.2-2.2c7.4,4.3,15.7,6.3,24,7.6c4.9,0.8,9.9,0.3,14.7-1.6c4.7-1.9,6.8-0.4,6.8,4.8
			c0,2.5-0.7,4.9-0.9,7.4c-1,13,2.4,25.3,5.3,37.7c1.8,8.1,4.6,15.8,6.8,23.8c4.8,17.9,6.1,36,6.3,54.5c0.1,10.5,0.1,21.1,2.8,31.6
			c1.5,5.8-0.4,12.2-4.1,17.3c-2,2.7-5.9,2.9-9,3.7c-8.3,2.2-16.8,0.9-25-0.2c-10.3-1.4-20.6-3.3-30.7-5.8
			c-12.9-3.3-26.1-4-39.3-4.6c-10.7-0.6-21.1,1.4-31.2,6c-10.6,4.8-22,8-33.5,10.8c-9.3,2.3-18.5,5-28.2,5
			c-11.6,0-21.9-3.8-31.3-10.1c-3.4-2.3-4.3-8.9-1.7-14.3c4.5-9.4,9.1-18.8,12.5-28.7c3.3-9.5,4.7-19.3,6.2-29.1
			c1.6-10.9,1.9-21.8-1.7-32.5c-0.7-2,0.4-3.6,1.3-5.2c13.7-25.2,19.5-52.4,19.5-80.9c0-6.3,3.2-11.5,5.5-16.9
			c8.3-20.3,13.3-41.3,15.8-63c0.7-6.4,0.8-12.9,1.2-19.3c0.4-6.1,4.7-7.9,8.1-10.4c15.9-11.8,33.1-16.2,51.6-5.9
			c3.2,1.8,5.4,1.2,8.2-0.7c8-5.7,17.3-7.4,26.8-8c2.4-0.1,4.1,0.7,5.7,2.4c7,7.5,11.6,16.4,16.1,25.4c-5.5,2-10.4,5-14.5,9.2
			c-7.6,8-13.1,17.3-17.7,27.3c-3-0.5-4.1-3.5-6.4-4.9c-2-1.3-3.6-1.9-4,1.4c-1.5,1.8-1.2,3.3-0.1,5.3c3.7,7.1,8.1,14,9.7,22.1
			c-3.2,1.3-6.7,0.2-9.8,1.1c-4.2,1.3-6.5,0.7-6.7-4.3c-0.1-4.7-2.7-6.3-7.3-5.1c-1.3,0.4-2.6,0.3-4,0.5c-1,0.1-2,0.1-2.3-1.2
			c-0.7-3.4-1.5-6.8-2.3-10.7c8.2,5.2,10,4.8,12-2.5c1.5-6.4,1.1-12.9,0.1-19.3c-0.2-1.3-0.2-3.1-2-2.9c-1.8,0.2-1.5,1.9-1.4,3.2
			c0.8,5.3,0.9,10.6,0.5,15.9c-2.6-0.9-2.9-3.4-3.9-5.5c-4.3-9.2-9.1-18.2-16.8-25c-9.5-8.5-21.7-8.6-31.3-0.7
			c-1,0.8-2.4,1.5-1.7,3.2c0.6,1.4,2,1,3.1,1c2.4-0.1,4.7,0.1,6.7,1.3c-0.2,2.1,0.9,3.8,1.9,5.5c2,3.7,3.4,7.6,4.4,11.6
			c-6.2,8.3-8.6,17.5-6.7,27.6c0.5,2.8-0.2,3.8-3.1,4.1c-5,0.4-9.9,1.3-14.8,1.8c-2.6,0.3-4.1,1.2-3.3,4.2
			c2.2,7.8,4.2,15.6,9.8,21.9c-3.5,0.6-1.5,4.2-3.3,6c-6.3,6.6-9.3,15.2-12.5,23.5c-7.8,20.3-9.7,41.7-9.3,63.3
			c0,1.7,0.4,3.3,1.3,4.7c1.9,3,4,3.1,5.4-0.1c1.4-3,2.2-6.2,3.3-9.3c2.5-0.2,2.4-2.1,2.7-3.9C254.1,66,254.5,63,255,60z M350.4,117
			c-0.8-3.5-3.7-2.9-6-2.9c-18.1-0.2-33.6,7-47.7,17.7c-1.5,1.1-2.3,2.3-1.8,4.2c-1.3,3.8-5.1,6.4-4.9,11.1c0.1,3.3,0.8,4.3,3.9,2.5
			c9.2-5.1,18.3-10.3,27.5-15.3c11.1-6.1,22.7-11,35.9-9c0.9,0.1,2,0.9,2.5-0.5c0.3-0.9-0.1-1.8-0.8-2.2
			C356,120.8,354,117.7,350.4,117z"/>
		<path class="st5" d="M185.9,52c15,4,22.9,15.2,28.2,28.7c4.9,12.6,3.4,25.5,1.5,38.4c-2.6,17.1-8.1,33.2-16.7,48.2
			c-3.2,5.6-4.9,11.9-9.3,17c-10.5,12.4-23.6,20.6-39.3,23.9c-10.2,2.2-20.8,2.1-30.3-3.9c-0.2-1.1-1-1.3-2-1.3c0,0,0,0,0,0
			c-0.3-1.1-0.5-2.3-1.1-3.3c-3.6-5.9-6.7-11.8-7.6-19c-1.6-12.8-1.9-25.3,2.1-37.8c7.2-21.9,18.8-41.2,32.7-59.4
			c9.2-11.9,20.6-21,34.1-27.4C180.8,55,184.1,54.8,185.9,52z"/>
		<path class="st5" d="M383,236.9c4.7,22.9,9.4,45.8,14.1,68.6c2.2,10.6,4.3,21.1,6.6,31.6c0.6,2.7,0.1,4.7-2,6.7
			c-12.7,12.3-27.3,21.6-45.3,22.8c-14,0.9-27.6-2.8-40.7-8.2c-0.9-0.4-1.8-0.9-2.7-1.3c-14.6-7.2-15.4-9.1-12.7-25.4
			c1.3-7.7,0.8-15.6,1.3-23.4c1.2-18.2,1.6-36.5,2.3-54.8c0-0.9,0.5-1.9,0.8-2.8c7.2,1.7,13.2,6,19.3,9.9c8.2,5.3,20.3,6,25.9,0
			c3.8-4,8-7.5,12-11.2C368.1,243.9,374.7,238.9,383,236.9z"/>
		<path class="st5" d="M477.9,28c3.2-1.8,6.3-3.6,10.1-3.2c0.7,0.9,1.3,2,2.2,2.6c9,6.4,15.4,15.1,20.5,24.6
			c8.8,16.2,14.9,33.3,17.6,51.8c2.4,16.8,4,33.5,0.7,50.3c-1.4,7.2-3.2,14.3-7.8,20.2c-8.4,10.8-20.2,15-33.3,16.7
			c0.2-2.2-0.3-4.1-1.3-6.2c-2.5-5.5-4.9-11.2-6.5-17.1c-4.4-16.6-8.7-33.2-10.5-50.4c-1.6-15.3-2.2-30.5-1.4-45.7
			c0.5-9.5,1.8-19,4.3-28.4C474,38,477.3,33.5,477.9,28z"/>
		<path class="st5" d="M300.9,247c-0.8,17.2-1.3,34.4-2.7,51.6c-0.6,6.8-0.9,13.6-1,20.4c-0.1,8.3-0.4,16.6-1,24.9
			c-0.2,3.1-1,3.4-3.5,1.7c-6.8-4.7-13.9-9-21.3-12.8c-9.5-4.9-19.7-7.6-30.3-8.7c-6.5-0.6-12.9-0.8-19.4-1
			c-7.3-0.1-14.6,0.4-21.8,1.8c0.3-1.1,0.5-2.3,1.1-3.2c8.5-14.9,16.8-29.8,25.6-44.5c5.5-9.1,9.5-18.9,15.5-27.7
			c1.7-2.5,4-4.9,3.9-8.4c4.3-1.2,8.7-1.7,13.2-2.3c13.4-1.9,26.1-0.6,37.7,6.8C298.1,246.3,299.3,247.2,300.9,247z"/>
		<path class="st5" d="M210.9-42.9c11.8,5,21.4,12.3,24,25.7c1.8,9.5,1,19.2,0,28.7c-1.3,11.8-3.4,23.6-6.9,35
			c-2.6,8.6-5.9,16.9-10.1,24.9c-0.5,1-0.8,2.5-2.2,2.3c-1-0.1-1.3-1.3-1.7-2.2c-7.7-14.8-19.3-23.6-36.5-24.5
			c-5.1-0.3-5.1-5.3-6.7-8.8c3.1-0.4,6.3,0.3,9.4-0.6c2.3-0.7,3.1-1.6,1.7-3.8c-0.6-0.8-1.3-1.6-1.6-2.5
			c-9.2-27.2,1.1-55.3,25.3-70.5C207.4-40.5,209.1-41.7,210.9-42.9z"/>
		<path class="st5" d="M228.1,247c-6,10.7-12,21.3-18,32c-8.1,14.3-16.4,28.5-24.3,42.9c-2.2,4.1-4.5,4.8-8.8,2.9
			c-22.3-10.2-33.2-28.7-38-51.6c-2.1-9.9-3.7-19.9-3-30.1c6.7-2.5,13.3-5.3,20.1-7.5c5-1.7,9.2-5.6,14.9-5.5
			c-0.8,9.3,2.4,16.2,11,20.9c7.2,3.9,14.7,4,22.1,2.5C212.2,251.7,220.1,249.1,228.1,247z"/>
		<path class="st4" d="M487.9,191c13-1.7,24.8-5.8,33.3-16.7c4.6-5.9,6.4-13,7.8-20.2c3.4-16.8,1.7-33.5-0.7-50.3
			c-2.6-18.4-8.8-35.6-17.6-51.8c-5.1-9.4-11.5-18.2-20.5-24.6c-0.9-0.6-1.5-1.7-2.2-2.6c12.1-4.9,21.5,0.7,29.5,8.5
			C530.5,46,540.3,60.8,546.7,78c6.2,16.5,11,33.3,13.7,50.7c4.5,28.2-12.1,61.1-42.8,67.8c-9.7,2.1-19.4,1.9-28.7-2.4
			c-1-0.5-1.8-0.8-2-2C487.3,191.8,487.6,191.4,487.9,191z"/>
		<path class="st5" d="M524,209.8c4.9,3.2,9.7,6.3,14.6,9.4c1.9,1.2,2.4,2.5,1.1,4.5c-2.8,4.2-4.1,9-5.1,13.9
			c-5,24.2-19.7,39.9-42.7,48.3c-3.7,1.4-7.6,2.7-11,4.7c-3.8,2.3-5.3,0.3-7-2.5c-5.1-8.4-10.3-16.7-15.4-25
			c-5.7-9.3-11.2-18.7-16.8-28.1c1.4-1.4,3-0.9,4.7-0.8c7.6,0.5,15.3,0.1,22.2-3c7.5-3.3,14.5-7.5,21.4-11.9
			c9-5.8,18.3-9.9,29.3-8.4C521,211.1,522.8,211.6,524,209.8z"/>
		<path class="st5" d="M436.1,233.8c5.3,8.4,10.7,16.7,15.9,25.1c6.1,9.9,12,19.9,18.3,29.6c2.5,3.8,1.8,5.7-2.2,7.5
			c-13.2,5.9-26.3,11.8-37.9,20.8c-6.4,5-11.8,11.1-18.1,16.2c-0.2-2.1-0.2-4.3-0.6-6.4c-2.2-11.6-4.4-23.2-7.2-34.7
			c-2-8.1-3.4-16.4-5-24.7c-2.1-10.8-4.2-21.6-6.4-32.4c5.3-1.3,10.7-1.8,16.1-2C418,232.8,427.1,232.6,436.1,233.8z"/>
		<path class="st2" d="M349.8,38.1c13.4,7.9,25.9,16.9,35.7,29.2c7.1,8.8,12.5,18.4,15.7,29.3c0.5,1.6,1.6,3.2,0.2,4.7
			c-1.4,1.5-3.2,0.1-4.7-0.3c-22.8-6-46-9.4-69.6-8.1c-21.2,1.2-41.2,6.6-60.1,16.2c-1.7,0.9-3.4,3-5.4,1.6
			c-1.9-1.3-0.8-3.8-0.6-5.6c2.3-22.3,4-44.8,10.9-66.4c1.9-6,4.2-12,8.1-17.1c4.6-5.9,8.5-7.2,15.6-5.1c5.4,1.6,10.8,3.2,16.3,4.9
			C325,26.1,337.8,31.3,349.8,38.1z M351.3,43.8c-5-4-10.5-6.9-16.6-8.9c-1.2-0.6-2.5-1.1-3.7-1.7c-6.6-3.8-13.8-6.3-21.2-8.1
			c-1-0.3-1.9-0.6-2.9-0.9c-2.4-1.7-5.1-2.2-7.9-2.6c-1.2-0.5-2.3-0.7-3.5-0.2c-5.1-3.7-9-2.7-13.2,3.2c-5.8,8.2-8.1,17.8-10.4,27.3
			c-3.1,12.4-4.6,25.1-5.8,37.8c-0.5,5.2-2.2,10.4-1,15.8c6.6-1.6,6.8-1.9,6.8-7.1c0-10.4,5.6-18.2,15.1-20.9
			c10.9-3.1,24.1,1,28.7,9.5c1.7,3.1,3.8,3.7,6.4,3.1c4.3-0.9,8.6-0.7,12.9-0.8c4.9-0.1,7.4-3.9,4.4-7.7c-4.6-5.9-6-13.8-11.7-18.9
			c-2.4-2.2-0.7-3.3,0.6-4.7c6.5-0.1,13,0,19.4-0.3c4.8-0.2,9.7-0.6,13.9-3.4c1.5-1,3.5-2.7-0.4-3.3c-1.3-3.2-4-4.5-7.2-5.2
			C353.2,45.1,352.3,44.5,351.3,43.8z"/>
		<path class="st4" d="M383,236.9c-8.3,2-14.9,7-21,12.6c-4,3.7-8.2,7.2-12,11.2c-5.7,5.9-17.7,5.3-25.9,0
			c-6.1-3.9-12.1-8.1-19.3-9.9c-0.4-14.9,1.7-29.7,1.1-44.6c5-1.8,10.3-1.6,15.5-2c17.6-1.2,35.1-0.3,52.5,2.1c1.5,1,2.6,2.1,3.3,4
			C380.5,218.9,381.4,228,383,236.9z"/>
		<path class="st5" d="M239.2-117.2c4.9,0.6,9.3,1.6,9.1,8.1c0,1.1,0.5,2.2,0.8,3.4c1.8,7.6,1.8,7.6,8.9,2.9
			c-1.3,29.3-6.8,57.1-18.7,84.1c-2.5-3.3-3-7-5-9.9c-7.9-11.4-18.2-18.6-32.1-20.2c-2.9-0.3-4.3-1.3-4.2-4.2c0.1-1.7,0-3.3,0-5
			c3.1-0.8,7.3-1.6,7.5-4.8c0.3-4.8,2.9-8.3,4.5-12.3c3.1-7.6,6.9-14.8,11.3-21.8C226.1-104.8,232.5-111.1,239.2-117.2z"/>
		<path class="st0" d="M487.9,191c-0.3,0.4-0.7,0.8-1,1.2c-9.6-2.4-17.4-7.8-21.9-16.5c-6.9-13.4-13-27.4-15.4-42.4
			c-3.9-24.8-5.1-49.6,2.4-73.9c3.7-12.1,10.8-22,21.4-29.2c1.4-0.9,2.8-1.7,4.4-2.1c-0.6,5.5-3.9,10-5.4,15.2
			c-2.5,9.4-3.8,18.9-4.3,28.4c-0.8,15.2-0.2,30.4,1.4,45.7c1.8,17.2,6.2,33.8,10.5,50.4c1.6,5.9,4,11.6,6.5,17.1
			C487.6,186.9,488.1,188.8,487.9,191z"/>
		<path class="st0" d="M185.9,52c-1.7,2.8-5,3-7.6,4.2c-13.6,6.5-25,15.5-34.1,27.4c-13.9,18.1-25.6,37.5-32.7,59.4
			c-4.1,12.5-3.8,25-2.1,37.8c0.9,7.2,4,13.1,7.6,19c0.6,1,0.7,2.2,1.1,3.3c-7.7-4.3-12.1-11.1-15.2-19c-6.6-17.1-5.5-34.8-4-52.6
			c1.8-21.2,10.6-39.4,23.5-55.7c13-16.4,30.4-24.8,51.4-25.6C177.8,50,181.9,50.9,185.9,52z"/>
		<path class="st5" d="M448.9-54.9c3.8-2.2,8-2.5,12.2-1.9c3.4,8,9.9,14,14.1,21.5c4.8,8.7,9.3,17.4,7.7,27.8
			c-1.1,6.9-3,13.4-8.8,18.2C464.3,18.9,452,23.1,442,31c-2.7-18.7-3.5-37.5-3-56.4c0.1-2.7,0.6-5.2,1.1-7.8
			C441.6-41,445-48.1,448.9-54.9z"/>
		<path class="st4" d="M442,31c10-8,22.3-12.1,32.2-20.4c5.8-4.9,7.7-11.4,8.8-18.2c1.6-10.3-2.9-19.1-7.7-27.8
			c-4.2-7.5-10.8-13.5-14.1-21.5c8.4-1.2,14.9,3,19.8,8.6c13.5,15.1,23.5,32,25.2,52.9c0.4,4.6,1.3,9.1,0,13.8
			c-0.6,2.2-1.3,2.5-3.4,2c-19-4.6-40.9,10-48.5,24.7c-5.4,10.5-8.4,21.6-10.5,34C438,69,433.8,59.3,431,49
			C433.3,42.2,437.7,36.6,442,31z"/>
		<path class="st1" d="M266.1-15.1c-5.6-6.2-7.6-14.1-9.8-21.9c-0.8-2.9,0.7-3.9,3.3-4.2c5-0.6,9.9-1.4,14.8-1.8
			c2.9-0.2,3.6-1.2,3.1-4.1c-1.9-10.2,0.6-19.4,6.7-27.6c3.7-3.3,8.2-4.3,14.2-3.4c-6.7-6.3-12.4-11.7-20.5-13.8
			c-2.1-1.2-4.4-1.4-6.7-1.3c-1.1,0-2.5,0.4-3.1-1c-0.7-1.7,0.7-2.3,1.7-3.2c9.7-8,21.9-7.8,31.3,0.7c7.7,6.9,12.5,15.8,16.8,25
			c1,2,1.3,4.6,3.9,5.5c-0.2,2,0.6,3.1,2.7,3c-1.9,7.2-3.8,7.7-12,2.5c0.8,3.9,1.6,7.3,2.3,10.7c0.3,1.3,1.3,1.3,2.3,1.2
			c1.3-0.1,2.7-0.1,4-0.5c4.5-1.3,7.1,0.4,7.3,5.1c0.1,5,2.4,5.5,6.7,4.3c3.1-0.9,6.6,0.2,9.8-1.1c1.6,0.1,3.2,0.1,4.8,0.2
			c1.1,0.1,1.9-0.1,1.6-1.5c0.3-0.2,0.3-0.5,0.1-0.7c-0.6,2.5,2,4.4,1.3,6.9c-1.3,0.1-2.6,0.2-4,0.2c-3.3-0.1-6.6-0.3-9.9-0.2
			c-7.6,0.2-8.3,0.9-9.8,8.3c-0.2,1-0.5,1.9-0.7,2.9c-3.7,11.9-12.7,18-23.9,21.9c-1.5,0.2-3.1-0.4-4.4,0.8C291.2-1.1,283-3.5,275-7
			c-0.6-1.4-1.6-2.3-2.9-2.9C270.1-11.6,268.1-13.4,266.1-15.1z M269.6-37.5c-0.4,0.1-0.9,0.2-1.3,0.2c-7.8-0.4-8.1,0-5.6,6.8
			c2.5,6.9,6.4,12.8,12.2,17.4c10.7,8.4,25.3,9.1,37.5,1.8c10.2-6.1,14.7-16.6,12.4-29.2c-0.4-2.1-0.1-5.1-3.9-4.2
			c-2.6,0.6-5.4,0.3-5.1,4.7c0.5,6.7-1.3,13.3-4.7,19.1c-4.9,8.3-13.9,9.7-21.2,3.4c-5.5-4.8-8.7-11-10.4-17.9
			c-0.8-3.1-2.1-4.2-5.1-3.4C272.8-38.3,271.2-37.9,269.6-37.5z M280.8-52.3c0.1,2,0.2,4,0.3,6c0.1,1.6,0.6,2.6,2.4,2.2
			c8.6-1.6,17.4-1.4,25.9-3.4c1.3-0.3,2.3-0.5,1.9-2.6c-1.6-8.2-4.5-15.6-10.6-21.4c-5.3-5.1-11.5-4.1-15.5,2.1
			C281.9-64.2,280.9-58.4,280.8-52.3z M312.2-38.8c-0.5-1.2,0.8-3.9-0.8-4.2c-2.7-0.4-5.7,0-8.3,0.9c-2.2,0.8,0,2.8,0.1,4.3
			c0.1,5.2-2.8,9.5-7.1,9.9c-4.3,0.4-7.9-3.4-8.3-8.7c0-0.5-0.1-1,0-1.5c0.5-3.2-1.7-1.9-3.1-2c-2.1-0.1-2.4,0.9-1.9,2.8
			c1.6,6.4,4.3,12.3,9.2,16.8c5.6,5.2,11.9,4.2,15.9-2.3C310.9-27.5,312-32.9,312.2-38.8z M312.8-61.1c-0.1-0.3-0.1-0.7-0.3-0.7
			c-0.2-0.1-0.7,0-0.8,0.1c-0.7,0.7,0.3,0.6,0.5,0.8C312.2-60.8,312.6-61,312.8-61.1z"/>
		<path class="st4" d="M524,209.8c-1.2,1.8-3,1.3-4.6,1.1c-11-1.4-20.3,2.7-29.3,8.4c-6.9,4.4-14,8.7-21.4,11.9
			c-6.9,3-14.6,3.5-22.2,3c-1.7-0.1-3.3-0.7-4.7,0.8c-4.4-6.8-8.8-13.6-13.2-20.4c0,0,0.3,0,0.3,0c0.8,0.4,1.5,0.3,2-0.5
			c19.3-2.8,29.7-13.2,32.4-32.2c5.7,3.3,9.8,8.7,15.8,11.8c8.1,4.2,16.2,8.1,25.5,7.1C513.1,200.1,518.6,204.6,524,209.8z"/>
		<path class="st4" d="M228.1,247c-8,2.1-15.9,4.7-24,6.3c-7.5,1.5-14.9,1.4-22.1-2.5c-8.6-4.7-11.8-11.6-11-20.9c0-0.3,0-0.6,0-0.9
			c0.3-0.4,0.6-0.7,0.9-1.1c0-1.6,0-3.2,0.1-4.9c9.1-3.8,18.2-7.6,27.3-11.4c2.5,1.9,4.7,4.2,7.5,5.7c10.1,5.5,21,5.4,31.9,5.3
			c1.5,0.4,3.1,0.1,1.7,2.9C236.7,232.9,232.2,239.8,228.1,247z"/>
		<path class="st1" d="M345.8-64.7c4.6-9.9,10.1-19.3,17.7-27.3c4.1-4.2,9-7.2,14.5-9.2c11.4-0.6,20.4,7.8,19.7,18.5
			c-3.5-0.5-5.6-4.3-9.2-4.3c-6-2.2-10.2-1.3-14,2.7c-1.5,1.5-1.7,2.4,0.3,3.7c4.3,2.8,6.9,7,8.7,11.7c1.1,2.9,2.3,5.7,3.5,8.5
			c-0.9,3.3,0.7,6.4,0.9,9.6c0.1,1.9,1.7,1.7,3,1.7c5.7-0.1,11.5-0.3,17.2-0.4c1.9,0.1,3.9,0.5,5.8,0.4c3.3-0.3,3.9,1.4,3.5,4.1
			c-1.3,5.1-2.6,10.1-3.8,15.2c-1.5,0.5-1.8,1.9-2.5,3c-9.7,16.4-28.5,21.5-45.5,12.4c-2.2-1.2-4.3-2.5-6.4-3.7c0-2,0.1-4.1,0.1-6.1
			c1.3,1,2.6,2.1,3.9,3.1c18.7,14.1,41.8,6,47.5-16.6c1.3-5.1,0.1-6.8-5-7c-4.7-0.2-9.3,0.1-14-0.1c-2.9-0.1-3.6,1-3.7,3.7
			c-0.2,5.4-1.6,10.5-4.1,15.3c-4.2,8.2-12.2,8.9-18.1,1.8c-4.1-5-6.4-10.8-7.7-17.1c-0.4-1.8-0.2-3.9-3-3.6
			c-0.5-1.5-2.4-2.3-2.2-4.2c8.5-0.5,1.5-6.5,3-9.6c-1.3,1.6-2.6,3.2-3.9,4.8C348.3-56.6,347.2-60.7,345.8-64.7z M372.4-49.2
			c2.7,0,5.3-0.2,8,0c3,0.2,4.2-0.6,3.7-3.9c-1-6.7-2.7-13-6.1-18.9c-1.4-2.5-3.4-4.5-5.8-6.1c-1.3-0.8-2.2-1.2-3.3,0.3
			c-4.3,5.7-8.7,11.2-8.9,19c-0.3,9.5-0.6,9.5,8.9,9.5C370.1-49.2,371.3-49.2,372.4-49.2z M376.9-42.5c0.1,4.9-2.6,8.9-6,9.1
			c-3.8,0.2-6.5-3.4-6.6-8.8c0-0.2,0.1-0.3,0.1-0.5c0.3-1.3,0.2-2.3-1.6-2.2c-1.7,0.1-1.7,1.1-1.4,2.4c1.4,6.2,3.5,12.1,7.9,16.9
			c3.7,4,7.8,3.5,10.6-1.1c2.9-4.8,3.9-10.2,4.3-15.7c0.3-4-2.8-2.2-4.5-2.5C378.2-45.1,375.7-45.7,376.9-42.5z"/>
		<path class="st4" d="M413.5-29.9c1.3-5.1,2.6-10.1,3.8-15.2c2.3-2.5,3.4-5.7,4.6-8.8c2.3-1.8,4.8-3.6,7-5.5
			c4.1-3.7,7.8-7.9,9-13.4c2.7-12.1,1-23.3-6.6-33.5c-4.2-5.7-8.2-11.5-12.3-17.3c12.5,1.8,21.1,9.7,28.2,19
			c7.5,9.7,13.8,20.3,16.7,32.5c0.2,1,0.7,1.9,0.8,2.9c1.2,7.5,0.5,8.2-7,8.4c-14,0.4-24.4,8.7-29.9,22.5
			c-2.7,6.9-4.9,14.1-5.1,21.7c0,1.1-0.3,2.3-1.6,3.3c-1.7-4.2-3.4-8.3-5.1-12.4C415.6-27.5,415.6-29.4,413.5-29.9z"/>
		<path class="st5" d="M378.1-166.2c7.9,6.5,11.5,15.6,15,24.7c2.6,6.8,3.8,14,5.7,21.1c0.3,1.3,0.9,3-0.2,3.8
			c-1.4,1-2.8-0.5-3.9-1.3c-9-7-18.7-12.5-30.2-14.5c-7.6-1.3-14.8,0-22.1,1.6c-1.8,0.4-3.6,0.7-5.3,1c0.8-13.3,7.7-23.2,17.9-31
			c6-4.6,13-6.4,20.6-4.8C376.5-165.5,377.4-165.1,378.1-166.2z"/>
		<path class="st4" d="M300.9,247c-1.6,0.2-2.8-0.6-4.1-1.5c-11.6-7.5-24.3-8.7-37.7-6.8c-4.4,0.6-8.8,1.1-13.2,2.3
			c-3.5-0.5-6.5,2.2-10,1.9c1.6-6.2,6-11,8.6-16.8c0.6-1.3,1.7-2.4,1.4-4c11.8-2.6,23.3-6,34.6-10.2c7.2-2.7,14.8-4.7,22.6-5.2
			C302.4,220.2,301.7,233.6,300.9,247z"/>
		<path class="st5" d="M419.1-123.7c4.1,5.8,8.1,11.6,12.3,17.3c7.6,10.1,9.3,21.4,6.6,33.5c-1.3,5.6-4.9,9.7-9,13.4
			c-2.2,2-4.7,3.7-7,5.5c-2.5-0.2-3.1-2.3-3.9-4.1c-7.6-17.7-9.4-36-6.7-54.9c0.5-3.8,2.9-7,2.5-10.9
			C415.6-123.8,417.3-123.7,419.1-123.7z"/>
		<path class="st5" d="M306.2-154.1c5.6,5.9,8.4,13.4,11.8,20.6c1.2,2.5,1.9,5.2,3.1,8.5c-7.3-2.2-13.5-5.5-20.7-4.9
			c-11.6,1-22.6,3.7-31.5,11.8c-1.4,1.3-3.3,2-5,3c-0.2-7.8,0.9-15.3,4.1-22.6c6-13.8,17.3-21.1,32.4-17.2
			C302.3-154.5,304.2-153.7,306.2-154.1z"/>
		<path class="st2" d="M303.2,206.8c-7.8,0.5-15.4,2.5-22.6,5.2c-11.3,4.2-22.8,7.6-34.6,10.2c-2.4-0.1-4.9-0.6-7.2,0.5
			c-11,0.2-21.9,0.3-31.9-5.3c-2.8-1.5-5-3.8-7.5-5.7c-0.8-0.9-1.6-1.8-2.3-2.6c-2.8-7.4-3.1-15.2-3.3-23c0.1-2.5,2-4.1,2.8-6.3
			c1.8,1.3,1.2,3.1,0.9,4.6c-1.1,5.7,0,11.3,0.9,16.9c1.6,9.3,8.5,13.8,16.7,15.9c18.4,4.8,36.5,1.9,53.8-4.8
			c31.3-12,63.4-13.8,96.3-10.5c18,1.8,35.6,6.1,53.5,8.6c24.9,3.4,40.4-9.2,41.5-34.2c2.8,1,2.8,3.5,3.1,5.8
			c-2.6,18.9-13.1,29.3-32.4,32.2c-0.8-0.2-1.5-0.2-2,0.5c0,0-0.3,0-0.3,0c-1.1,0-2.3,0.1-3.4,0.1c0,0-0.2,0-0.2,0
			c-1.5-1.2-3.3-0.8-5-0.6c-13.2-1.3-25.8-6-39.1-7c-2.4,0-4.5-1.8-7-0.9c-17.4-2.4-35-3.3-52.5-2.1c-5.2,0.4-10.5,0.2-15.5,2
			C305.1,206.4,304.1,206.6,303.2,206.8z"/>
		<path class="st0" d="M442,31c-4.3,5.6-8.7,11.1-11,17.9c-5.2-15.6-6.6-31.6-6-47.9c0.5-12.6,1.5-25.2,6.1-37.1
			c3.4-8.7,8.6-15.6,17.7-18.9c-3.9,6.9-7.3,13.9-8.8,21.8c-0.5,2.6-1.1,5.1-1.1,7.8C438.5-6.5,439.3,12.3,442,31z"/>
		<path class="st0" d="M306.2-154.1c-2.1,0.4-3.9-0.4-5.8-0.9c-15.1-3.9-26.4,3.5-32.4,17.2c-3.2,7.3-4.3,14.8-4.1,22.6
			c-2.6,2.5-5.3,5-7.9,7.6c-2.2,2.2-3.5,1.6-4-1.2c-3.3-18.8,0.3-42.3,18.6-55.5C283.4-173.5,299.9-168.8,306.2-154.1z"/>
		<path class="st0" d="M210.9-42.9c-1.7,1.2-3.5,2.5-5.3,3.6C181.4-24.1,171,3.9,180.3,31.2c0.3,0.9,1,1.7,1.6,2.5
			c1.5,2.2,0.6,3.1-1.7,3.8c-3.1,0.9-6.3,0.2-9.4,0.6c-7.7-26.5-6.3-51.6,11.6-73.9C190.4-45.7,199-47.6,210.9-42.9z"/>
		<path class="st4" d="M381,207.1c13.3,1,25.9,5.7,39.1,7c1.5,1.4,3.3,0.8,5,0.6c0,0,0.2,0,0.2,0c1.8,5.5,6.1,9.6,8.5,14.7
			c0.7,1.5,1.5,2.9,2.3,4.3c-9-1.3-18.1-1-27.1-0.8c-5.4,0.1-10.8,0.6-16.1,2c-1.9,0-3.8,0-5.8,0C385.1,225.8,383,216.5,381,207.1z"
			/>
		<path class="st0" d="M236,242.9c3.5,0.3,6.4-2.4,10-1.9c0.2,3.5-2.2,6-3.9,8.4c-6,8.8-10.1,18.6-15.5,27.7
			c-8.8,14.7-17.1,29.6-25.6,44.5c-0.6,1-0.7,2.2-1.1,3.2c-2.3,1.1-4.8,1.1-7.3,1.5c-1.4,0.2-3.2,1.2-4.2-0.2c-1-1.4,0.3-2.8,1-4.1
			c4-7.1,8.1-14.1,12.1-21.2c10.7-18.6,21.4-37.1,32.1-55.7C234.3,244.2,234.7,243.2,236,242.9z"/>
		<path class="st5" d="M175.1,217c-11.7,6.3-24.5,10.1-36.5,15.9c-1.7,0.8-3.6,1.7-4.7-1.3c-3-8-9.1-12.9-16.9-15.8
			c-2.6-1-5.1-2.3-8-3.6c3.4-4,6.3-5.8,11.9-3.2c16.6,7.6,32.8,3.9,48.3-4c2.6-1.3,4.9-3.4,7.9-4.2
			C177.6,206.4,175.1,211.6,175.1,217z"/>
		<path class="st0" d="M413.9-123.9c0.4,3.9-2,7.2-2.5,10.9c-2.7,19-1,37.3,6.7,54.9c0.8,1.8,1.4,3.9,3.9,4.1
			c-1.1,3.2-2.3,6.3-4.6,8.8c0.4-2.7-0.3-4.4-3.5-4.1c-1.9,0.1-3.8-0.2-5.8-0.4c-2.2-11.1-5-22-6.5-33.2c-1.1-8.4-2.4-16.7-2.7-25.3
			c5.1,1.4,5.8,0.8,5.1-4.3C402.8-120.7,405.1-123.4,413.9-123.9z"/>
		<path class="st0" d="M239.2-117.2c-6.7,6.1-13.1,12.5-17.9,20.3c-4.3,7-8.1,14.3-11.3,21.8c-1.6,4-4.3,7.5-4.5,12.3
			c-0.2,3.1-4.4,4-7.5,4.8c-0.9-22.6,7.7-41,25-55.2C227.4-116.9,233-119.1,239.2-117.2z"/>
		<path class="st0" d="M387.2,235.1c1.9,0,3.8,0,5.8,0c2.1,10.8,4.2,21.6,6.4,32.4c1.6,8.2,3,16.6,5,24.7c2.8,11.5,5,23.1,7.2,34.7
			c0.4,2.2,0.4,4.3,0.6,6.4c-1.1,1.7-2.4,3.1-4.6,4.4c-2.5-12.1-4.9-24-7.4-35.9c-4.3-21.1-8.5-42.1-12.8-63.2
			C387.1,237.4,387.2,236.2,387.2,235.1z"/>
		<path class="st2" d="M359.2-24.4c0,2-0.1,4.1-0.1,6.1c1.2,12.1,0.8,23.9-5,35c-5.8,11.2-13.8,13.5-24.5,6.9
			c-11.2-7-20.9-15.9-29.6-25.8c1.3-1.2,3-0.6,4.4-0.8c1.4,1.7,2.6,3.5,4.1,4.9c8.7,8.2,17,16.7,28.4,21.2c2.8,1.9,5.2,1.2,7.7-0.8
			c4.1-3.1,6.9-7.1,8.5-12c5-15.5,3.2-31-0.4-46.4c0.7-2.5-1.9-4.4-1.3-6.9c-0.8-2.2-1.6-4.3-2.4-6.5c-2.9-7.5-6.6-14.4-13.7-18.9
			c0.4-3.3,2-2.7,4-1.4c2.3,1.5,3.4,4.4,6.4,4.9c1.4,4,2.5,8.2,6.2,10.9c-0.4,1.7-0.2,3.3,0.9,4.8c-0.2,1.9,1.7,2.7,2.2,4.2
			C356.4-38,357.8-31.2,359.2-24.4z"/>
		<path class="st0" d="M378.1-166.2c-0.7,1.1-1.6,0.7-2.6,0.5c-7.6-1.5-14.6,0.2-20.6,4.8c-10.2,7.8-17,17.7-17.9,31
			c-2.9,1.6-5.8,3.1-9.6,5.2c3.6-18.5,6.9-36.1,24.6-45.9C360.6-175.3,370.9-173.3,378.1-166.2z"/>
		<path class="st4" d="M175.1,217c0-5.5,2.5-10.6,2-16.1c5.9-4.5,11.2-9.8,16.6-14.9c0.2,7.8,0.4,15.6,3.3,23
			c-6.8,0.8-12.3,5-18.6,7.1C177.3,216.6,176.3,217,175.1,217z"/>
		<path class="st2" d="M272.1-9.9c1.3,0.6,2.3,1.5,2.9,2.9c-13.3,18.9-16.5,40.9-19.9,63c-0.2,1.3-0.1,2.6-0.1,4
			c-0.4,3-0.9,6.1-1.3,9.1c-0.2,1.8-0.2,3.7-2.7,3.9c-2.1-3.9-0.3-7.8,0.2-11.7c2.2-19.3,5.2-38.4,12.8-56.5
			C266.2-0.5,270.6-4.3,272.1-9.9z"/>
		<path class="st0" d="M171,229c0,0.3,0,0.6,0,0.9c-5.7-0.1-9.9,3.9-14.9,5.5c-6.8,2.2-13.4,5-20.1,7.5c-0.6-3.4,0.4-5.3,3.9-6.7
			c10.8-4.2,21.4-8.8,32.1-13.2c0,1.6,0,3.2-0.1,4.9C171.6,228.3,171.3,228.7,171,229z"/>
		<path class="st4" d="M533.8,211.1c-4.8-3.2-9.6-6.5-14.5-9.8c6.9-4.3,18.6-2.6,25.7,3.5c-0.7,2-2.6,2.3-4.1,3.2
			C538.7,209.4,535.6,208.7,533.8,211.1z"/>
		<path class="st4" d="M386.9-60.4c-1.2-2.8-2.4-5.6-3.5-8.5c-1.8-4.8-4.3-9-8.7-11.7c-2-1.3-1.8-2.2-0.3-3.7c3.8-4,8-4.8,14-2.7
			c-4.9-0.5-5,2.3-4,5.9C386.4-74.4,387.1-67.5,386.9-60.4z"/>
		<path class="st5" d="M533.8,211.1c1.8-2.4,4.9-1.7,7.1-3c1.5-0.9,3.5-1.2,4.1-3.2c4,0.2,5.7,3.7,8.2,6c1,0.9,0.5,1.8-0.7,2.2
			c-2.9,1-5.4,2.5-7.7,4.5c-0.8,0.7-1.9,0.7-2.8,0C539.3,215.3,536.6,213.2,533.8,211.1z"/>
		<path class="st0" d="M117.9,203c1,0,1.8,0.2,2,1.3C119.3,203.9,118.6,203.5,117.9,203z"/>
		<path class="st4" d="M677.1,91.1c-5,0.9-10.1,1.8-15.1,2.6c-2.7,0.5-2.7-2-3.4-3.5c-6.7-14.6-11.1-29.9-13.6-45.7
			c-3.4-22.2-3.6-44.4,2.1-66.2c2.4-9.1,6.3-17.9,14.9-23.4c5.5,0.3,11.1,0.4,13.5,6.9c0.3,0.7,1.2,1.1,1.7,1.8
			c4.8,6.8,8.8,14.1,8.9,22.6c0.2,19.1-7.5,36.7-10.7,55.2C672.4,58.1,670.2,74.8,677.1,91.1z"/>
		<path class="st3" d="M677.1,91.1c-6.9-16.3-4.6-32.9-1.8-49.6c3.2-18.5,10.9-36.1,10.7-55.2c-0.1-8.6-4.1-15.8-8.9-22.6
			c-0.5-0.7-1.4-1.1-1.7-1.8c-2.4-6.5-8-6.6-13.5-6.9c9.1-6.4,19.2-6.9,27.1-0.8c4.9,3.7,6.6,9.5,8,15.1c3.6,13.6,2.9,27.3,0.7,41.1
			c-2.4,15.3-7,30.1-7.9,45.7c-0.6,10.9,0.7,21.6,3.5,32.1c0.8,3,1.2,4.2-2.8,3.5C686.1,90.9,681.5,91.2,677.1,91.1z"/>
		<path class="st4" d="M724,83.5c-3-1.3-6-2.5-9.5-2.6c-8-0.3-12.8,3.6-15.2,11.1c-4.5-6-6.8-21.7-4.9-31.2
			c1.7-8.7,5.3-16.4,12.2-22.2c4.5-3.8,9.6-5.8,15.6-4.8c1.6,4.3,4.1,8.1,4.9,12.8C729.2,59.2,727.5,71.4,724,83.5z"/>
		<path class="st3" d="M724,83.5c3.6-12.1,5.3-24.4,3.1-37c-0.8-4.6-3.4-8.5-4.9-12.8c5.9-0.3,10.1,2.8,13.6,7.1
			c6.5,7.9,8.6,17.2,7.3,27.2c-1.7,13-6.1,25.1-14.7,35.3c-0.2-0.2-0.4-0.3-0.6-0.5C730.1,95.6,729.8,89,724,83.5z"/>
		<path class="st4" d="M755.9,101.1c-6.2-6.1-8.2-6.9-17-6.7c1.5-5.5,4.4-10.4,5.7-15.8c1.1-4.9,2.4-9.8,2.2-14.8
			c-0.3-4.5,2.7-5.7,5.6-7.2c3-1.7,5.9-0.8,8.3,1.3c3.9,3.4,5.9,7.9,6.7,13c-1.1,4.4-2,8.8-3.3,13.1
			C762.1,90.1,761.2,96.7,755.9,101.1z"/>
		<path class="st3" d="M773,87c-0.1-0.8-0.3-1.7-0.2-2.5c0.3-2.6-1.5-6,2.4-7.2c4-1.3,7.9-0.9,11,2.4c2.9,3.1,4,7,4.5,10.9
			c1.4,13.8-0.3,26.9-8.6,38.5c-5,7.1-10.5,8.4-18.5,4.3c3.6-1.8,4.5-5,4.6-8.6c0.5,0,1,0,1.5,0c4.7,0.4,9-0.1,11.4-4.8
			c2.2-4.2,1.1-8.6-3.2-13.3c0-3.8,0.3-7.6-0.1-11.4C777.5,91.9,777,88.3,773,87z"/>
		<path class="st3" d="M712.8,197.7c-1.1,1.7-2.6,2.9-4.6,3.4c-3.4,0.9-5.7-1.3-4.9-5.1c0.9-4.5,2.4-8.9,3.4-13.4
			c1.9-8.8-1.9-16.6-9-21.9c-6.7-5-13.5-9.5-21.9-11c-0.3-0.1-0.6-0.8-0.8-1.2c17.2-6.1,33.8,4.7,40.4,15.2
			c2.5,3.9,3.3,8.3,2.2,12.9c-1.3,5.5-3.2,10.8-5.5,16C711.3,194.2,709.1,196.5,712.8,197.7z"/>
		<path class="st3" d="M755.9,101.1c5.3-4.4,6.2-11,8-17.1c1.3-4.3,2.2-8.7,3.3-13.1c6.2,19.6-0.6,44.5-15.3,55.9
			c-7,5.5-14.9,6.4-21.1,2.5c0.5-0.4,0.9-1.1,1.5-1.2c6.5-1,11.2-4.3,13.8-10.4C756.7,118,759.7,108.7,755.9,101.1z"/>
		<path class="st5" d="M713.1,84.1c8.8,0.1,14.1,5.9,12.8,13.1c-0.4,2.3-1,5.1-3.9,5c-5.3-0.3-10.8,0.5-15.4-3.6
			c-5.1-4.5-4.1-11,2.5-13.6C710.5,84.4,712.2,84.3,713.1,84.1z"/>
		<path class="st5" d="M746,114.1c-5.1-0.5-10.1-1.9-14.7-4.2c-0.8-0.4-2.4-1-1.7-1.9c2.8-3.4,4.4-8.1,9.1-9.5
			c4.6-1.4,8.9-0.7,12.6,2.6c3,2.6,3.6,5.9,2.3,9.5C752.2,114.1,749,114,746,114.1z"/>
		<path class="st4" d="M746.2,117.8c-2.7,6-7.3,9.4-13.8,10.4c-0.5,0.1-1,0.8-1.5,1.2c-4.6-1.3-7.9-4.2-9.8-8.5
			c-0.9-2.2-2.4-4.8,0.2-6.9c2.4-2,4.8-3.4,8.4-1.3C734.6,115.7,740.4,116.9,746.2,117.8z"/>
		<path class="st5" d="M771.5,121.4c-0.5,0-1-0.1-1.5-0.1c-6.5-0.6-7-1.4-3.7-6.9c1.3-2.2,1.1-5.9,5.2-5.8c4,0.1,7.3,2.9,7.4,6.6
			C779,119,776.1,121.4,771.5,121.4z"/>
		<path class="st4" d="M773,87c4,1.3,4.5,4.9,4.9,8.2c0.4,3.8,0.1,7.6,0.1,11.4c-1.1-0.3-2.2-0.6-3.3-0.8c-3.4-0.3-4.1-2-3.5-5.3
			C772,96.1,772.4,91.5,773,87z"/>
		<path class="st4" d="M768.2,124.7c-0.1,3.6-1,6.9-4.6,8.6c-1.1-1-2.3-1.9-3.2-3c-1.3-1.7-2.5-3.3-1-5.7c1.6-2.5,3.5-1.7,5.5-0.9
			C766,124.1,767.1,124.4,768.2,124.7z"/>
		<path class="st3" d="M726.3,105.4c-1.3,1.2-2.5,2.6-3.9,3.6c-6.2,4.3-7.1,4-9.2-3.9c4.3-0.1,8.5,1.7,12.6-0.3
			C726,105,726.1,105.2,726.3,105.4z"/>
		<path class="st3" d="M728.3,103.3c-0.3,1-0.9,1.8-2,2.1c-0.2-0.2-0.3-0.4-0.5-0.6c0.7-0.7,1.3-1.3,2-2
			C728,103,728.1,103.1,728.3,103.3z"/>
		<path class="st2" d="M674.1,132.3c-7.3,0.2-12.8-3.8-15.2-11.2c-2.5-7.4,0-16.6,5.4-20.3c1-0.7,2-1.2,3-1.7
			c7.6-3.7,9.9-3.1,14.8,3.6c2.9,3.9,5.1,8.1,5.9,13C689.9,127.7,686.4,131.9,674.1,132.3z M685.1,119.6c0.4-6.9-3.7-12.6-8-18.2
			c-1-1.2-2.1-1.3-3.6-0.9c-5.4,1.4-10.2,3.6-11.5,9.6c-1.4,6.4-0.6,12.4,4.8,16.7c4.5,3.6,9.7,2.6,14.7,0.8
			C684.9,126.4,685.3,123.4,685.1,119.6z"/>
		<path class="st4" d="M168.2,446.5c1,1,1.4,2.2,1.4,3.5C167.5,449.5,168,447.9,168.2,446.5z"/>
		<path class="st3" d="M272.1-9.9c-1.5,5.5-5.9,9.4-8.1,14.6c-7.7,18.1-10.7,37.2-12.8,56.5c-0.4,3.8-2.3,7.8-0.2,11.7
			c-1.1,3.1-1.9,6.4-3.3,9.3c-1.5,3.2-3.6,3.1-5.4,0.1c-0.9-1.4-1.2-3-1.3-4.7c-0.5-21.6,1.4-43,9.3-63.3
			c3.2-8.2,6.1-16.9,12.5-23.5c1.8-1.8-0.2-5.4,3.3-6C268.1-13.4,270.1-11.6,272.1-9.9z"/>
		<path class="st3" d="M350.4,117c3.6,0.8,5.6,3.8,8.5,5.6c0.7,0.4,1.1,1.3,0.8,2.2c-0.5,1.4-1.5,0.6-2.5,0.5
			c-13.2-1.9-24.8,3-35.9,9c-9.2,5-18.3,10.2-27.5,15.3c-3.2,1.8-3.8,0.8-3.9-2.5c-0.2-4.6,3.6-7.2,4.9-11.1
			c2.2,0.5,3.3-1.1,4.7-2.2c14-10.3,29.1-17.2,47-16.1C347.9,117.9,349.3,117.9,350.4,117z"/>
		<path class="st2" d="M350.4,117c-1.1,0.9-2.5,0.9-3.8,0.8c-17.9-1.1-33,5.8-47,16.1c-1.4,1.1-2.6,2.7-4.7,2.2
			c-0.5-1.9,0.3-3.1,1.8-4.2c14.1-10.8,29.6-17.9,47.7-17.7C346.7,114.1,349.6,113.5,350.4,117z"/>
		<path class="st3" d="M335.4-68.3c7.1,4.4,10.8,11.4,13.7,18.9c0.8,2.1,1.6,4.3,2.4,6.5c0.2,0.3,0.2,0.5-0.1,0.7
			c-0.5,0.5-1.1,1-1.6,1.5c-1.6-0.1-3.2-0.1-4.8-0.2c-1.6-8.1-6-14.9-9.7-22.1C334.2-65,333.9-66.5,335.4-68.3z"/>
		<path class="st3" d="M278.1-91.8c8,2.1,13.7,7.5,20.5,13.8c-6-0.9-10.5,0-14.2,3.4c-1-4.1-2.4-8-4.4-11.6
			C279-88,277.8-89.7,278.1-91.8z"/>
		<path class="st2" d="M324.8-63c-2.1,0.1-2.9-1-2.7-3c0.3-5.3,0.3-10.6-0.5-15.9c-0.2-1.3-0.4-3,1.4-3.2c1.8-0.2,1.8,1.6,2,2.9
			C325.9-75.9,326.3-69.5,324.8-63z"/>
		<path class="st1" d="M328.4,57.8c-1.3,1.4-3,2.6-0.6,4.7c5.8,5.1,7.1,13,11.7,18.9c3,3.8,0.5,7.6-4.4,7.7
			c-4.3,0.1-8.6-0.1-12.9,0.8c-2.6,0.6-4.8,0-6.4-3.1c-4.6-8.5-17.9-12.6-28.7-9.5c-9.5,2.7-15.1,10.5-15.1,20.9
			c0,5.2-0.2,5.5-6.8,7.1c-1.2-5.4,0.5-10.6,1-15.8c1.2-12.7,2.8-25.4,5.8-37.8c2.3-9.5,4.6-19.1,10.4-27.3
			c4.2-5.9,8.2-6.9,13.2-3.2c-0.8,6.1-2.7,12-2.4,18.2c0.5,9,7.4,16.4,16.3,17.1C315.7,57.1,322.1,57.5,328.4,57.8z"/>
		<path class="st3" d="M328.4,57.8c-6.3-0.4-12.6-0.7-18.9-1.2c-9-0.6-15.8-8.1-16.3-17.1c-0.3-6.3,1.6-12.2,2.4-18.2
			c1.2-0.5,2.4-0.3,3.5,0.2c0,0.8,0,1.6,0,2.4c-1.9,4-2.1,8.3-2.7,12.6c-1,7.2,3.6,15.1,10.5,15.6c0.2,0.1,0.4,0.3,0.6,0.4
			c-0.1-0.2-0.3-0.4-0.4-0.6c-2.8-7.8-2.5-15.8-1.9-23.9c0.6-1.3,1.2-2.6,1.8-3.8c1,0.3,1.9,0.6,2.9,0.9c0,0.9,0,1.8,0.1,2.7
			c0,0.9,0,1.8,0,2.6l0,0c-2.7,5.2-1.4,17.4,2.3,21.6c0.9,1.1,2.1,1.5,3.4,1.8c17.1,2.7,19.8-0.3,15.3-16.9c0.1-1.3,0.1-2.5,0.2-3.8
			c1.2,0.6,2.5,1.1,3.7,1.7c0.3,1.4,0.6,2.7,0.8,4.1c0.4,4.3,0.9,8.6,1.3,12.9c0.1,1.6,0.3,3,2.4,3c6.7,0,12.6-0.7,11.6-9.9
			c0.1-0.4,0.3-0.8,0.4-1.2c0.9,0.6,1.8,1.3,2.7,1.9c-0.2,2.6-1.4,6.5-0.3,7.4c2.4,1.9,4.8-1.6,7.5-2.2c4,0.6,1.9,2.3,0.4,3.3
			c-4.2,2.8-9.1,3.2-13.9,3.4C341.3,57.8,334.8,57.8,328.4,57.8z"/>
		<path class="st4" d="M309.9,30.5C309.9,30.5,310,30.5,309.9,30.5c0.8-0.9,1.3-1.8,0-2.7c0-0.9,0-1.8-0.1-2.7
			c7.4,1.8,14.5,4.3,21.2,8.1c-0.1,1.3-0.1,2.5-0.2,3.8C323.5,36.2,316.9,32.6,309.9,30.5z"/>
		<path class="st4" d="M335.6,39c-0.3-1.4-0.6-2.7-0.8-4.1c6,2,11.6,4.9,16.6,8.9c-0.1,0.4-0.3,0.8-0.4,1.2
			C344.5,46.4,340.5,41.6,335.6,39z"/>
		<path class="st4" d="M361.3,50.9c-2.6,0.6-5.1,4.1-7.5,2.2c-1.1-0.9,0.1-4.9,0.3-7.4C357.3,46.4,359.9,47.7,361.3,50.9z"/>
		<path class="st4" d="M299,24c0-0.8,0-1.6,0-2.4c2.8,0.4,5.5,0.9,7.9,2.6c-0.6,1.3-1.2,2.6-1.8,3.8C300.8,30.2,300.1,26.7,299,24z"
			/>
		<path class="st4" d="M337,23.1c-11.4-4.4-19.8-13-28.4-21.2c-1.5-1.5-2.7-3.3-4.1-4.9c11.1-3.8,20.2-9.9,23.9-21.9
			c0.3-0.9,0.5-1.9,0.7-2.9c1.6-7.4,2.3-8,9.8-8.3c3.3-0.1,6.6,0.1,9.9,0.2c-0.6,0.9-2.3,1.4-1.8,2.7c1.7,5,0.6,10.2,1.4,15.2
			c1.2,8.4,1,16.6-2.7,24.7C343.1,12.5,340,17.7,337,23.1z"/>
		<path class="st3" d="M269.6-37.5c1.6-0.4,3.2-0.8,4.8-1.2c3-0.8,4.3,0.3,5.1,3.4c1.7,6.9,4.9,13.1,10.4,17.9
			c7.2,6.3,16.3,4.9,21.2-3.4c3.5-5.9,5.2-12.4,4.7-19.1c-0.3-4.5,2.5-4.1,5.1-4.7c3.8-0.9,3.5,2.1,3.9,4.2
			c2.3,12.6-2.2,23.1-12.4,29.2c-12.2,7.3-26.8,6.6-37.5-1.8c-5.8-4.6-9.6-10.5-12.2-17.4c-2.5-6.8-2.2-7.2,5.6-6.8
			c-2.6,6-0.1,14.2,5.8,20c1.8,1.8,3.8,3.1,6.2,1.7c2.6-1.5,1.8-4.1,1.1-6.2c-0.6-1.7-1.6-3.2-2.6-4.8
			C276.3-30.7,272.7-33.9,269.6-37.5z"/>
		<path class="st5" d="M280.8-52.3c0.1-6.1,1.1-11.9,4.4-17.1c4-6.3,10.1-7.2,15.5-2.1c6.1,5.8,9.1,13.3,10.6,21.4
			c0.4,2.1-0.6,2.2-1.9,2.6c-8.5,2-17.3,1.8-25.9,3.4c-1.8,0.3-2.3-0.6-2.4-2.2C281-48.3,280.9-50.3,280.8-52.3z"/>
		<path class="st3" d="M337,23.1c3-5.4,6.1-10.7,8.7-16.3c3.8-8,3.9-16.3,2.7-24.7c-0.7-5.1,0.4-10.3-1.4-15.2
			c-0.5-1.3,1.2-1.8,1.8-2.7c1.3-0.1,2.6-0.2,4-0.2c3.5,15.5,5.4,30.9,0.4,46.4c-1.6,4.8-4.4,8.8-8.5,12
			C342.3,24.3,339.8,25,337,23.1z"/>
		<path class="st5" d="M312.2-38.8c-0.2,5.9-1.3,11.3-4.3,16.1c-4,6.6-10.3,7.5-15.9,2.3c-4.9-4.5-7.6-10.4-9.2-16.8
			c-0.5-1.9-0.2-2.9,1.9-2.8c1.4,0.1,3.7-1.2,3.1,2c-0.1,0.5-0.1,1,0,1.5c0.3,5.3,3.9,9.1,8.3,8.7c4.3-0.4,7.3-4.8,7.1-9.9
			c0-1.5-2.3-3.5-0.1-4.3c2.6-0.9,5.6-1.3,8.3-0.9C313-42.7,311.7-40,312.2-38.8z"/>
		<path class="st0" d="M269.6-37.5c3.1,3.7,6.7,6.8,9.2,10.9c0.9,1.6,2,3.1,2.6,4.8c0.7,2.2,1.5,4.8-1.1,6.2
			c-2.4,1.3-4.3,0.1-6.2-1.7c-5.9-5.9-8.4-14.1-5.8-20C268.8-37.4,269.2-37.4,269.6-37.5z"/>
		<path class="st4" d="M312.8-61.1c-0.3,0.1-0.6,0.3-0.7,0.2c-0.2-0.2-1.2-0.1-0.5-0.8c0.2-0.2,0.6-0.2,0.8-0.1
			C312.7-61.7,312.7-61.3,312.8-61.1z"/>
		<path class="st4" d="M349.9-40.7c0.5-0.5,1.1-1,1.6-1.5C351.8-40.8,351-40.6,349.9-40.7z"/>
		<path class="st3" d="M428.9,214.7c0.5-0.7,1.2-0.7,2-0.5C430.4,215,429.7,215.1,428.9,214.7z"/>
		<path class="st5" d="M171,229c0.3-0.4,0.6-0.7,0.9-1.1C171.6,228.3,171.3,228.7,171,229z"/>
		<path class="st3" d="M359.2-24.4c-1.4-6.8-2.8-13.7-4.2-20.5c2.8-0.2,2.6,1.8,3,3.6c1.3,6.3,3.6,12.1,7.7,17.1
			c5.9,7.1,13.8,6.4,18.1-1.8c2.5-4.8,3.9-9.9,4.1-15.3c0.1-2.7,0.8-3.8,3.7-3.7c4.7,0.2,9.3,0,14,0.1c5.2,0.2,6.3,1.9,5,7
			c-5.7,22.6-28.8,30.7-47.5,16.6C361.8-22.3,360.5-23.3,359.2-24.4z"/>
		<path class="st5" d="M372.4-49.2c-1.2,0-2.3,0-3.5,0c-9.5,0-9.2,0-8.9-9.5c0.2-7.8,4.6-13.3,8.9-19c1.1-1.5,2.1-1.1,3.3-0.3
			c2.4,1.6,4.4,3.6,5.8,6.1c3.4,5.8,5.1,12.2,6.1,18.9c0.5,3.3-0.7,4.1-3.7,3.9C377.8-49.3,375.1-49.2,372.4-49.2z"/>
		<path class="st5" d="M376.9-42.5c-1.2-3.2,1.3-2.6,2.9-2.4c1.7,0.2,4.8-1.5,4.5,2.5c-0.4,5.5-1.5,10.9-4.3,15.7
			c-2.8,4.6-6.9,5.1-10.6,1.1c-4.4-4.8-6.5-10.7-7.9-16.9c-0.3-1.3-0.3-2.3,1.4-2.4c1.8-0.1,1.9,0.9,1.6,2.2c0,0.2-0.1,0.3-0.1,0.5
			c0.1,5.5,2.8,9.1,6.6,8.8C374.4-33.6,377-37.5,376.9-42.5z"/>
		<path class="st3" d="M352.9-49.1c-1.1-1.4-1.2-3.1-0.9-4.8c1.3-1.6,2.6-3.2,3.9-4.8C354.4-55.5,361.3-49.6,352.9-49.1z"/>
		<path class="st3" d="M425.1,214.8c-1.7,0.2-3.5,0.8-5-0.6C421.8,214,423.5,213.6,425.1,214.8z"/>
		<path class="st5" d="M685.1,119.6c0.2,3.8-0.2,6.8-3.6,8c-5,1.8-10.1,2.9-14.7-0.8c-5.4-4.3-6.2-10.4-4.8-16.7
			c1.3-6.1,6.1-8.2,11.5-9.6c1.4-0.4,2.6-0.3,3.6,0.9C681.4,107,685.5,112.6,685.1,119.6z"/>
		<path class="st0" d="M309.9,30.5c7,2.1,13.6,5.7,21,6.5c4.5,16.5,1.8,19.6-15.3,16.9c-1.4-0.2-2.5-0.7-3.4-1.8
			C308.5,47.9,307.2,35.7,309.9,30.5z"/>
		<path class="st0" d="M299,24c1.1,2.7,1.7,6.2,6.1,4.1c-0.5,8.1-0.8,16.1,1.9,23.9l-0.2,0.2c-6.9-0.5-11.6-8.4-10.5-15.6
			C296.9,32.3,297.1,28,299,24z"/>
		<path class="st5" d="M335.6,39c4.9,2.6,8.9,7.3,15.3,5.9c0.9,9.2-5,10-11.6,9.9c-2.1,0-2.3-1.4-2.4-3
			C336.5,47.6,336,43.3,335.6,39z"/>
		<path class="st0" d="M310,27.9c1.3,0.9,0.8,1.8,0,2.6C310,29.6,310,28.7,310,27.9z"/>
		<path class="st0" d="M307.1,51.9c0.1,0.2,0.3,0.4,0.4,0.6c-0.2-0.1-0.4-0.3-0.6-0.4C306.9,52.1,307.1,51.9,307.1,51.9z"/>
	</g>
</g>
</svg>
