<?xml version="1.0" encoding="utf-8"?>
<!-- Generator: Adobe Illustrator 21.0.0, SVG Export Plug-In . SVG Version: 6.00 Build 0)  -->
<svg version="1.1" id="Capa_1" xmlns="http://www.w3.org/2000/svg" xmlns:xlink="http://www.w3.org/1999/xlink" x="0px" y="0px"
	 viewBox="0 0 841.9 595.3" style="enable-background:new 0 0 841.9 595.3;" xml:space="preserve">
<style type="text/css">
	.st0{fill:#FDFEFE;}
	.st1{fill:#070506;}
	.st2{fill:#02BDFB;}
	.st3{fill:#E9AF75;}
	.st4{fill:#F90203;}
	.st5{fill:#80F909;}
</style>
<g>
	<g>
		<path class="st0" d="M260.3,540.2c0-173.8,0-347.6,0-521.4c0-1.8,0.4-2.1,2.1-2.1c104.6,0.1,209.1,0.1,313.7,0
			c2,0,2.2,0.6,2.2,2.3c0,74.5,0,149,0,223.6c-0.5-0.1-0.4-0.5-0.4-0.9c-0.6-8.4-3.1-16.3-7.9-23.2c-3.5-5-7.9-8.9-14-10.6
			c-6.2-1.7-12.1-0.6-17.8,2c-4.5,2-8.1,4.9-9.5,9.8c-1.8,6.4,1,13.1,6.7,16.2c4.9,2.7,13.7,1.1,17.7-3c3.2-3.3,3.5-8.1,6.1-11.7
			c0.1-0.1,0.2-0.2,0.4-0.4c0.9,0.7,1.7,1.6,2.3,2.6c6.1,9,7.9,18.8,6,29.4c-2.7,15-11,26.9-21.8,37.1c-8.4,8-18.1,14.2-28.8,18.8
			c-10.9,4.7-22.1,7.3-33.9,7c-0.5,0-1.3,0.3-1.5-0.4c-0.3-0.7,0.4-1,0.8-1.5c4.2-5.1,7.3-10.8,9.8-16.8c3.3-7.9,5.1-16.2,6-24.7
			c0.1-1.1,0.4-1.6,1.6-1.7c5.3-0.2,9.3-2.8,12.2-7c4.8-7,4-14.5-3.5-18.8c-3.6-2.1-7.8-2.2-11.9-1.9c-1.1,0.1-1.6-0.1-2.1-1.2
			c-4.5-11.1-12.3-18.7-23.8-22.4c0.4-0.7,0.8-1.4,1.3-2c2.9-3.7,5.1-7.9,6.3-12.4c0.3-1.2,0.1-1.9-1.4-2.3
			c-1.4-0.3-3.5-0.4-3.8-2.1c-0.3-1.4-1-1.9-2-2.5c-2.8-1.5-2.8-1.5-1.4-4.4c1.4-3.1,1.1-5.5-1-7.6c-1.8-1.8-4.7-2-7.4-0.6
			c-0.6,0.4-1.1,0.6-1.8,0.3c-5-1.9-6.8-1.3-9.3,3.4c-0.2,0.4-0.5,0.9-0.6,1.4c-0.5,1.4-1.4,1.8-2.7,1.1c-1.2-0.6-2.4-0.6-3.8-0.4
			c-1.9,0.3-3.7,0.5-5.2-1.6c-2-2.8-6.5-2.8-8.7-0.4c-1.4,1.6-1.9,3.3-2.2,5.3c-0.1,0.7,0.5,2-1,2c-1.4,0-0.8-1.3-1-2
			c-0.4-1.9-0.7-3.9-2.5-5.1c-4.3-2.9-9-0.7-9.6,4.5c-0.1,1.2-0.4,1.6-1.7,1.6c-5.8,0.2-8.8,5.6-6,10.7c0.5,0.9,1.3,1.8,1.3,2.9
			c0.2,4.7,2.5,8.4,5.2,11.9c-4.6,2.6-9.2,4.9-13.5,7.9c-6.6,4.5-12.5,9.6-17.3,16c-0.9,1.2-1.4,2.9-3.2,3.8
			c0.2-0.7,0.3-1.1,0.4-1.4c0.2-0.5,0.5-0.9,0.7-1.4c0.2-0.6,0.4-1.1-0.4-1.4c-5.4-1.6-10.8-3.5-16.5-2.1c-5.6,1.3-9.3,5.3-9.3,11.3
			c0,7,6.1,14.3,13.4,16.2c1.2,0.3,3.1-0.3,3.6,1c0.4,1.1-0.3,2.7-0.4,4.1c0,0.1-0.1,0.3-0.1,0.4c-1.5,7.9-0.5,15.6,1.8,23.1
			c2.7,8.6,7.9,15.6,14.4,21.8c0.8,0.8,2.9,1.1,2.1,2.7c-0.5,1.1-2.2,1.3-3.4,1.7c-11.9,3.8-23.1,1-33.9-3.7
			c-8.8-3.9-16.7-9.4-23.6-16.2c-5.1-5-9.4-10.4-12.7-16.8c-3.5-6.7-4.1-14.2-5.1-21.5c-0.1-1.1,0.2-1.5,1.3-1.4
			c2.2,0.1,4.1-0.8,5.9-2c4.9-3.3,7.6-8.1,9.2-13.6c0.8-2.7,1-5.5,0.1-8.2c-1.2-3.7-3.5-6.3-7.4-7c-5.5-1-12.9-0.2-16.1,6.3
			c-1.3,2.6-2,5.5-2.4,8.3c-0.7,4.6-0.5,9.2-0.3,13.8c0.3,6.8,1.2,13.5,2.9,20.1c2.4,9.5,7.8,17.4,14.3,24.6
			c10.4,11.4,22.6,19.9,37.2,25c7.6,2.6,15.3,4,23.4,3.3c1.2-0.1,2.5-0.7,4-0.4c-3.8,6.8-7.5,13.5-11.2,20.1
			c-2.5,4.4-4.8,8.9-7.3,13.3c-4.1,7.3-8.1,14.6-12,21.9c-3.8,7.1-7.6,14.2-11.2,21.4c-1.1,2.1-2.8,4.4-1.2,6.9
			c1.2,1.8,0.9,3.3,0.3,5.1c-3.3,10.5-6.6,20.9-9.6,31.5c-1.5,5.1-2.8,10.3-2.4,15.7c0.3,4.7,1.5,9.2,4.9,12.7c3.5,3.7,8,6,13,7.3
			c1.1,0.3,1.5,0.8,1.2,2c-1.3,6.3-2.5,12.7-4.7,18.8c-2.3,6.4-5,12.5-9.2,17.9c-6.3,8-17.5,8.6-23.9,3.2c-1.7-1.4-3.2-3-5-4.2
			c-3-2.2-5.4-5.2-8.8-7c-3.1-1.7-6-3.8-9.6-4.4c-3.6-0.6-6.3,1.5-9,3.2c-4.9,3-9.2,6.8-12.1,12
			C261.6,535.3,261.3,537.9,260.3,540.2z M430,17.1c-4.6-0.1-9.5,0.7-14.3,2.6c-11.1,4.3-18.3,13.7-16,26c1,5.5,3.5,10.5,6.6,15.1
			c4.1,6.1,9.5,10.6,16.4,13.2c8.5,3.2,16.7,2.9,25-1.2c9-4.5,13.2-12,14.8-21.4c0.8-5-0.1-9.9-1.4-14.7c-1.5-5.5-4.7-9.9-9.4-13.3
			C445.3,18.8,438.2,17,430,17.1z M283.9,163.9c0.2,10.1,3,19.3,10.1,26.7c6.8,7.1,15,8.5,23.2,5.6c6.3-2.2,11.7-6.1,16.2-11.1
			c9.6-10.6,12.5-25.6,4.8-38.5c-4.3-7.3-10.8-11.6-19.2-13c-4.9-0.8-9.7-0.2-14.5,1.2c-7.5,2.2-13.5,6.2-17.1,13.4
			C284.9,153.2,283.8,158.4,283.9,163.9z M509.3,126.9c0,7.3,2,13.9,6.4,19.8c4.2,5.4,9.5,9.1,16.1,10.8c8,2,15.4,0.4,22.2-4.2
			c5.3-3.5,9.6-7.9,12.2-13.8c3-6.8,2.7-13.9,0.2-20.7c-3.8-10.4-10.6-18.4-20.9-23c-8.6-3.8-17.9-3.1-24.7,3.7
			C513.4,107,509.6,116.2,509.3,126.9z"/>
		<path class="st0" d="M530.4,586.7c-89.4,0-178.7,0-268.1,0c-1.6,0-2-0.4-2-2c0.1-14,0-27.9,0-41.9c0.9,0.5,0.5,1.4,0.7,2.1
			c0.7,2.8,2.1,5.1,4.3,6.9c4.6,3.6,9.8,3.8,14.8,1.6c7.7-3.3,13.5-8.6,15.4-17.4c0.7,0.5,1.2,1,1.7,1.4c3.8,2.7,7,6.2,11.8,7.7
			c9.7,2.9,18.5,1.3,26.1-5.4c7.4-6.5,11.2-15.3,14.4-24.3c2.3-6.6,3.6-13.5,5.1-20.3c0.2-0.8,0.2-1.3,1.3-1.1
			c7.2,0.9,14.4,1,21.6,1.2c0.9,0,1.7,0,2.2-0.9c0.9-1.4,1.8-2.8,2.9-4.1c0.7-0.9,0.7-1.7,0.3-2.8c-2.2-5.4-4.6-10.8-6.6-16.4
			c-2.1-5.9-4.3-11.7-4.8-18.1c-0.1-1.8,0.4-2.4,2-2.8c9.4-2.7,19.1-3.1,28.8-3c11.1,0.1,22.2,0.8,33.3,1.1
			c11.1,0.3,22-0.4,32.8-3.1c5.4-1.3,5.2-1.4,5.8,4.1c0.7,6.8,0.7,13.6,1.3,20.3c0.6,6.8,2.5,9.4,8.1,10.8c3.7,0.9,7.4,1.7,11.2,1.5
			c2.5-0.1,2.9,0.9,3,3.1c0.4,8.5,0.8,16.9,1.3,25.4c0.6,8.9,0.9,17.9,2.2,26.8c1.5,10.6,3.5,21.1,8.1,30.9
			c3,6.3,7.1,11.6,12.9,15.6C524.9,585.1,527.7,585.7,530.4,586.7z"/>
		<path class="st1" d="M530.4,586.7c-2.7-1-5.5-1.6-7.9-3.3c-5.9-3.9-9.9-9.3-12.9-15.6c-4.7-9.8-6.6-20.3-8.1-30.9
			c-1.3-8.9-1.6-17.8-2.2-26.8c-0.6-8.5-1-16.9-1.3-25.4c-0.1-2.1-0.5-3.2-3-3.1c-3.8,0.2-7.5-0.6-11.2-1.5
			c-5.6-1.4-7.6-4.1-8.1-10.8c-0.6-6.8-0.6-13.6-1.3-20.3c-0.5-5.4-0.4-5.4-5.8-4.1c-10.8,2.7-21.8,3.4-32.8,3.1
			c-11.1-0.3-22.2-1-33.3-1.1c-9.7-0.1-19.4,0.2-28.8,3c-1.6,0.5-2.1,1.1-2,2.8c0.5,6.3,2.7,12.2,4.8,18.1c2,5.5,4.3,10.9,6.6,16.4
			c0.4,1.1,0.4,1.9-0.3,2.8c-1,1.3-2,2.7-2.9,4.1c-0.6,0.9-1.3,1-2.2,0.9c-7.2-0.2-14.5-0.3-21.6-1.2c-1.1-0.1-1.1,0.3-1.3,1.1
			c-1.5,6.8-2.7,13.7-5.1,20.3c-3.2,9.1-7,17.8-14.4,24.3c-7.6,6.7-16.3,8.3-26.1,5.4c-4.7-1.4-8-4.9-11.8-7.7
			c-0.5-0.4-1-0.8-1.7-1.4c-1.9,8.8-7.7,14.1-15.4,17.4c-5.1,2.2-10.3,2-14.8-1.6c-2.2-1.8-3.6-4.1-4.3-6.9
			c-0.2-0.7,0.2-1.6-0.7-2.1c0-0.9,0-1.8,0-2.6c1.1-2.3,1.3-4.9,2.6-7.2c2.9-5.2,7.1-8.9,12.1-12c2.8-1.7,5.4-3.8,9-3.2
			c3.6,0.6,6.5,2.7,9.6,4.4c3.4,1.8,5.8,4.8,8.8,7c1.8,1.3,3.3,2.8,5,4.2c6.4,5.4,17.6,4.8,23.9-3.2c4.3-5.4,7-11.5,9.2-17.9
			c2.2-6.1,3.3-12.5,4.7-18.8c0.3-1.2-0.1-1.7-1.2-2c-5-1.3-9.5-3.6-13-7.3c-3.3-3.5-4.5-8-4.9-12.7c-0.4-5.4,0.9-10.6,2.4-15.7
			c3-10.5,6.4-21,9.6-31.5c0.6-1.8,0.9-3.4-0.3-5.1c-1.6-2.5,0.1-4.7,1.2-6.9c3.7-7.2,7.4-14.3,11.2-21.4c3.9-7.4,7.9-14.7,12-21.9
			c2.5-4.4,4.9-8.9,7.3-13.3c3.7-6.7,7.4-13.3,11.2-20.1c-1.6-0.3-2.8,0.3-4,0.4c-8.1,0.7-15.8-0.7-23.4-3.3
			c-14.6-5-26.9-13.6-37.2-25c-6.5-7.1-11.9-15.1-14.3-24.6c-1.6-6.6-2.5-13.3-2.9-20.1c-0.2-4.6-0.4-9.2,0.3-13.8
			c0.4-2.9,1.1-5.7,2.4-8.3c3.2-6.5,10.5-7.2,16.1-6.3c3.8,0.7,6.2,3.3,7.4,7c0.9,2.7,0.7,5.5-0.1,8.2c-1.6,5.5-4.3,10.3-9.2,13.6
			c-1.8,1.2-3.6,2.2-5.9,2c-1.1-0.1-1.4,0.4-1.3,1.4c1,7.4,1.6,14.8,5.1,21.5c3.3,6.3,7.7,11.8,12.7,16.8
			c6.9,6.8,14.8,12.3,23.6,16.2c10.9,4.7,22.1,7.5,33.9,3.7c1.3-0.4,2.9-0.7,3.4-1.7c0.7-1.6-1.3-1.9-2.1-2.7
			c-6.5-6.1-11.7-13.2-14.4-21.8c-2.3-7.5-3.3-15.2-1.8-23.1c0-0.1,0.1-0.3,0.1-0.4c0.2-1.4,0.9-2.9,0.4-4.1c-0.5-1.3-2.4-0.7-3.6-1
			c-7.3-1.9-13.4-9.2-13.4-16.2c0-6,3.7-10,9.3-11.3c5.7-1.4,11.1,0.5,16.5,2.1c0.9,0.3,0.7,0.8,0.4,1.4c-0.2,0.5-0.5,0.9-0.7,1.4
			c-0.2,0.4-0.2,0.7-0.4,1.4c1.8-1,2.3-2.6,3.2-3.8c4.8-6.4,10.7-11.5,17.3-16c4.3-3,9-5.3,13.5-7.9c3-1.2,3.1-1.2,2-4.3
			c-0.5-1.5-1.1-3-1.7-4.5c-0.6-1.6-2.1-3.7-1.5-4.7c0.7-1.3,3-1.8,4.6-2.6c3.3-1.6,3.3-1.6,4.9,1.6c0.3,0.7,0.7,1.4,1,2.2
			c1.7,4.9,3.3,9.7,5,14.6c0,0.1,0,0.3-0.1,0.4c-1.4,1.1-4.4,0.1-4.4,3.1c0,0.1-0.5,0.2-0.8,0.3c-6,2.9-12,5.9-17.6,9.7
			c-6,4-11.5,8.6-15.4,14.7c-6.9,11-10.6,23-9.5,36.1c0.4,5,1.8,10,4.3,14.3c4.8,8.2,11.6,14.4,20.3,18.5c7.3,3.5,14.9,5.4,22.9,6
			c12.1,0.9,23.7-1.5,34.5-7c5.9-3,11.3-7,15.5-12.2c6.5-8.2,10.1-17.8,12.1-28c1.8-9.1,2.1-18.3,0.1-27.4c-1-4.8-2.7-9.5-5.8-13.5
			c-5.7-7.5-13.1-11.3-22.6-10.9c-1,0-1.8-0.2-1.4-1.5c0.7-2.1-0.8-2.6-2.3-3.2c-1.3-1.3-3.3-1.5-4.5-3c1.3-2.2,2.6-4.5,4-6.7
			c3-5,6-10,9.4-14.8c0.8-1.1,1.4-1.2,2.4-0.3c1.5,1.3,3.2,2.6,4.9,3.7c1.2,0.8,1.1,1.4,0.3,2.4c-3.7,4.6-6,10.2-10.3,14.4
			c1.2-0.1,2.2-0.7,3.4-0.2c1.7,0.7,3.5,0.9,5.3,1.1c11.5,3.7,19.3,11.3,23.8,22.4c0.4,1.1,1,1.3,2.1,1.2c4.1-0.3,8.3-0.2,11.9,1.9
			c7.5,4.3,8.3,11.7,3.5,18.8c-2.9,4.2-6.9,6.8-12.2,7c-1.2,0-1.5,0.6-1.6,1.7c-0.9,8.5-2.7,16.8-6,24.7c-2.5,6-5.6,11.8-9.8,16.8
			c-0.4,0.4-1,0.8-0.8,1.5c0.3,0.7,1,0.4,1.5,0.4c11.8,0.3,23.1-2.4,33.9-7c10.7-4.6,20.4-10.8,28.8-18.8
			c10.8-10.3,19.1-22.1,21.8-37.1c1.9-10.5,0-20.4-6-29.4c-0.7-1-1.4-1.8-2.3-2.6c-0.1-0.6-0.5-0.8-1-0.8c-0.2,0-0.5,0.1-0.3,0.4
			c0.3,0.3,0.6,0.5,1,0.8c-2.6,3.6-2.9,8.4-6.1,11.7c-3.9,4.1-12.8,5.7-17.7,3c-5.7-3.2-8.6-9.9-6.7-16.2c1.4-4.9,5-7.8,9.5-9.8
			c5.7-2.6,11.6-3.8,17.8-2c6,1.7,10.5,5.6,14,10.6c4.8,7,7.3,14.8,7.9,23.2c0,0.3,0,0.7,0.4,0.9c0,2.3,0,4.7,0,7
			c-0.1,0.1-0.4,0.3-0.4,0.4c-0.6,7.1-2.7,13.7-5.5,20.1c-3.3,7.4-7.9,14.1-13.2,20.2c-6.3,7.2-13.7,13.3-21.8,18.6
			c-8.8,5.7-18.2,10.1-28.2,13c-7.8,2.3-15.8,3.6-23.9,3.6c-0.9,0-1.7,0-1.2,1.3c1.7,4.6,3.3,9.3,5.6,13.7c4,7.8,8.4,15.4,12.7,23.1
			c3.8,6.8,7.4,13.7,10,21c1.6,4.6,3.5,9.3,3.5,14.4c-0.2,18.7,0.9,37.3,4.6,55.7c1,4.9,2,10,4.9,14.1c1.8,2.6,1.5,5.1,0.9,7.7
			c-0.1,0.4-0.3,0.7-0.3,1.1c0,1.3-0.8,1.8-2,2.1c-4.8,1.2-9.7,2-14.7,2.1c-1.8,0-1.9,0.7-1.8,2.2c0.3,4.7,0.6,9.3,0.8,14
			c0.9,16.5,1.3,33.1,4.7,49.4c1.1,5.2,2.6,10.3,4.7,14.9c0.7-0.6,1.4-1.1,2.1-1.6c0.7-0.6,1.3-1.3,2.2-1.8
			c7.7-4.6,15.4-3.7,22.8,0.6c5.3,3.1,7.4,8.3,6.2,13.7c-0.9,4.1-3.6,6.8-6.8,9.3c-3,2.3-6.4,3.5-10.1,4.2
			C532.7,586.7,531.5,586.7,530.4,586.7z M348.5,414.9c1.3,0,2.2,0,3.1,0c12.8,0.3,25.6,0.7,38.3,1c19.8,0.6,39.6,0.8,59.3-1.6
			c9.6-1.2,19-2.8,28.3-5.5c4-1.1,7.8-2.7,11.9-3.6c3.9-0.8,7.9-1.5,11.7-2.7c4.1-1.3,5.4-3,4.5-6.5c-0.6-2.5-1.3-4.9-2.2-7.3
			c-3.3-9.4-8.2-18-13.1-26.6c-6.1-10.8-12.1-21.6-15.7-33.5c-0.6-1.9-1.1-3.8-1.7-5.9c-0.8,0.4-1.3,0.7-1.9,1.1
			c-8.4,5.9-17.7,9.4-27.7,11.2c-9.7,1.8-19.4,1.5-29.1-0.6c-5.8-1.2-11.3-3.2-16.6-5.8c-1.7-0.8-2.1-0.5-2.9,0.9
			c-4.1,7.4-8.3,14.7-12.4,22.1c-5.9,10.6-11.8,21.2-17.6,31.8c-3.9,7.1-7.6,14.2-11.4,21.3C351.9,408,350.3,411.3,348.5,414.9z
			 M500.5,472.7c5.1,0,9.3-0.1,13.4-0.7c1.6-0.2,1.9-0.6,1.1-2c-0.6-1.1-0.9-2.2-1.3-3.4c-2.7-7.7-4-15.7-5.1-23.8
			c-1.2-8.8-1.7-17.6-2.1-26.5c0-0.9,0-1.9-0.1-2.8c-0.3-2.3-0.8-2.6-2.9-1.8c-2.1,0.7-4.3,1.4-6.5,1.8c-2.5,0.4-5,0.8-7.4,1.7
			c-10.5,3.7-21.3,6.2-32.4,7.9c-12.4,1.9-24.8,2.5-37.2,2.8c-6.9,0.2-13.9,0-20.8-0.1c-11.2-0.2-22.3-0.5-33.5-1
			c-4.8-0.2-9.6,0.1-14.4-0.5c-1.6-0.2-3.6-0.1-4,2c-0.7,3.4-1.8,6.7-2.8,10c-1.6,5.3-3.4,10.6-5,15.9c-1.9,6.5-4.1,13-3.7,20
			c0.1,2.3,0.8,4.4,2.4,6.1c2.4,2.6,5.6,3.5,8.9,4.6c7.6,2.4,15.4,2.4,23.1,2.8c1.6,0.1,1.7-0.5,1.1-1.8c-1.1-2.6-2-5.3-3.1-7.9
			c-1.7-4-2.9-8.1-4.1-12.3c-1.4-4.6-2.4-9.3-1.9-14.2c0.3-3.4,2.2-5.7,5.3-7.1c4.3-1.9,8.9-2.7,13.4-3.3c5.5-0.8,11.1-1.1,16.8-1.2
			c15.6-0.2,31.2,1.4,46.9,1c9.1-0.2,18-1.4,26.7-4.2c2.3-0.8,6.8,0.6,8.4,2.4c3,3.4,4,7.6,4.2,11.8c0.3,6.6,1.2,13.2,1.1,19.9
			c0,2.2,1,3,2.9,3.2C492.3,472.4,496.9,472.9,500.5,472.7z M274.3,545.5c1.1,0.1,2.1-0.5,3.2-1c3.2-1.5,5.9-3.6,7.5-6.7
			c1-2,1.4-4.2,1.9-6.4c0.1-0.6,1.4-1.5-0.1-2.1c-1.5-0.6-2.7-2.6-4.7-1.5c-2.4,1.4-4.9,2.9-7,4.8c-2.4,2.2-4.4,4.6-4.9,8
			C269.7,543.4,271.4,545.5,274.3,545.5z M532.2,565.3c-1.8,0.3-3.5,0.4-5,1.3c-2.2,1.3-3.7,5-2.7,6.5c2.6,3.7,8.6,4.9,12.6,2.6
			c1.4-0.8,1.9-2.2,3.1-3.1c1.7-1.2,1.9-2.8,0.4-4.3C538.2,566.2,535.1,565.9,532.2,565.3z M366.8,251.7c-0.8,0-1.2,0-1.7,0
			c-2.9,0.1-3.7,1.5-2.5,4.2c0.8,1.9,2.2,3.2,4,4.2c3.4,2,6.3,1,7.6-2.6c0.3-0.9,0.6-1.8,1.1-2.6c0.4-0.8,0.4-1.2-0.5-1.5
			C372.1,252.7,369.4,251.5,366.8,251.7z M551,216.7c-4.6-0.4-8.4,1.1-11.8,3.4c-1.7,1.2-2.2,2.9-1.5,5c0.6,2,2,2.8,3.8,2.6
			c2-0.2,4.4,0.2,5.3-2.5C547.8,222.4,549.1,219.6,551,216.7z M308.5,252.7c0,0.5-0.1,1-0.1,1.5c0,1.6,0.9,2.2,2.2,1.2
			c3.3-2.6,5.4-6,5.5-10.4c0-0.6,0-1.1-0.7-1.5c-1.6-0.7-4.8,0.4-5.6,2.1C308.9,247.9,308.5,250.3,308.5,252.7z M499.4,252.3
			c-1.7-0.1-1.8,0-1.6,1.7c0.2,2,0.5,4,0.6,6c0.1,1.4,0.8,1.5,1.9,1.2c2.4-0.7,4-2.3,4.9-4.5c0.7-1.7,0.5-3.1-1.7-3.7
			C502.1,252.7,500.8,252.4,499.4,252.3z"/>
		<path class="st0" d="M533.9,586.7c3.6-0.7,7.1-1.9,10.1-4.2c3.1-2.5,5.8-5.3,6.8-9.3c1.2-5.4-0.9-10.6-6.2-13.7
			c-7.4-4.3-15.1-5.2-22.8-0.6c-0.8,0.5-1.4,1.2-2.2,1.8c-0.7,0.5-1.4,1.1-2.1,1.6c-2.1-4.6-3.6-9.7-4.7-14.9
			c-3.4-16.3-3.8-32.9-4.7-49.4c-0.2-4.7-0.5-9.3-0.8-14c-0.1-1.5,0-2.2,1.8-2.2c5-0.1,9.9-0.9,14.7-2.1c1.2-0.3,2-0.8,2-2.1
			c0-0.4,0.2-0.7,0.3-1.1c0.6-2.7,0.9-5.1-0.9-7.7c-2.9-4.2-3.9-9.2-4.9-14.1c-3.7-18.4-4.9-37-4.6-55.7c0.1-5-1.8-9.7-3.5-14.4
			c-2.6-7.4-6.2-14.3-10-21c-4.3-7.7-8.7-15.3-12.7-23.1c-2.2-4.4-3.9-9.1-5.6-13.7c-0.5-1.2,0.3-1.3,1.2-1.3
			c8.2,0,16.1-1.3,23.9-3.6c10-2.9,19.4-7.3,28.2-13c8.1-5.2,15.5-11.3,21.8-18.6c5.3-6.1,9.9-12.7,13.2-20.2c2.9-6.4,5-13,5.5-20.1
			c0-0.2,0.3-0.3,0.4-0.4c0,111.7,0,223.5,0,335.2c0,1.6-0.4,2-2,2C562.1,586.7,548,586.7,533.9,586.7z"/>
		<path class="st1" d="M430,17.1c8.2-0.1,15.3,1.7,21.6,6.2c4.6,3.3,7.8,7.8,9.4,13.3c1.3,4.8,2.3,9.7,1.4,14.7
			c-1.6,9.4-5.9,16.9-14.8,21.4c-8.2,4.2-16.5,4.4-25,1.2c-6.9-2.6-12.3-7.1-16.4-13.2c-3.1-4.6-5.6-9.6-6.6-15.1
			c-2.2-12.3,4.9-21.7,16-26C420.5,17.9,425.4,17,430,17.1z M409.3,38c-0.8,2.5-0.6,5,0,7.5c0.7,2.8,1.2,5.6,4.8,6
			c1.4,0.2,2.7-0.6,4-0.5c1.4,0.2,2.5-0.6,3.6-1.3c3.3-2.4,5.7-5.7,7.9-9.1c0.8-1,1.6-2,2.5-2.8c1.9-1.9,3.6-4,6.1-5.2
			c1.4-0.4,2.8-0.8,4.2-1.2c0.4,0,0.7-0.1,1.1-0.1c1.4-0.2,1.1-0.8,0.3-1.5c-1.2-1-2.6-1.5-4.1-1.7l0,0c-0.7-0.6-1.6-0.7-2.4-0.9
			c-0.1-0.1-0.2-0.1-0.4,0c-7.8-1.5-15.2-0.9-22.1,3.5C412.2,32.4,410,34.6,409.3,38z M418.7,60.7c3,2.6,6,4.1,9.3,5.1
			c6.7,2.2,16.3,0,20.9-5.8c1.6-2,2.6-4.4,3.5-6.7c2-4.9,0.6-8.8-4-11.1c-0.7-0.4-1.4-0.7-2.2-1c-1.6-0.7-3-0.6-4.5,0.4
			c-2.5,1.8-4.2,4.2-5.9,6.6C431.5,54.1,426.8,59.4,418.7,60.7z"/>
		<path class="st1" d="M283.9,163.9c-0.1-5.5,1-10.7,3.5-15.6c3.6-7.2,9.6-11.2,17.1-13.4c4.8-1.4,9.6-2,14.5-1.2
			c8.4,1.3,14.9,5.7,19.2,13c7.7,12.9,4.8,28-4.8,38.5c-4.5,5-9.9,8.9-16.2,11.1c-8.2,2.9-16.4,1.4-23.2-5.6
			C286.8,183.2,284.1,174,283.9,163.9z M295.7,153.4c-0.9,1.6-1.6,3.1-1.9,4.7c-1.3,8.2-0.1,15.9,4.5,23c4.8,7.5,14.5,9.1,21.3,3.5
			c0.5-0.4,0.8-1,0.9-1.7c0.3-2.8,0-5.5-1.8-7.9c-2.5-3.4-6.2-5.2-9.8-7.1c-4.6-2.5-8.9-5.2-11.5-10
			C296.7,156.5,297,154.8,295.7,153.4z M329.2,175.5c1.1-2.3,2.2-4.1,2.8-6.1c4.3-14.2-5-29-21.7-26.3c-0.5,0.1-1.1,0-1.4,0.5
			c-1.1,2.2-2.7,4.3-3.1,6.8c-0.3,1.8-0.3,3.5,1.1,4.9c1.7,1.6,3.7,2.7,5.8,3.8c3.8,2,7.4,4.1,10.6,6.9
			C326.1,168.6,328.1,171.5,329.2,175.5z"/>
		<path class="st1" d="M509.3,126.9c0.2-10.7,4.1-19.9,11.6-27.4c6.8-6.8,16.1-7.5,24.7-3.7c10.3,4.6,17.1,12.6,20.9,23
			c2.5,6.8,2.8,13.9-0.2,20.7c-2.6,5.8-6.9,10.3-12.2,13.8c-6.8,4.6-14.2,6.2-22.2,4.2c-6.7-1.7-12-5.4-16.1-10.8
			C511.3,140.8,509.3,134.2,509.3,126.9z M535.6,102.7c-4.6,0.4-8.1,2.8-10.7,6.4c-1.3,1.7-2.7,3.8-1.3,6.1c1.2,2.1,2.9,4,5.1,5
			c3,1.3,6.2,1.5,9.4,1.7c3.9,0.2,7.8-0.4,11.7,1c3.2,1.1,6.2,2.4,7.9,5.5c0.2,0.4,0.4,0.6,0.8,0.5c0.4-0.1,0.4-0.6,0.4-0.9
			c-0.3-1.9-0.6-3.9-1.1-5.8c-1.6-5.4-4.9-9.8-9.1-13.5C544.9,105.4,540.7,103.1,535.6,102.7z M519.2,125.3
			c-0.5,0.8-0.4,1.5-0.4,2.2c-0.1,4.3,1.2,8.2,3.5,11.9c4.5,7.1,12.6,10.9,21,8.6c6.2-1.7,7.9-3.8,8-8.9c0-4.8-1.9-7.1-6.7-7.6
			c-1.3-0.1-2.6-0.2-3.9-0.2c-3.6-0.1-7.2-0.3-10.8-0.9C526,129.8,522.4,128,519.2,125.3z"/>
		<path class="st2" d="M470.8,219.4c-1.8-0.2-3.6-0.4-5.3-1.1c-1.2-0.5-2.2,0.2-3.4,0.2c4.3-4.2,6.6-9.8,10.3-14.4
			c0.8-1,0.9-1.6-0.3-2.4c-1.7-1.1-3.3-2.3-4.9-3.7c-1-0.9-1.6-0.8-2.4,0.3c-3.4,4.8-6.5,9.8-9.4,14.8c-1.3,2.2-2.6,4.5-4,6.7
			c-0.3-0.1-0.5-0.1-0.8-0.2c0.1-4.3,0.4-8.6,1.8-12.7c0.5-1.3,0-1.7-1.1-2c-1.9-0.6-3.7-1.2-5.5-1.9c-1.6-0.6-2.2-0.1-2.7,1.6
			c-1.6,5.3-1.7,10.7-2.2,16.1c-1.6-0.4-3.1,0.7-4.8,0.5c0-6.9-0.1-13.7,0-20.6c0-1.8-0.5-2.3-2.2-2.2c-1.6,0.1-3.2,0.2-4.8,0
			c-2-0.2-2.4,0.5-2.4,2.4c0.1,7.7,0,15.3-0.1,23c-0.2-0.1-0.4-0.3-0.6-0.4c-1.7-4.9-3.3-9.7-5-14.6c-0.3-0.8-0.6-1.5-1-2.2
			c-1.6-3.3-1.6-3.3-4.9-1.6c-1.6,0.8-3.9,1.3-4.6,2.6c-0.5,1,0.9,3.1,1.5,4.7c0.6,1.5,1.1,3,1.7,4.5c1.1,3.1,1.1,3.1-2,4.3
			c-2.6-3.6-5-7.3-5.2-11.9c0-1.1-0.8-2-1.3-2.9c-2.8-5.1,0.2-10.5,6-10.7c1.3,0,1.5-0.5,1.7-1.6c0.6-5.2,5.3-7.4,9.6-4.5
			c1.8,1.2,2.1,3.2,2.5,5.1c0.2,0.7-0.4,2,1,2c1.5,0,0.9-1.2,1-2c0.3-2,0.8-3.7,2.2-5.3c2.2-2.4,6.7-2.4,8.7,0.4
			c1.5,2.1,3.3,1.9,5.2,1.6c1.4-0.2,2.6-0.3,3.8,0.4c1.3,0.7,2.2,0.3,2.7-1.1c0.2-0.5,0.4-0.9,0.6-1.4c2.5-4.7,4.3-5.3,9.3-3.4
			c0.7,0.3,1.2,0.1,1.8-0.3c2.7-1.5,5.6-1.2,7.4,0.6c2.1,2.1,2.5,4.5,1,7.6c-1.3,2.9-1.3,2.9,1.4,4.4c1,0.6,1.7,1.1,2,2.5
			c0.3,1.7,2.4,1.8,3.8,2.1c1.5,0.4,1.7,1.1,1.4,2.3c-1.3,4.6-3.4,8.7-6.3,12.4C471.6,218,471.2,218.8,470.8,219.4z"/>
		<path class="st2" d="M348.5,414.9c1.8-3.6,3.3-6.9,5-10.1c3.8-7.1,7.5-14.3,11.4-21.3c5.8-10.6,11.7-21.2,17.6-31.8
			c4.1-7.4,8.3-14.7,12.4-22.1c0.8-1.4,1.2-1.8,2.9-0.9c5.3,2.6,10.8,4.5,16.6,5.8c9.7,2.1,19.3,2.4,29.1,0.6
			c10-1.8,19.3-5.3,27.7-11.2c0.5-0.4,1.1-0.6,1.9-1.1c0.6,2.1,1.1,4,1.7,5.9c3.5,12,9.6,22.7,15.7,33.5c4.8,8.6,9.8,17.2,13.1,26.6
			c0.9,2.4,1.6,4.8,2.2,7.3c0.9,3.6-0.4,5.3-4.5,6.5c-3.8,1.2-7.8,1.8-11.7,2.7c-4.1,0.9-7.9,2.5-11.9,3.6
			c-9.3,2.7-18.7,4.3-28.3,5.5c-19.7,2.4-39.5,2.1-59.3,1.6c-12.8-0.4-25.6-0.7-38.3-1C350.8,414.9,349.9,414.9,348.5,414.9z"/>
		<path class="st3" d="M450.7,219.8c0.3,0.1,0.5,0.1,0.8,0.2c1.1,1.5,3.2,1.7,4.5,3c-1.1,0.7-1,2-0.5,2.7c0.6,0.9,1.9,0.3,2.8,0.4
			c-0.4,1.3,0.4,1.5,1.4,1.5c9.5-0.4,16.9,3.4,22.6,10.9c3,4,4.7,8.7,5.8,13.5c1.9,9.1,1.7,18.3-0.1,27.4c-2,10.1-5.6,19.8-12.1,28
			c-4.2,5.2-9.5,9.1-15.5,12.2c-10.8,5.5-22.4,7.9-34.5,7c-7.9-0.6-15.6-2.5-22.9-6c-8.7-4.1-15.5-10.3-20.3-18.5
			c-2.5-4.3-3.9-9.3-4.3-14.3c-1.1-13.1,2.6-25.1,9.5-36.1c3.8-6.1,9.4-10.7,15.4-14.7c5.6-3.8,11.5-6.8,17.6-9.7
			c0.3-0.1,0.8-0.2,0.8-0.3c0-3.1,3-2.1,4.4-3.1c0.1-0.1,0.1-0.3,0.1-0.4c0.2,0.1,0.4,0.3,0.6,0.4c0,1,0.4,1.4,1.5,1.3
			c1.3-0.1,2.6,0,3.9,0c4,0,4,0,4.2-4c1.6,0.3,3.1-0.8,4.8-0.5c-0.1,1,0.5,1.3,1.5,1.4c1.6,0.1,3.2,0.3,4.8,0.5
			C450.4,223.1,450.4,223.1,450.7,219.8z M428.2,286.4c-5.3,0.2-10.4-0.8-15.3-3c-7.4-3.4-11.1-10.7-9.7-18.8
			c1-5.4,2.8-10.4,5.4-15.1c0.4-0.7,0.6-1.2-0.4-1.7c-2.1-1-4.1-2.2-6-3.4c-1-0.7-1.5-0.4-1.9,0.6c-3.1,6.5-6,13.1-6.5,20.5
			c-0.6,8.1,1.4,15.3,7.3,21.1c5.6,5.5,12.5,8.2,20.1,9c17.4,1.8,33.2-2.2,46.2-14.4c5.4-5,8.7-11.2,10-18.5
			c1.2-6.8,0.1-13.4-2.1-19.8c-0.4-1.2-1-1.4-2.1-0.9c-1.4,0.7-2.8,1.2-4.2,1.7c-3.2,1.2-3.2,1.2-2,4.5c3.6,9.7,0.4,21-7.6,27.6
			C450.3,283.2,439.8,286.4,428.2,286.4z M423.4,242c-0.9-0.2-1.1,0.6-1.3,1.1c-0.6,1.6-1.2,3.3-1.9,4.9c-0.3,0.7-0.1,0.8,0.5,1.1
			c2.3,0.9,4.6,1.8,6.9,2.8c0.7,0.3,1.2,0.4,1.5-0.5c0.6-1.7,1.4-3.4,2-5c0.2-0.5,0.4-1.1-0.2-1.3C428.5,243.9,426,243,423.4,242z
			 M446.1,246.9c1-0.3,2.2,0.6,2.8-0.9c0.7-1.8,1.4-3.8,0.9-5.5c-0.3-1.2-2.7-0.9-4.1-1.3c-0.9-0.2-1.8-0.4-2.8-0.6
			c-0.8-0.1-1.6-0.3-2,0.8c-0.7,1.7-1,3.5-1.2,5.3c0,0.4,0,0.7,0.4,0.8C442.1,246,444.2,246.5,446.1,246.9z M450.6,263.8
			c-0.6,0.1-1,0.5-0.8,1c0.4,0.9,1.4,1.4,2.3,1.6c0.4,0.1,1-0.3,0.8-0.8C452.5,264.7,451.7,264.1,450.6,263.8z"/>
		<path class="st4" d="M500.5,472.7c-3.6,0.2-8.2-0.3-12.7-0.9c-1.9-0.3-3-1.1-2.9-3.2c0.1-6.6-0.8-13.3-1.1-19.9
			c-0.2-4.2-1.2-8.4-4.2-11.8c-1.6-1.8-6.1-3.2-8.4-2.4c-8.7,2.8-17.6,4-26.7,4.2c-15.6,0.3-31.2-1.3-46.9-1
			c-5.6,0.1-11.3,0.4-16.8,1.2c-4.5,0.7-9.1,1.4-13.4,3.3c-3.1,1.4-4.9,3.7-5.3,7.1c-0.5,4.9,0.5,9.6,1.9,14.2
			c1.2,4.1,2.5,8.3,4.1,12.3c1.1,2.6,2,5.3,3.1,7.9c0.6,1.3,0.5,1.9-1.1,1.8c-7.8-0.4-15.6-0.4-23.1-2.8c-3.3-1-6.5-1.9-8.9-4.6
			c-1.6-1.7-2.3-3.8-2.4-6.1c-0.4-7,1.8-13.5,3.7-20c1.6-5.3,3.4-10.6,5-15.9c1-3.3,2.1-6.6,2.8-10c0.4-2.1,2.4-2.2,4-2
			c4.8,0.6,9.6,0.3,14.4,0.5c11.2,0.5,22.3,0.8,33.5,1c6.9,0.1,13.9,0.3,20.8,0.1c12.5-0.3,24.9-0.9,37.2-2.8
			c11-1.7,21.8-4.1,32.4-7.9c2.4-0.8,4.9-1.3,7.4-1.7c2.2-0.4,4.4-1,6.5-1.8c2.2-0.7,2.6-0.5,2.9,1.8c0.1,0.9,0.1,1.9,0.1,2.8
			c0.5,8.8,1,17.7,2.1,26.5c1.1,8,2.4,16.1,5.1,23.8c0.4,1.1,0.7,2.3,1.3,3.4c0.8,1.4,0.5,1.8-1.1,2
			C509.8,472.5,505.6,472.6,500.5,472.7z"/>
		<path class="st5" d="M274.3,545.5c-2.9,0.1-4.6-2.1-4.2-4.9c0.5-3.4,2.4-5.8,4.9-8c2.1-1.9,4.6-3.3,7-4.8c2-1.2,3.1,0.9,4.7,1.5
			c1.5,0.6,0.2,1.5,0.1,2.1c-0.4,2.2-0.9,4.4-1.9,6.4c-1.6,3.1-4.3,5.3-7.5,6.7C276.5,545,275.4,545.6,274.3,545.5z"/>
		<path class="st5" d="M532.2,565.3c2.9,0.5,6,0.9,8.4,3.1c1.6,1.4,1.3,3-0.4,4.3c-1.2,0.8-1.7,2.3-3.1,3.1c-4,2.2-10,1.1-12.6-2.6
			c-1.1-1.5,0.5-5.2,2.7-6.5C528.7,565.7,530.4,565.6,532.2,565.3z"/>
		<path class="st3" d="M366.8,251.7c2.6-0.2,5.2,1,7.9,1.7c0.9,0.2,0.9,0.7,0.5,1.5c-0.4,0.8-0.8,1.7-1.1,2.6
			c-1.3,3.6-4.2,4.6-7.6,2.6c-1.7-1-3.1-2.4-4-4.2c-1.2-2.7-0.4-4,2.5-4.2C365.6,251.7,366.1,251.7,366.8,251.7z"/>
		<path class="st3" d="M551,216.7c-1.9,2.9-3.2,5.7-4.2,8.6c-0.9,2.6-3.3,2.3-5.3,2.5c-1.7,0.1-3.2-0.7-3.8-2.6
			c-0.7-2.1-0.2-3.9,1.5-5C542.6,217.8,546.4,216.3,551,216.7z M539.5,224.3c0.4,0,0.8-0.2,0.7-0.6c0-0.5-0.4-0.9-0.9-1.1
			c-0.5-0.2-0.6,0.3-0.6,0.6C538.7,223.8,538.9,224.2,539.5,224.3z"/>
		<path class="st3" d="M308.5,252.7c0-2.4,0.4-4.8,1.4-7c0.7-1.7,4-2.9,5.6-2.1c0.7,0.3,0.7,0.9,0.7,1.5c-0.1,4.4-2.2,7.8-5.5,10.4
			c-1.3,1-2.2,0.4-2.2-1.2C308.4,253.7,308.5,253.2,308.5,252.7z"/>
		<path class="st3" d="M499.4,252.3c1.4,0.1,2.7,0.5,4,0.8c2.2,0.6,2.3,2,1.7,3.7c-0.9,2.3-2.5,3.8-4.9,4.5c-1,0.3-1.8,0.2-1.9-1.2
			c-0.1-2-0.4-4-0.6-6C497.6,252.3,497.7,252.2,499.4,252.3z"/>
		<path class="st2" d="M458.2,226.1c-1-0.1-2.3,0.4-2.8-0.4c-0.5-0.7-0.5-2,0.5-2.7C457.4,223.5,458.9,224,458.2,226.1z"/>
		<path class="st0" d="M559.1,221.3c-0.3-0.2-0.7-0.5-1-0.8c-0.2-0.2,0.1-0.4,0.3-0.4c0.6,0,1,0.1,1,0.8
			C559.3,221,559.2,221.2,559.1,221.3z"/>
		<path class="st3" d="M418.7,60.7c8.1-1.3,12.7-6.6,17.1-12.4c1.8-2.4,3.5-4.8,5.9-6.6c1.5-1.1,2.9-1.1,4.5-0.4
			c0.7,0.3,1.5,0.6,2.2,1c4.6,2.3,6,6.2,4,11.1c-1,2.4-1.9,4.7-3.5,6.7c-4.6,5.9-14.2,8-20.9,5.8C424.7,64.8,421.7,63.2,418.7,60.7z
			"/>
		<path class="st5" d="M418.2,50.9c-1.4-0.1-2.6,0.7-4,0.5c-3.6-0.4-4.2-3.2-4.8-6c0-2.5,0-5,0-7.5c0.7-3.3,2.9-5.5,5.6-7.3
			c0.9,0.2,1.6,0,2.4-0.4c3.7-1.7,7.6-3,11.8-3c2.6,0,5.2,0,7.8-0.1c0.1,0,0.3,0,0.4,0c0.4,1.6,1.6,0.7,2.4,0.9c0,0,0,0,0,0
			c0.5,1.1,1.4,1.6,2.4,1.8c0.8,0.1,1.2,0.6,1.4,1.4c-0.4,0-0.7,0.1-1.1,0.1c-1.5-1.6-3.3,0.7-5.2-0.8c0.5,1,0.7,1.5,0.9,2
			c-2.5,1.2-4.2,3.3-6.1,5.2c-0.9,0.9-1.7,1.9-2.5,2.8c-1.7,0.2-2.5,1.4-3.5,2.6c-1.6,1.7-2.2,4.2-4.6,5.2c-0.1-0.3-0.1-0.7-0.6-0.7
			c-0.1,0-0.1,0.1-0.1,0.1c0,0.5,0.3,0.5,0.7,0.5c0,0.5-0.3,0.6-0.8,0.9C419.9,49.7,418.6,49.6,418.2,50.9z M435.7,28.7
			c0.2,0.1,0.3,0.2,0.5,0.2c0,0,0.2-0.3,0.2-0.3c-0.1-0.1-0.3-0.2-0.4-0.3C435.9,28.4,435.8,28.5,435.7,28.7z M439.4,29.3
			c-0.1,0.1-0.2,0.2-0.2,0.3c0,0.1,0,0.1,0,0.2c0.1,0,0.2,0,0.3,0C439.5,29.7,439.5,29.5,439.4,29.3z M418.7,48.9
			c-0.1-0.1-0.1-0.3-0.2-0.3c-0.1,0-0.2,0-0.3,0.1c0.1,0.1,0.1,0.3,0.2,0.3C418.5,49,418.6,48.9,418.7,48.9z"/>
		<path class="st3" d="M437,27.2c-2.6,0-5.2,0.1-7.8,0.1c-4.2,0-8.1,1.2-11.8,3c-0.9,0.4-1.6,0.6-2.4,0.4
			C421.8,26.3,429.3,25.7,437,27.2z"/>
		<path class="st3" d="M421.6,48.3c2.4-1,3-3.5,4.6-5.2c1-1.1,1.8-2.4,3.5-2.6c-2.3,3.4-4.6,6.6-7.9,9.1c-1,0.8-2.1,1.5-3.5,1.3
			c0.4-1.3,1.7-1.2,2.6-1.7C421.3,49,421.6,48.8,421.6,48.3L421.6,48.3z"/>
		<path class="st3" d="M438.3,32.5c-0.2-0.5-0.5-1-0.9-2c1.9,1.4,3.6-0.9,5.2,0.8C441.1,31.7,439.7,32.1,438.3,32.5z"/>
		<path class="st3" d="M443.6,31.2c-0.1-0.8-0.5-1.2-1.4-1.4c-1.1-0.2-2-0.7-2.4-1.8c1.5,0.2,2.9,0.7,4.1,1.7
			C444.7,30.4,445,31,443.6,31.2z"/>
		<path class="st3" d="M409.3,38c0,2.5,0,5,0,7.5C408.7,43,408.5,40.5,409.3,38z"/>
		<path class="st3" d="M439.8,28.1c-0.9-0.1-2.1,0.7-2.4-0.9C438.3,27.4,439.1,27.5,439.8,28.1z"/>
		<path class="st3" d="M295.7,153.4c1.3,1.4,1,3.1,1.8,4.5c2.6,4.8,6.9,7.5,11.5,10c3.6,1.9,7.3,3.7,9.8,7.1
			c1.8,2.4,2.1,5.1,1.8,7.9c-0.1,0.7-0.4,1.3-0.9,1.7c-6.7,5.6-16.5,3.9-21.3-3.5c-4.6-7.1-5.8-14.8-4.5-23
			C294.1,156.5,294.8,155,295.7,153.4z"/>
		<path class="st5" d="M329.2,175.5c-1.2-3.9-3.1-6.9-5.8-9.3c-3.2-2.9-6.9-5-10.6-6.9c-2.1-1.1-4.1-2.2-5.8-3.8
			c-1.4-1.4-1.4-3.1-1.1-4.9c0.4-2.5,2-4.6,3.1-6.8c0.3-0.5,0.9-0.5,1.4-0.5c16.7-2.8,26,12.1,21.7,26.3
			C331.5,171.3,330.3,173.1,329.2,175.5z"/>
		<path class="st4" d="M535.6,102.7c5.1,0.4,9.4,2.7,13,6c4.2,3.7,7.4,8.1,9.1,13.5c0.6,1.9,0.8,3.8,1.1,5.8
			c0.1,0.3,0.1,0.8-0.4,0.9c-0.4,0.1-0.6-0.1-0.8-0.5c-1.7-3.2-4.8-4.4-7.9-5.5c-3.8-1.4-7.8-0.8-11.7-1c-3.2-0.1-6.4-0.3-9.4-1.7
			c-2.3-1-3.9-2.9-5.1-5c-1.4-2.4,0.1-4.4,1.3-6.1C527.5,105.5,531,103.1,535.6,102.7z"/>
		<path class="st2" d="M519.2,125.3c3.2,2.7,6.7,4.5,10.8,5.2c3.6,0.6,7.2,0.8,10.8,0.9c1.3,0,2.6,0,3.9,0.2
			c4.7,0.5,6.7,2.7,6.7,7.6c0,5.1-1.8,7.2-8,8.9c-8.4,2.3-16.5-1.5-21-8.6c-2.3-3.7-3.6-7.5-3.5-11.9
			C518.9,126.9,518.7,126.1,519.2,125.3z"/>
		<path class="st1" d="M436.2,221.3c-0.2,4-0.2,4-4.2,4c-1.3,0-2.6-0.1-3.9,0c-1,0.1-1.5-0.3-1.5-1.3c0-7.7,0.1-15.3,0.1-23
			c0-1.9,0.5-2.6,2.4-2.4c1.6,0.2,3.2,0.1,4.8,0c1.7-0.1,2.3,0.4,2.2,2.2C436,207.6,436.1,214.5,436.2,221.3z"/>
		<path class="st1" d="M450.7,219.8c-0.3,3.3-0.3,3.3-3.5,3c-1.6-0.2-3.2-0.4-4.8-0.5c-1-0.1-1.5-0.4-1.5-1.4
			c0.5-5.4,0.6-10.8,2.2-16.1c0.5-1.7,1.1-2.2,2.7-1.6c1.8,0.7,3.7,1.3,5.5,1.9c1.1,0.3,1.6,0.7,1.1,2
			C451,211.2,450.7,215.5,450.7,219.8z"/>
		<path class="st1" d="M428.2,286.4c11.6-0.1,22.1-3.2,31.2-10.7c8.1-6.7,11.2-17.9,7.6-27.6c-1.2-3.3-1.2-3.3,2-4.5
			c1.4-0.5,2.9-1.1,4.2-1.7c1.1-0.5,1.7-0.4,2.1,0.9c2.2,6.4,3.3,13,2.1,19.8c-1.3,7.3-4.6,13.5-10,18.5
			c-13.1,12.2-28.8,16.2-46.2,14.4c-7.6-0.8-14.5-3.5-20.1-9c-5.9-5.8-7.9-13-7.3-21.1c0.5-7.4,3.4-13.9,6.5-20.5
			c0.5-1,0.9-1.3,1.9-0.6c2,1.2,4,2.4,6,3.4c1,0.5,0.8,1,0.4,1.7c-2.6,4.7-4.5,9.7-5.4,15.1c-1.4,8.1,2.3,15.4,9.7,18.8
			C417.8,285.7,422.9,286.6,428.2,286.4z"/>
		<path class="st1" d="M423.4,242c2.5,1,5,1.9,7.5,3c0.6,0.3,0.4,0.8,0.2,1.3c-0.7,1.7-1.4,3.3-2,5c-0.3,0.9-0.9,0.8-1.5,0.5
			c-2.3-0.9-4.6-1.9-6.9-2.8c-0.6-0.2-0.8-0.4-0.5-1.1c0.7-1.6,1.2-3.3,1.9-4.9C422.4,242.6,422.5,241.8,423.4,242z"/>
		<path class="st1" d="M446.1,246.9c-1.9-0.4-3.9-0.9-5.9-1.3c-0.5-0.1-0.5-0.5-0.4-0.8c0.2-1.8,0.5-3.6,1.2-5.3
			c0.4-1,1.2-0.9,2-0.8c0.9,0.1,1.9,0.4,2.8,0.6c1.5,0.3,3.9,0.1,4.1,1.3c0.4,1.6-0.3,3.7-0.9,5.5
			C448.2,247.5,447.1,246.6,446.1,246.9z"/>
		<path class="st0" d="M450.6,263.8c1,0.3,1.9,0.9,2.3,1.9c0.2,0.5-0.4,0.9-0.8,0.8c-0.9-0.3-1.9-0.7-2.3-1.6
			C449.6,264.3,450,263.8,450.6,263.8z"/>
		<path class="st0" d="M539.5,224.3c-0.6-0.1-0.8-0.6-0.7-1.1c0-0.4,0-0.8,0.6-0.6c0.5,0.2,0.9,0.6,0.9,1.1
			C540.3,224.2,539.9,224.3,539.5,224.3z"/>
		<path class="st3" d="M421.6,48.3c-0.3-0.1-0.7-0.1-0.7-0.5c0-0.1,0.1-0.1,0.1-0.1C421.6,47.6,421.6,48,421.6,48.3
			C421.6,48.3,421.6,48.3,421.6,48.3z"/>
		<path class="st3" d="M435.7,28.7c0.1-0.2,0.2-0.3,0.2-0.4c0.1,0.1,0.3,0.2,0.4,0.3c0,0-0.1,0.3-0.2,0.3
			C436,28.8,435.9,28.7,435.7,28.7z"/>
		<path class="st3" d="M439.4,29.3c0,0.2,0.1,0.3,0.1,0.5c-0.1,0-0.2,0-0.3,0c0-0.1,0-0.1,0-0.2C439.3,29.5,439.3,29.5,439.4,29.3z"
			/>
		<path class="st3" d="M418.7,48.9c-0.1,0-0.3,0.1-0.3,0.1c-0.1,0-0.1-0.2-0.2-0.3c0.1,0,0.2-0.1,0.3-0.1
			C418.6,48.7,418.7,48.8,418.7,48.9z"/>
	</g>
</g>
</svg>
